<svg xmlns="http://www.w3.org/2000/svg" width="128" height="128" fill-rule="evenodd" clip-rule="evenodd" image-rendering="optimizeQuality" shape-rendering="geometricPrecision" text-rendering="geometricPrecision"><path fill="#7f6bee" d="M62.5 2.5c1.3-.24 2.3.1 3 1l-2 19c-.67 0-1-.33-1-1a45.63 45.63 0 0 1 0-19Z" opacity=".85"/><path fill="#8a63f0" d="M65.5 3.5c3 2.66 5 6 6 10a159.34 159.34 0 0 0-1.5 18 3.3 3.3 0 0 1-1.5 2 81.67 81.67 0 0 1-5-11l2-19Z" opacity=".97"/><path fill="#7673ed" d="M62.5 2.5a45.63 45.63 0 0 0 0 19 88.16 88.16 0 0 0-6 11c-.06-7.03-.06-14.36 0-22 .58-3.86 2.58-6.53 6-8Z" opacity=".9"/><path fill="#707aed" d="M56.5 10.5c-.06 7.64-.06 14.97 0 22a16.33 16.33 0 0 1-2 5c-.74-6.2-1.41-12.53-2-19a22.58 22.58 0 0 1 4-8Z" opacity=".94"/><path fill="#9758f2" d="M71.5 13.5c2.9 4.8 5.57 9.8 8 15a22 22 0 0 0-2 9.5l.5 9.5c1 .57 1.83 1.23 2.5 2a6.48 6.48 0 0 1-4.5-1l-7.5-15a3.3 3.3 0 0 0 1.5-2c.17-6.18.67-12.18 1.5-18Z" opacity=".98"/><path fill="#6880eb" d="M52.5 18.5c.59 6.47 1.26 12.8 2 19a86.64 86.64 0 0 1-6 11c.82-7.97 1.16-15.97 1-24a12.8 12.8 0 0 1 3-6Z" opacity=".88"/><path fill="#6187ea" d="M49.5 24.5c.16 8.03-.18 16.03-1 24-.34.84-1 1.17-2 1a77.77 77.77 0 0 1-1-17 22.58 22.58 0 0 1 4-8Z" opacity=".94"/><path fill="#a44bf3" d="M79.5 28.5a86.64 86.64 0 0 0 6 11v11a6.86 6.86 0 0 1-5-1 9.58 9.58 0 0 0-2.5-2l-.5-9.5a22 22 0 0 1 2-9.5Z" opacity=".88"/><path fill="#588eea" d="M45.5 32.5a77.77 77.77 0 0 0 1 17 67.99 67.99 0 0 1-7 2v-11a27.21 27.21 0 0 0 6-8Z" opacity=".92"/><path fill="#459ee7" d="M35.5 40.5a15.63 15.63 0 0 1 0 11l-4 1c-.26-3.77.08-7.44 1-11 .7-.9 1.7-1.24 3-1Z" opacity=".93"/><path fill="#4e97e8" d="M35.5 40.5h4v11h-4a15.63 15.63 0 0 0 0-11Z" opacity=".89"/><path fill="#b53df5" d="M85.5 39.5a19.4 19.4 0 0 0 8 1 34.33 34.33 0 0 0-1 11c-2.4.05-4.74-.28-7-1v-11Z" opacity=".82"/><path fill="#3ca6e5" d="M28.5 41.5h4a34.33 34.33 0 0 0-1 11h-4a39.7 39.7 0 0 1 1-11Z" opacity=".9"/><path fill="#c530f7" d="M93.5 40.5c2.22.87 4.55 1.2 7 1-.2 3.88-.2 7.54 0 11-2.74.1-5.4-.23-8-1-.26-3.77.08-7.44 1-11Z" opacity=".84"/><path fill="#30b0e4" d="M28.5 41.5a39.7 39.7 0 0 0-1 11 19.4 19.4 0 0 1-8 1c.75-3.63 1.41-7.3 2-11 2.36-.17 4.7-.5 7-1Z" opacity=".88"/><path fill="#1bc3e1" d="M15.5 43.5c-.97 7.58-1.3 15.25-1 23-1.67-1-3-2.33-4-4 .29-6.1-.04-12.1-1-18 1.94-.65 3.94-.98 6-1Z" opacity=".92"/><path fill="#23bce2" d="M21.5 42.5a243.5 243.5 0 0 1-2 11 8.8 8.8 0 0 1-4 1.5c.88.7 1.55 1.54 2 2.5v12a6.54 6.54 0 0 1-3-3c-.3-7.75.03-15.42 1-23l6-1Z" opacity=".91"/><path fill="#e910fc" d="M111.5 43.5c2.98.46 5.98.8 9 1v14a57.48 57.48 0 0 1-9 9c-.59-8.14-.59-16.14 0-24Z" opacity=".91"/><path fill="#09d2df" d="M6.5 44.5v15l-7-6v-6a11.16 11.16 0 0 1 7-3Z" opacity=".86"/><path fill="#13cae0" d="M6.5 44.5h3c.96 5.9 1.29 11.9 1 18l-4-3v-15Z" opacity=".98"/><path fill="#f902fe" d="M120.5 44.5c2.83.58 5.16 1.91 7 4v3a34.82 34.82 0 0 1-7 7v-14Z" opacity=".68"/><path fill="#2ab5e3" d="M17.5 57.5a25.64 25.64 0 0 1 6 6c.18 4.25.18 8.25 0 12a25.64 25.64 0 0 1-6-6v-12Z" opacity=".93"/><path fill="#d71ffa" d="M100.5 41.5c3.6.85 7.27 1.52 11 2-.59 7.86-.59 15.86 0 24-2 2.67-4.33 5-7 7 .22-4.73-.12-9.4-1-14a25.65 25.65 0 0 1 6-6 189.6 189.6 0 0 0-9-2c-.2-3.46-.2-7.12 0-11Z"/><path fill="#35ade5" d="M23.5 63.5c1.37 1.01 2.7 2.01 4 3 .32 4.2-.02 8.2-1 12a6.54 6.54 0 0 1-3-3c.18-3.75.18-7.75 0-12Z" opacity=".99"/><path fill="#c92cf8" d="M103.5 60.5c.88 4.6 1.22 9.27 1 14a13.32 13.32 0 0 1-5.5 5 391.7 391.7 0 0 0 5.5 39c-.76 5.14-3.43 6.8-8 5 .33-18.5 0-36.84-1-55 2.33-3 5-5.67 8-8Z" opacity=".94"/><path fill="#be35f6" d="M95.5 68.5c1 18.16 1.33 36.5 1 55a12.35 12.35 0 0 1-7-4c.26-4.1-.07-8.1-1-12 1.3.62 2.3.62 3 0a324.6 324.6 0 0 0 1-36 6.54 6.54 0 0 1 3-3Z" opacity=".94"/><path fill="#3ca6e5" d="M27.5 66.5c1.67 1 3 2.33 4 4v52l-3 2c-.97-12.83-1.3-25.5-1-38-.24-1.97.1-3.8 1-5.5a7.06 7.06 0 0 1-2-2.5 36.6 36.6 0 0 0 1-12Z" opacity=".97"/><path fill="#429fe6" d="M31.5 72.5c.62.11 1.12.44 1.5 1l1 21a5.54 5.54 0 0 0 1.5 3 79.14 79.14 0 0 1-2 10c.12.6.46.94 1 1 .93 3.9 1.26 7.9 1 12l-4 2v-50Z" opacity=".93"/><path fill="#b83bf6" d="M92.5 71.5c.33 12.18 0 24.18-1 36a226.48 226.48 0 0 1-4.5-31 38.44 38.44 0 0 1 5.5-5Z" opacity=".81"/><path fill="#499be7" d="M31.5 70.5c2.3 1.8 4.46 3.8 6.5 6-.11 7.06-.94 14.06-2.5 21a5.54 5.54 0 0 1-1.5-3l-1-21a2.26 2.26 0 0 0-1.5-1v-2Z" opacity=".98"/><path fill="#34ade5" d="M27.5 86.5c-.3 12.5.03 25.17 1 38-3.91.26-6.25-1.57-7-5.5a3242 3242 0 0 1 6-32.5Z" opacity=".88"/><path fill="#8368ef" d="M67.5 96.5c.31 3.87-.02 7.54-1 11a20.7 20.7 0 0 0-5-1c.26-3.77-.08-7.44-1-11 2.51-1.37 4.85-1.03 7 1Z" opacity=".9"/><path fill="#7674ed" d="M60.5 95.5a34.33 34.33 0 0 1 1 11 36.17 36.17 0 0 1-7 4 19.43 19.43 0 0 0 0-12 12.8 12.8 0 0 1 6-3Z"/><path fill="#905df1" d="M67.5 96.5c1.78.4 3.45 1.06 5 2a27.35 27.35 0 0 1 2 13 22.59 22.59 0 0 1-8-4 30.85 30.85 0 0 0 1-11Z" opacity=".96"/><path fill="#687feb" d="M54.5 98.5a19.43 19.43 0 0 1 0 12c-1.55.94-3.22 1.6-5 2a30.85 30.85 0 0 1-1-11 12.8 12.8 0 0 1 6-3Z" opacity=".93"/><path fill="#9d52f2" d="m72.5 98.5 8 5v12a14.36 14.36 0 0 1-6-4c.38-4.57-.29-8.9-2-13Z" opacity=".87"/><path fill="#5c8bea" d="M48.5 101.5c-.31 3.87.02 7.54 1 11a12.79 12.79 0 0 1-6 3 30.85 30.85 0 0 1-1-11l6-3Z" opacity=".9"/><path fill="#a947f3" d="M80.5 103.5c1.78.4 3.45 1.06 5 2v12a16.34 16.34 0 0 1-5-2v-12Z" opacity=".99"/><path fill="#5095e8" d="M42.5 104.5c-.31 3.87.02 7.54 1 11a24.54 24.54 0 0 1-8 5c.26-4.1-.07-8.1-1-12l8-4Z" opacity=".96"/><path fill="#b140f5" d="M85.5 105.5a7.07 7.07 0 0 1 3 2c.93 3.9 1.26 7.9 1 12a5.81 5.81 0 0 1-4-2v-12Z" opacity=".93"/></svg>