<svg xmlns="http://www.w3.org/2000/svg" width="128" height="128" fill-rule="evenodd" clip-rule="evenodd" image-rendering="optimizeQuality" shape-rendering="geometricPrecision" text-rendering="geometricPrecision"><path fill="#ffb4ff" d="M55.5-.5h15l6 2h-5c-.25 3.44.09 6.77 1 10a55.15 55.15 0 0 0-27 2c-.81-1.15-1.81-1.15-3 0a25.87 25.87 0 0 1-1-10 55.9 55.9 0 0 1 14-4Z"/><path fill="#ff659f" d="M106.5-.5h2c-.74 1.85-1.74 2.52-3 2l1-2Z" opacity=".84"/><path fill="#ffba27" d="M108.5-.5h5l1.5 3c.67 9.67.67 19.33 0 29a6.98 6.98 0 0 1-3.5 2.5c-9.77.95-19.43.61-29-1-2.67-3-2.67-6 0-9l14-1a45 45 0 0 0-24-11.5 28.85 28.85 0 0 1-1-10h5c1.8-.13 3.46.2 5 1 3.8 2.17 7.8 4.17 12 6 .6-.12.94-.46 1-1a46.5 46.5 0 0 1 9 7 4.3 4.3 0 0 0 1.5 2c.81-4.19.64-8.19-.5-12-.24-1.3.1-2.3 1-3 1.26.52 2.26-.15 3-2Z"/><path fill="#ff956e" d="M81.5 2.5a51.3 51.3 0 0 1 13 5c-.06.54-.4.88-1 1-4.2-1.83-8.2-3.83-12-6Z" opacity=".46"/><path fill="#ff0e47" d="M104.5 4.5a24.76 24.76 0 0 1 .5 12 4.3 4.3 0 0 1-1.5-2 25.6 25.6 0 0 0 1-10Z" opacity=".55"/><path fill="#ff8aff" d="M41.5 3.5c-.32 3.4.01 6.73 1 10 1.19-1.15 2.19-1.15 3 0a60.13 60.13 0 0 0-27 21c.17-5.01 0-10.01-.5-15-.69 1.24-1.19 1.24-1.5 0a55.22 55.22 0 0 1 25-16Z"/><path fill="#ff7000" d="M16.5 19.5c.31 1.24.81 1.24 1.5 0 .5 4.99.67 9.99.5 15-7.42 12-9.92 25-7.5 39a45.4 45.4 0 0 1 3 15c-2.07 2.9-4.57 3.57-7.5 2 .44.07.77-.1 1-.5-.66-17.93-1.33-35.76-2-53.5a45.81 45.81 0 0 1 11-17Z" opacity=".99"/><path fill="#f60" d="M5.5 36.5c.67 17.74 1.34 35.57 2 53.5-.23.4-.56.57-1 .5a6.95 6.95 0 0 1-3.5-4C1.97 82.67.8 79-.5 75.5v-24a53.91 53.91 0 0 1 6-15Z"/><path fill="#ffae2b" d="M119.5 36.5v56a57.8 57.8 0 0 1-18 22c-1.05-.58-.88-1.24.5-2 .67-3.67.67-7.33 0-11a2.86 2.86 0 0 1-2.5 1c13.89-14.68 18.89-32.01 15-52 .54-.06.88-.4 1-1a16.8 16.8 0 0 0-3-6 5.77 5.77 0 0 1 2-5.5c-.23-.4-.56-.57-1-.5.63-1.45 1.8-2.11 3.5-2 1.07.03 1.9.36 2.5 1Z"/><path fill="#ffaa38" d="M119.5 36.5a9.96 9.96 0 0 1 4.5 7 80.25 80.25 0 0 1-1 43 26.1 26.1 0 0 1-3.5 6v-56Z"/><path fill="#ff646d" d="M113.5 37.5c.44-.07.77.1 1 .5a5.77 5.77 0 0 0-2 5.5 3.38 3.38 0 0 1-1-2.5c-.11-1.7.55-2.87 2-3.5Z" opacity=".9"/><path fill="#ff5d7c" d="M112.5 43.5a16.8 16.8 0 0 1 3 6c-.12.6-.46.94-1 1a21.17 21.17 0 0 1-2-7Z" opacity=".3"/><path fill="#ff8500" d="M31.5 106.5c-.31 1.24-.81 1.24-1.5 0-.7 4.05-.53 8.05.5 12a40.76 40.76 0 0 1-8.5-6l-1 13c-.38.56-.88.89-1.5 1a281.72 281.72 0 0 1-1-33l-6 1a3.3 3.3 0 0 1 2-1.5l13.5-.5c5.28-.12 10.44.38 15.5 1.5 2.67 3 2.67 6 0 9l-14 1c.88.7 1.55 1.54 2 2.5Z" opacity=".99"/><path fill="#ff6f00" d="M19.5 126.5v1h-7l-1.5-3c-.67-9.67-.67-19.33 0-29 .38-.56.88-.89 1.5-1l6-1c-.31 11.08.02 22.08 1 33Z"/><path fill="#ffbd25" d="M101.5 114.5a69.58 69.58 0 0 1-31 13h-10c-1.6-3.92-1.27-7.59 1-11 14.45-.15 27.12-4.81 38-14 1 .09 1.83-.25 2.5-1 .67 3.67.67 7.33 0 11-1.38.76-1.55 1.42-.5 2Z"/><path fill="#ff9d00" d="M31.5 106.5a61.84 61.84 0 0 0 30 10c-2.27 3.41-2.6 7.08-1 11h-5a80.33 80.33 0 0 1-25-9 28.22 28.22 0 0 1-.5-12c.69 1.24 1.19 1.24 1.5 0Z" opacity=".97"/></svg>