<svg xmlns="http://www.w3.org/2000/svg" width="128" height="128" fill-rule="evenodd" clip-rule="evenodd" image-rendering="optimizeQuality" shape-rendering="geometricPrecision" text-rendering="geometricPrecision"><path fill="#5d6366" d="M11.5-.5h11a57.57 57.57 0 0 1 1 26 64.6 64.6 0 0 1-1-16c-4.01.17-8.01 0-12-.5-2.83-3.52-2.5-6.69 1-9.5Z" opacity=".98"/><path fill="#55656e" d="M22.5-.5h4c.7.9 1.7 1.24 3 1 .33 13.84 0 27.51-1 41a29.33 29.33 0 0 1-5-16 57.57 57.57 0 0 0-1-26Z"/><path fill="#5f757a" d="M26.5-.5h19a28.85 28.85 0 0 0-1 10h-12c-1.78 14.67 2.55 27 13 37a18.4 18.4 0 0 1-3 9 28.6 28.6 0 0 1-14-14c1-13.49 1.33-27.16 1-41-1.3.24-2.3-.1-3-1Z"/><path fill="#6c898f" d="M45.5-.5h22a6.86 6.86 0 0 1-5 1v8c1.3-.24 2.3.1 3 1h-21c-.25-3.44.09-6.77 1-10Z"/><path fill="#769fa9" d="M67.5-.5h19a9.6 9.6 0 0 1-6 1v8c1.6-.27 2.93.07 4 1h-19c-.7-.9-1.7-1.24-3-1v-8a6.86 6.86 0 0 0 5-1Z"/><path fill="#7ec0c8" d="M86.5-.5h4a6.86 6.86 0 0 0 5 1c.31 3.21-.02 6.21-1 9h-10a4.61 4.61 0 0 0-4-1v-8a9.6 9.6 0 0 0 6-1Z"/><path fill="#7fc0d3" d="M90.5-.5h8c-.17 13 0 26 .5 39a3.3 3.3 0 0 1 1.5-2 11.63 11.63 0 0 1-4 8c-.64-8.43-1.3-16.77-2-25v-10a20.85 20.85 0 0 0 1-9 6.86 6.86 0 0 1-5-1Z"/><path fill="#92c0d4" d="M98.5-.5h9c-.7.9-1.7 1.24-3 1v8a9.6 9.6 0 0 1 6 1h-6c.17 5.34 0 10.68-.5 16a27.22 27.22 0 0 1-3.5 11 3.3 3.3 0 0 0-1.5 2c-.5-13-.67-26-.5-39Z"/><path fill="#8ad3e3" d="M107.5-.5h8c4.75 6.5 3.08 9.84-5 10a9.6 9.6 0 0 0-6-1v-8c1.3.24 2.3-.1 3-1Z"/><path fill="#8ab9be" d="M94.5 19.5c.7 8.23 1.36 16.57 2 25a32.78 32.78 0 0 1-16 14 45.8 45.8 0 0 0 1-12c8.33-7 12.67-16 13-27Z"/><path fill="#76a4ab" d="M68.5 27.5v-1c12.16-2.36 16 1.98 11.5 13-2.42 3.93-5.92 5.93-10.5 6a81.6 81.6 0 0 0-1-18Z" opacity=".97"/><path fill="#7e8788" d="M68.5 26.5v1h-15a77.77 77.77 0 0 0 1 17c-7.86-2.71-10.69-8.05-8.5-16a9.47 9.47 0 0 1 2.5-1.5c6.66-.5 13.33-.67 20-.5Z"/><path fill="#6695a0" d="M68.5 27.5a81.6 81.6 0 0 1 1 18c-5.2.32-10.2-.01-15-1a77.77 77.77 0 0 1-1-17h15Z"/><path fill="#6f8a8f" d="M45.5 46.5c14.04 5.27 17.54 14.6 10.5 28-3.78 2.47-7.61 4.8-11.5 7a19.43 19.43 0 0 1 0-12c4.58-1.38 6.08-4.38 4.5-9a63.42 63.42 0 0 1-6.5-5 18.4 18.4 0 0 0 3-9Z"/><path fill="#78a7b1" d="M81.5 46.5a45.8 45.8 0 0 1-1 12c-2.83 1.9-3.67 4.57-2.5 8a30.14 30.14 0 0 0 3.5 3v11c-14.04-5.27-17.54-14.6-10.5-28 3.31-2.4 6.81-4.4 10.5-6Z"/><path fill="#82b6bf" d="M81.5 69.5a24.88 24.88 0 0 1 14 12c.33 8.85 0 17.52-1 26-.35-11.03-4.68-20.03-13-27v-11Z"/><path fill="#5e777d" d="M44.5 69.5a19.43 19.43 0 0 0 0 12 34.27 34.27 0 0 0-11 19l-2-19a28.38 28.38 0 0 1 13-12Z"/><path fill="#607375" d="m31.5 81.5 2 19a84.11 84.11 0 0 0-1 17h12c-.25 3.44.09 6.77 1 10h-19v-1h3c.17-13.34 0-26.67-.5-40a4.25 4.25 0 0 1-2.5 3c.88-3.2 2.55-5.87 5-8Z"/><path fill="#648d9d" d="M59.5 81.5c.98 10.25 1.3 20.58 1 31-1.3-.24-2.3.1-3 1h-3a125.6 125.6 0 0 0 2-31c.7-.9 1.7-1.24 3-1Z"/><path fill="#6e9ba4" d="M59.5 81.5c3.68-.17 7.35 0 11 .5 2.78.52 5.11 1.69 7 3.5a5.58 5.58 0 0 1-3-1c-1 9.31-1.33 18.64-1 28 1.6-.27 2.93.07 4 1h-20c.7-.9 1.7-1.24 3-1 .3-10.42-.02-20.75-1-31Z"/><path fill="#65898e" d="M56.5 82.5c.6 10.6-.06 20.92-2 31h-14c.7-.9 1.7-1.24 3-1v-23c1 7.48 1.33 15.15 1 23h5c.17-8.67 0-17.34-.5-26-.84 1.5-1.67 1.83-2.5 1a12.72 12.72 0 0 1 10-5Z"/><path fill="#7ec5d0" d="M95.5 81.5a27.19 27.19 0 0 1 7 12 271.48 271.48 0 0 0-3 34h-13a9.6 9.6 0 0 0-6-1v-8c1.6.27 2.93-.07 4-1h10v-10c1-8.48 1.33-17.15 1-26Z"/><path fill="#7ab1ba" d="M77.5 85.5c8.93 4.83 13.6 12.5 14 23a5.01 5.01 0 0 1-3 4.5c-3.65.5-7.32.67-11 .5a4.61 4.61 0 0 0-4-1c-.33-9.36 0-18.69 1-28 .92.63 1.92.96 3 1Z"/><path fill="#597f8a" d="M43.5 89.5c.8-.9 1.8-1.57 3-2 .83.83 1.66.5 2.5-1 .5 8.66.67 17.33.5 26h-5c.33-7.85 0-15.52-1-23Z"/><path fill="#51626b" d="M26.5 126.5c-1.7-8.02-2.7-16.35-3-25a26.65 26.65 0 0 1 3-12 4.25 4.25 0 0 0 2.5-3c.5 13.33.67 26.66.5 40h-3Z"/><path fill="#92cfdd" d="m102.5 93.5 1 6c-.6.24-.93.73-1 1.5.6 5.64 1.27 11.14 2 16.5 4.01-.17 8.01 0 12 .5 2.83 3.52 2.5 6.69-1 9.5h-16c.3-11.64 1.3-22.97 3-34Z"/><path fill="#627682" d="M43.5 89.5v23c-1.3-.24-2.3.1-3 1-2.98-.32-4.65-1.98-5-5a28.68 28.68 0 0 1 8-19Z"/><path fill="#954d89" d="M103.5 99.5a93.3 93.3 0 0 1 1 18c-.73-5.36-1.4-10.86-2-16.5.07-.77.4-1.26 1-1.5Z" opacity=".31"/><path fill="#5c5d66" d="M23.5 101.5c.3 8.65 1.3 16.98 3 25v1h-15c-3.5-2.81-3.83-5.98-1-9.5 3.99-.5 7.99-.67 12-.5a64.6 64.6 0 0 1 1-16Z"/><path fill="#6b898e" d="M44.5 117.5h21c-.7.9-1.7 1.24-3 1v8a6.86 6.86 0 0 1 5 1h-22a28.85 28.85 0 0 1-1-10Z"/><path fill="#779ea6" d="M65.5 117.5h19a4.61 4.61 0 0 1-4 1v8a9.6 9.6 0 0 1 6 1h-19a6.86 6.86 0 0 0-5-1v-8c1.3.24 2.3-.1 3-1Z"/></svg>