<svg xmlns="http://www.w3.org/2000/svg" width="128" height="128" fill-rule="evenodd" clip-rule="evenodd" image-rendering="optimizeQuality" shape-rendering="geometricPrecision" text-rendering="geometricPrecision"><path fill="#97457d" d="M86.5 1.5h9a5.98 5.98 0 0 1-2 5c-.44.07-.77-.1-1-.5l2-3a31.82 31.82 0 0 1-8-1.5Z" opacity=".8"/><path fill="#38dc84" d="M86.5 1.5c2.47.82 5.14 1.32 8 1.5l-2 3c.23.4.56.57 1 .5a16.33 16.33 0 0 1-2 5 39.93 39.93 0 0 0-10 8.5c-.95.48-1.95.65-3 .5-2.8-.6-5.46-1.6-8-3 .76-9.43 6.1-14.76 16-16Z"/><path fill="#77b980" d="M91.5 11.5a189 189 0 0 1-6 11.5 8.12 8.12 0 0 1-7-2.5 4.93 4.93 0 0 0 3-.5 39.93 39.93 0 0 1 10-8.5Z"/><path fill="#89d850" d="M125.5 23.5c-5.3 3.97-10.3 8.3-15 13a12.35 12.35 0 0 1 4-7 24.31 24.31 0 0 0 5-8c-.12-.6-.46-.94-1-1a14.53 14.53 0 0 1 4-6c2 2.65 3 5.65 3 9Z"/><path fill="#55d87d" d="m86.5 27.5 2 2c-1.46.96-2.8 2.12-4 3.5 2 .37 3.66 1.2 5 2.5a80.26 80.26 0 0 1-9.5-2c-2.5.75-5 1.42-7.5 2a4.78 4.78 0 0 0-4 3c-4.08 3.69-8.08 7.35-12 11h-1a48.77 48.77 0 0 0 7.5-34c7.96 3.92 15.8 7.92 23.5 12Z"/><path fill="#bcafa6" d="M118.5 20.5c.54.06.88.4 1 1a24.31 24.31 0 0 1-5 8 54.32 54.32 0 0 1 4-9Z" opacity=".99"/><path fill="#90ef2f" d="m125.5 23.5 2 7v8a35.71 35.71 0 0 1-7 17.5l-5 3c-6.08.66-12.08 1.49-18 2.5-2.18-1.3-4.18-.96-6 1 0 .67-.33 1-1 1-1.62-.57-3.29-.9-5-1l8-9a18.58 18.58 0 0 1 5-3 2.26 2.26 0 0 0 1.5-1c.16-5.19 2.5-9.19 7-12 1.76 1.48 2.92 1.15 3.5-1 4.7-4.7 9.7-9.03 15-13Z"/><path fill="#a9a3a4" d="M86.5 27.5c4.08.88 7.75 2.54 11 5-3.1-.71-6.1-1.71-9-3l-2-2Z" opacity=".28"/><path fill="#6be454" d="M88.5 29.5c2.9 1.29 5.9 2.29 9 3 1.65.16 2.99.83 4 2 .6.65 1.26 1.32 2 2a31.87 31.87 0 0 1-4.5 5 11.59 11.59 0 0 0-7.5-5c-1 .17-1.66-.16-2-1a9.57 9.57 0 0 0-5-2.5 19.57 19.57 0 0 1 4-3.5Z"/><path fill="#a985bd" d="M78.5 36.5a363.7 363.7 0 0 1-6 3c1.1-2.47 3.1-3.47 6-3Z" opacity=".5"/><path fill="#97cb5f" d="M101.5 34.5c2.77.3 5.27 1.3 7.5 3 .38-.56.88-.89 1.5-1-.58 2.15-1.74 2.48-3.5 1-4.5 2.81-6.84 6.81-7 12-.38.56-.88.89-1.5 1 1.33-3.22.83-6.22-1.5-9a81.3 81.3 0 0 0-5.5-5c3.14.63 5.64 2.3 7.5 5a31.87 31.87 0 0 0 4.5-5c-.74-.68-1.4-1.35-2-2Z"/><path fill="#51527f" d="M72.5 35.5a18.94 18.94 0 0 0-3 5c-.84-.34-1.17-1-1-2a4.78 4.78 0 0 1 4-3Z" opacity=".48"/><path fill="#75ce64" d="M72.5 39.5a363.7 363.7 0 0 0 6-3c.8-1.38 1.47-1.22 2 .5a66.34 66.34 0 0 1-4 10.5c-3.6-1.87-4.94-4.54-4-8Z"/><path fill="#7795c2" d="M87.5 37.5c2.84.34 3.5 1.67 2 4a14.48 14.48 0 0 1-2-4Z" opacity=".2"/><path fill="#54e166" d="M68.5 38.5c-.17 1 .16 1.66 1 2 1.9 4.57 4.9 8.23 9 11 .07.44-.1.77-.5 1a15.66 15.66 0 0 0-6.5-3.5 120.7 120.7 0 0 0-9 9.5 4.7 4.7 0 0 1 3 4c-2.6-2.73-5.6-3.4-9-2-.4-1.02-1.06-1.2-2-.5a70.94 70.94 0 0 0-12 13.5 102.01 102.01 0 0 1-12 12c.07-.44-.1-.77-.5-1a7.06 7.06 0 0 1-2.5 2c-5 4.33-9.67 9-14 14-1.22.53-2.39 1.2-3.5 2-.7.94-.53 1.6.5 2-2.71 5.26-1.38 9.26 4 12v1c-3.65-1.09-6.32.25-8 4h-2a6.54 6.54 0 0 1-3-3c.54-.06.88-.4 1-1a16.8 16.8 0 0 0-3-6v-2c.6-2.72 1.94-5.05 4-7a1115.23 1115.23 0 0 0 49.5-48c.46-.6.63-1.26.5-2a6.54 6.54 0 0 0 3-3c3.92-3.65 7.92-7.31 12-11Z"/><path fill="#6ee35c" d="M87.5 37.5c.49 1.5 1.16 2.83 2 4a5.73 5.73 0 0 1-1 3 23.63 23.63 0 0 0-4 7 17.89 17.89 0 0 1-6-3l4-11a4.01 4.01 0 0 1 5 0Z"/><path fill="#75be56" d="M91.5 40.5c3.46.71 5.46 2.88 6 6.5-1.92 3.96-4.92 5.13-9 3.5 1.4-3.23 2.4-6.56 3-10Z"/><path fill="#7f7f80" d="M88.5 44.5c-.24 3.12-1.57 5.45-4 7 .97-2.63 2.3-4.96 4-7Z" opacity=".68"/><path fill="#9358d6" d="M55.5 49.5h1a6.54 6.54 0 0 1-3 3c-.07-1.53.6-2.53 2-3Z" opacity=".77"/><path fill="#68ed44" d="M78.5 51.5c1.9.3 3.57.96 5 2a3.3 3.3 0 0 0 2 1.5l-69 69c-2.31.5-4.64.66-7 .5-1.3.24-2.3-.1-3-1 1-.44 1-1.1 0-2 1.68-3.75 4.35-5.09 8-4 8.65.51 12.15-3.49 10.5-12a8.9 8.9 0 0 0-3-4c-.4.23-.57.56-.5 1l-4-1a4.61 4.61 0 0 0-4-1c4.33-5 9-9.67 14-14-.85 1.53-.85 2.87 0 4v1c-.96 1.22-.8 2.55.5 4 3.7 4.68 7.54 5.01 11.5 1 8.91-7.4 17.41-15.4 25.5-24a8.8 8.8 0 0 0 1.5-5 20.68 20.68 0 0 1-1-5 4.7 4.7 0 0 0-3-4 120.7 120.7 0 0 1 9-9.5c2.3.57 4.47 1.74 6.5 3.5.4-.23.57-.56.5-1Z"/><path fill="#8de153" d="M83.5 53.5h10l-8 9c1.71.1 3.38.43 5 1-3.07.8-6.07 1.8-9 3a6.6 6.6 0 0 0-5 3c-1 1.67-2.33 3-4 4a65.3 65.3 0 0 0-13 11.5c.23.4.56.57 1 .5-10.33 11-21 21.67-32 32 .07-.44-.1-.77-.5-1l-3.5 3.5c.23.4.56.56 1 .5-4.48 4.84-9.8 6.18-16 4 2.36.16 4.69 0 7-.5l69-69a3.3 3.3 0 0 1-2-1.5Z"/><path fill="#768ca8" d="m97.5 61.5-6 1c1.82-1.96 3.82-2.3 6-1Z" opacity=".77"/><path fill="#e6c1dc" d="m56.5 60.5-14 13c3.1-4.64 7.1-9.14 12-13.5.94-.7 1.6-.52 2 .5Z" opacity=".02"/><path fill="#57e953" d="M56.5 62.5c.6-.64 1.43-.97 2.5-1 1.7-.11 2.87.55 3.5 2a328.61 328.61 0 0 1-30 31 3 3 0 0 0-2-2c-1.33-1-1.33-2 0-3a244.01 244.01 0 0 0 26-27Z"/><path fill="#7acb56" d="M62.5 63.5c2.35 1.75 2.52 3.75.5 6-8.03 8.2-16.2 16.2-24.5 24a5.81 5.81 0 0 0-4 2h-2v-1a328.61 328.61 0 0 0 30-31Z"/><path fill="#ab9db2" d="M81.5 66.5a6.6 6.6 0 0 1-5 3 6.6 6.6 0 0 1 5-3Z" opacity=".02"/><path fill="#d9c183" d="M66.5 67.5c0 1.8-.5 3.48-1.5 5a286.54 286.54 0 0 1-25.5 24 549.2 549.2 0 0 0 27-29Z"/><path fill="#99c563" d="M56.5 62.5a244.01 244.01 0 0 1-26 27 248.09 248.09 0 0 1 26-27Z" opacity=".9"/><path fill="#cfbdea" d="M72.5 73.5a102.01 102.01 0 0 1-12 12c-.44.07-.77-.1-1-.5a65.3 65.3 0 0 1 13-11.5Z" opacity=".02"/><path fill="#939cab" d="M30.5 85.5a18.94 18.94 0 0 0-3 5c-.85-1.13-.85-2.47 0-4a7.06 7.06 0 0 0 2.5-2c.4.23.57.56.5 1Z" opacity=".39"/><path fill="#a89678" d="M27.5 91.5c2.18 5.82 6.18 7.49 12 5-3.96 4.01-7.8 3.68-11.5-1-1.3-1.45-1.46-2.78-.5-4Z" opacity=".37"/><path fill="#95b66a" d="M53.5 52.5c.13.74-.04 1.4-.5 2a1115.23 1115.23 0 0 1-49.5 48c16.33-17 33-33.67 50-50Z" opacity=".99"/><path fill="#ad53b1" d="M30.5 92.5a3 3 0 0 1 2 2v1c-1.4-.47-2.07-1.47-2-3Z" opacity=".1"/><path fill="#ae51d0" d="M38.5 93.5c-.79 1.6-2.12 2.27-4 2a5.81 5.81 0 0 1 4-2Z" opacity=".65"/><path fill="#cd80ac" d="M13.5 100.5c1.6-.27 2.93.07 4 1-3-.33-5.32.67-7 3-1.03-.4-1.2-1.06-.5-2 1.11-.8 2.28-1.47 3.5-2Z" opacity=".33"/><path fill="#62e75b" d="M15.5 114.5c-3.76-1.2-5.1-3.53-4-7 4.24-4.45 7.58-3.95 10 1.5a46.06 46.06 0 0 1-6 5.5Z"/><path fill="#a4ab7d" d="M15.5 114.5a46.06 46.06 0 0 0 6-5.5c-2.42-5.45-5.76-5.95-10-1.5a3.92 3.92 0 0 1 2-3.5c7.54-1.76 10.2 1.07 8 8.5a7.2 7.2 0 0 1-6 2Z"/><path fill="#9b8082" d="M14.5 117.5v-1c9.82-.98 12.15-5.64 7-14-.07-.44.1-.77.5-1a8.9 8.9 0 0 1 3 4c1.65 8.51-1.85 12.51-10.5 12Z" opacity=".96"/><path fill="#917697" d="M-.5 111.5a16.8 16.8 0 0 1 3 6c-.12.6-.46.94-1 1a14.47 14.47 0 0 0-2-4v-3Z" opacity=".97"/><path fill="#cfb9cb" d="M28.5 117.5a6.54 6.54 0 0 1-3 3c-.44.06-.77-.1-1-.5l3.5-3.5c.4.23.57.56.5 1Z" opacity=".02"/><path fill="#9f4487" d="M4.5 121.5h2c1 .9 1 1.56 0 2a3 3 0 0 1-2-2Z" opacity=".85"/></svg>