<svg xmlns="http://www.w3.org/2000/svg" width="128" height="128" fill-rule="evenodd" clip-rule="evenodd" image-rendering="optimizeQuality" shape-rendering="geometricPrecision" text-rendering="geometricPrecision"><path fill="#d9cdc9" d="M51.5-.5h7a138.2 138.2 0 0 0-18 16.5c.56.38.89.88 1 1.5-16.4 8.75-25.73 22.42-28 41-.8-1.45-1.3-3.12-1.5-5l-11 11a3.3 3.3 0 0 0-1.5-2v-11l3-8a4.93 4.93 0 0 0 .5 3L46.5 3c-2.8.1-5.46.93-8 2.5-.6-.12-.94-.46-1-1a119.4 119.4 0 0 1 14-5Z"/><path fill="#decdc7" d="M58.5-.5h17c1.53.8 3.2 1.48 5 2 .11.62.44 1.12 1 1.5l-9 9a3.3 3.3 0 0 1 2 1.5 62.16 62.16 0 0 0-33 4 2.26 2.26 0 0 0-1-1.5 138.2 138.2 0 0 1 18-16.5Z"/><path fill="#dad6d4" d="M2.5 43.5c5.68-18.35 17.35-31.35 35-39 .06.54.4.88 1 1 2.54-1.57 5.2-2.4 8-2.5L3 46.5a4.93 4.93 0 0 1-.5-3Z"/><path fill="#e4b6ba" d="M80.5 1.5a43.21 43.21 0 0 1 16 7c-4.28 1.55-7.94 4.55-11 9-3.9-.96-7.56-2.3-11-4a3.3 3.3 0 0 0-2-1.5l9-9a2.26 2.26 0 0 1-1-1.5Z"/><path fill="#e8b4ac" d="M96.5 8.5c3.9 1.56 7.22 3.9 10 7l-10 9a93.52 93.52 0 0 1-11-7c3.06-4.45 6.72-7.45 11-9Z"/><path fill="#e8a69e" d="M106.5 15.5a58.39 58.39 0 0 1 13 16 4.93 4.93 0 0 0-3 .5 83.08 83.08 0 0 1-8 7.5 215.5 215.5 0 0 0-12-15l10-9Z"/><path fill="#e89c8f" d="M119.5 31.5a74.37 74.37 0 0 1 8 20v8c-.8-1.45-1.3-3.12-1.5-5a53.9 53.9 0 0 1-11.5 10 65.79 65.79 0 0 0-6-25 83.08 83.08 0 0 0 8-7.5 4.93 4.93 0 0 1 3-.5Z"/><path fill="#d6a8a3" d="M85.5 38.5a4.93 4.93 0 0 0-3 .5L39 82.5a4.93 4.93 0 0 0-.5 3 6.59 6.59 0 0 1-.5-6l15-15c.3-1.57-.2-2.9-1.5-4 4-2 7-5 9-9a3.97 3.97 0 0 0 4 1.5l15-15a6.59 6.59 0 0 1 6 .5Z"/><path fill="#f2b5ac" d="M85.5 38.5c1-.17 1.66.16 2 1a1629.51 1629.51 0 0 1-48 48c-.84-.34-1.17-1-1-2a4.93 4.93 0 0 1 .5-3L82.5 39a4.93 4.93 0 0 1 3-.5Z"/><path fill="#eaaca4" d="M87.5 39.5c1.89 2.3 2.39 4.96 1.5 8a123.26 123.26 0 0 0-15.5 17 32.15 32.15 0 0 0-10 9 348.73 348.73 0 0 0-16 15.5c-3.04.89-5.7.39-8-1.5a1629.51 1629.51 0 0 0 48-48Z"/><path fill="#e4bcb9" d="M60.5 51.5c-2 4-5 7-9 9a246.56 246.56 0 0 1-13.5-13c-1.5-7.83 1.67-11 9.5-9.5 4.54 4.37 8.87 8.87 13 13.5Z"/><path fill="#e2c6bf" d="M13.5 58.5a50.43 50.43 0 0 0 0 16 3.3 3.3 0 0 1-1.5-2l-9 9a2.26 2.26 0 0 0-1.5-1c-.52-1.8-1.2-3.47-2-5v-13a3.3 3.3 0 0 1 1.5 2l11-11c.2 1.88.7 3.55 1.5 5Z"/><path fill="#f08d7e" d="M127.5 59.5v16l-2 4a8.43 8.43 0 0 0-.5-4l-18 18a2.26 2.26 0 0 0-1.5-1c5-8.65 8-17.98 9-28a53.9 53.9 0 0 0 11.5-10c.2 1.88.7 3.55 1.5 5Z"/><path fill="#eea096" d="M73.5 64.5c5.3 4.8 10.46 9.8 15.5 15 1.5 7.83-1.67 11-9.5 9.5a348.73 348.73 0 0 0-16-15.5 32.15 32.15 0 0 1 10-9Z"/><path fill="#f78b7e" d="M125.5 79.5c.13 1.8-.2 3.46-1 5a5.43 5.43 0 0 1-.5-4L80.5 124c.56.38.89.88 1 1.5a20.7 20.7 0 0 1-5 1 2.26 2.26 0 0 0-1-1.5 221.69 221.69 0 0 0 21-22.5l9-10c.62.11 1.12.44 1.5 1l18-18c.49 1.3.66 2.63.5 4Z"/><path fill="#e8bab9" d="M13.5 74.5c1.7 3.44 3.04 7.1 4 11-2.7 3.7-6.04 6.7-10 9a33 33 0 0 1-6-14c.62.11 1.12.44 1.5 1l9-9a3.3 3.3 0 0 0 1.5 2Z"/><path fill="#fd8b7a" d="M124.5 84.5c-7.5 20.83-21.83 34.5-43 41a2.26 2.26 0 0 0-1-1.5L124 80.5a5.43 5.43 0 0 0 .5 4Z"/><path fill="#e7b4ae" d="M17.5 85.5a93.52 93.52 0 0 1 7 11l-9 10a29.11 29.11 0 0 1-8-12c3.96-2.3 7.3-5.3 10-9Z"/><path fill="#e6a89c" d="M24.5 96.5a62.25 62.25 0 0 0 28 17 45.3 45.3 0 0 0-7-.5c-3.32 2.8-6 5.97-8 9.5a52.8 52.8 0 0 1-22-16l9-10Z"/><path fill="#f08a83" d="M96.5 102.5a221.69 221.69 0 0 1-21 22.5c.56.38.89.88 1 1.5-1-.17-1.66.16-2 1h-9a2.26 2.26 0 0 0-1-1.5c4.9-5.06 9.9-9.9 15-14.5a69.07 69.07 0 0 0 17-9Z"/><path fill="#eb978f" d="M52.5 113.5c3.07-.13 6.07.2 9 1a58.57 58.57 0 0 0-12 10.5c1.24.23 2.24.73 3 1.5a35.89 35.89 0 0 1-15-4c2-3.53 4.68-6.7 8-9.5 2.3-.02 4.63.15 7 .5Z"/><path fill="#ec8e80" d="M79.5 111.5c-5.1 4.6-10.1 9.44-15 14.5.56.38.89.88 1 1.5h-13v-1a5.54 5.54 0 0 0-3-1.5 58.57 58.57 0 0 1 12-10.5 73.73 73.73 0 0 0 18-3Z"/></svg>