<svg xmlns="http://www.w3.org/2000/svg" width="128" height="128" fill-rule="evenodd" clip-rule="evenodd" image-rendering="optimizeQuality" shape-rendering="geometricPrecision" text-rendering="geometricPrecision"><path fill="#ff282d" d="M79.5 15.5a29.42 29.42 0 0 1 6 11c.85 2 1.35 4 1.5 6a286.48 286.48 0 0 0-15.5-13c-.6.12-.94.46-1 1a18.58 18.58 0 0 1-3-5c-3.42-3.24-7.09-6.4-11-9.5a14.83 14.83 0 0 1 11-.5 84.58 84.58 0 0 0 12 10Z"/><path fill="#ff3a45" d="M79.5 15.5a84.58 84.58 0 0 1-12-10 14.83 14.83 0 0 0-11 .5c3.91 3.1 7.58 6.26 11 9.5a9.71 9.71 0 0 0-7-.5 71.88 71.88 0 0 0-9 15.5 4.93 4.93 0 0 1-3-.5 23.43 23.43 0 0 1-5-5c1.48-3.13 2.82-6.3 4-9.5C50.99 5.55 57.99 1.72 68.5 4c5.89 1.72 9.56 5.56 11 11.5Z"/><path fill="#ff4942" d="M85.5 26.5a256.3 256.3 0 0 1 13 23c-1.22.96-2.55.8-4-.5A107.05 107.05 0 0 0 82 37.5c.15 2 .65 4 1.5 6a256.3 256.3 0 0 1-13-23c.06-.54.4-.88 1-1a286.48 286.48 0 0 1 15.5 13c-.15-2-.65-4-1.5-6Z"/><path fill="#ff3e55" d="M47.5 15.5c-1.18 3.2-2.52 6.37-4 9.5a23.43 23.43 0 0 0 5 5c.95.48 1.95.65 3 .5a785.8 785.8 0 0 0-18 33c-.54-.06-.88-.4-1-1l2-4a34.82 34.82 0 0 0-7-7 470.81 470.81 0 0 1 20-36Z"/><path fill="#ff3e43" d="M98.5 49.5a200.57 200.57 0 0 1 11 21c.13.74-.04 1.4-.5 2l-15-13a5.43 5.43 0 0 1-.5 4c-3.77-6.44-7.1-13.1-10-20-.85-2-1.35-4-1.5-6 4.45 3.48 8.62 7.32 12.5 11.5 1.45 1.3 2.78 1.46 4 .5Z"/><path fill="#ff3957" d="M60.5 38.5a9.03 9.03 0 0 1 7.5 2c.67 13.67.67 27.33 0 41-3 2.67-6 2.67-9 0a420.48 420.48 0 0 1 0-41 4.3 4.3 0 0 0 1.5-2Z"/><path fill="#ff396a" d="M27.5 51.5a34.82 34.82 0 0 1 7 7l-2 4c.12.6.46.94 1 1l-10 18c-1.27-.69-1.27-1.52 0-2.5-2.27-3.22-4.94-5.06-8-5.5 3.5-7.66 7.5-15 12-22Z"/><path fill="#ff3846" d="M109.5 70.5c4.17 6.34 7.84 13 11 20-.62.11-1.12.44-1.5 1a11.53 11.53 0 0 0-4.5-3.5L104 77.5c-.38.56-.88.89-1.5 1a166.3 166.3 0 0 1-9-15c.66-1.15.83-2.48.5-4l15 13c.46-.6.63-1.26.5-2Z"/><path fill="#ff3750" d="M120.5 90.5c2.85 3.7 5.19 7.7 7 12v10a7.07 7.07 0 0 0-2 3 71.92 71.92 0 0 1-9-7 8.43 8.43 0 0 0-.5-4 481.49 481.49 0 0 1-13.5-26 2.26 2.26 0 0 0 1.5-1L114.5 88c1.79.78 3.29 1.95 4.5 3.5.38-.56.88-.89 1.5-1Z"/><path fill="#ff3e6e" d="M61.5 87.5c6.53-.26 8.7 2.74 6.5 9-7.52 3.83-10.52 1.5-9-7 1-.57 1.83-1.23 2.5-2Z"/><path fill="#ff387d" d="M15.5 73.5c3.06.44 5.73 2.28 8 5.5-1.27.98-1.27 1.81 0 2.5-4.6 8.2-8.93 16.54-13 25a41.64 41.64 0 0 1-8.5-6c-.38.56-.88.89-1.5 1 4.5-9.66 9.5-19 15-28Z"/><path fill="#ff308b" d="M10.5 106.5a5.37 5.37 0 0 0 3 5.5c6 .5 12 .67 18 .5a96.2 96.2 0 0 1-14 1.5c4.34 5.25 9.68 8.41 16 9.5-7.67.17-15.34 0-23-.5a24.02 24.02 0 0 1-11-10.5v-10c.67 0 1-.33 1-1a2.26 2.26 0 0 0 1.5-1 41.64 41.64 0 0 0 8.5 6Z"/><path fill="#ff2c80" d="M31.5 112.5h27c-1.8.8-3.8 1.3-6 1.5 3.9 2.4 6.9 5.57 9 9.5h-28c-6.32-1.09-11.66-4.25-16-9.5a96.2 96.2 0 0 0 14-1.5Z"/><path fill="#ff3370" d="M58.5 112.5h28l12 11h-37c-2.1-3.93-5.1-7.1-9-9.5 2.2-.2 4.2-.7 6-1.5Z"/><path fill="#ff2b61" d="M116.5 108.5a71.92 71.92 0 0 0 9 7 19.84 19.84 0 0 1-9 7.5c-6 .5-12 .67-18 .5l-12-11c9 .17 18 0 27-.5a5.24 5.24 0 0 0 3-3.5Z"/></svg>