<svg id="Capa_1" enable-background="new 0 0 512 512" height="512" viewBox="0 0 512 512" width="512" xmlns="http://www.w3.org/2000/svg"><g><path d="m436 421h-30v-151c0-82.71-67.29-150-150-150s-150 67.29-150 150v151h-30c-8.284 0-15 6.716-15 15v61c0 8.284 6.716 15 15 15h360c8.284 0 15-6.716 15-15v-61c0-8.284-6.716-15-15-15zm-300-151c0-66.168 53.832-120 120-120s120 53.832 120 120v151h-240zm285 212h-330v-31h330z"/><path d="m255 90c8.284 0 15-6.716 15-15v-60c0-8.284-6.716-15-15-15s-15 6.716-15 15v60c0 8.284 6.716 15 15 15z"/><path d="m136.894 111.202c4.155 7.197 13.336 9.62 20.49 5.49 7.175-4.142 9.633-13.316 5.49-20.49l-30-51.961c-4.143-7.175-13.316-9.632-20.49-5.49-7.175 4.142-9.633 13.316-5.49 20.49z"/><path d="m86.192 188.616c4.143-7.174 1.685-16.348-5.49-20.49l-51.962-30c-7.175-4.143-16.349-1.685-20.49 5.49-4.143 7.174-1.685 16.348 5.49 20.49l51.962 30c7.143 4.125 16.33 1.716 20.49-5.49z"/><path d="m354.616 116.692c7.143 4.125 16.33 1.715 20.49-5.49l30-51.961c4.143-7.174 1.685-16.348-5.49-20.49-7.174-4.144-16.349-1.685-20.49 5.49l-30 51.961c-4.143 7.174-1.685 16.348 5.49 20.49z"/><path d="m503.75 143.616c-4.143-7.175-13.315-9.631-20.49-5.49l-51.962 30c-7.175 4.142-9.633 13.316-5.49 20.49 4.155 7.197 13.336 9.62 20.49 5.49l51.962-30c7.175-4.142 9.633-13.315 5.49-20.49z"/></g></svg>