<?xml version="1.0" encoding="UTF-8"?>
<svg xmlns="http://www.w3.org/2000/svg" xmlns:xlink="http://www.w3.org/1999/xlink" version="1.1" id="Capa_1" x="0px" y="0px" viewBox="0 0 512 512" style="enable-background:new 0 0 512 512;" xml:space="preserve" width="512" height="512">
<g>
	
		<path style="fill-rule:evenodd;clip-rule:evenodd;fill:none;stroke:#000000;stroke-width:29.9999;stroke-linecap:round;stroke-linejoin:round;stroke-miterlimit:22.9256;" d="&#10;&#9;&#9;M292.224,70.471c25.27,4.907,48.741,14.849,69.327,28.74l43.645-34.839l42.426,42.426l-34.842,43.657&#10;&#9;&#9;c13.884,20.587,23.83,44.051,28.736,69.317L497,225.996v59.999l-55.471,6.229c-4.907,25.269-14.849,48.741-28.74,69.327&#10;&#9;&#9;l34.839,43.645l-42.426,42.426l-43.657-34.842c-20.588,13.885-44.053,23.831-69.321,28.737L285.995,497h-59.999l-6.224-55.472&#10;&#9;&#9;c-25.269-4.908-48.739-14.85-69.327-28.741l-43.648,34.835l-42.426-42.426l34.846-43.654&#10;&#9;&#9;c-13.885-20.586-23.829-44.051-28.735-69.318L15,285.995v-59.999l55.47-6.224c4.906-25.271,14.846-48.745,28.736-69.335&#10;&#9;&#9;l-34.829-43.64l42.426-42.426l43.638,34.833c20.589-13.889,44.062-23.828,69.331-28.734L225.996,15h59.999L292.224,70.471z"/>
	<g>
		
			<line style="fill-rule:evenodd;clip-rule:evenodd;fill:none;stroke:#000000;stroke-width:29.9999;stroke-linecap:round;stroke-linejoin:round;stroke-miterlimit:10;" x1="137.363" y1="309.021" x2="182.372" y2="203.014"/>
		
			<path style="fill-rule:evenodd;clip-rule:evenodd;fill:none;stroke:#000000;stroke-width:29.9999;stroke-linecap:round;stroke-linejoin:round;stroke-miterlimit:10;" d="&#10;&#9;&#9;&#9;M182.372,203.014c0.92-2.017,4.103-2.02,5.027-0.005"/>
		
			<line style="fill-rule:evenodd;clip-rule:evenodd;fill:none;stroke:#000000;stroke-width:29.9999;stroke-linecap:round;stroke-linejoin:round;stroke-miterlimit:10;" x1="187.4" y1="203.01" x2="232" y2="309.021"/>
		
			<line style="fill-rule:evenodd;clip-rule:evenodd;fill:none;stroke:#000000;stroke-width:29.9999;stroke-linecap:round;stroke-linejoin:round;stroke-miterlimit:10;" x1="151.4" y1="282.62" x2="218.19" y2="282.62"/>
	</g>
	<g>
		
			<line style="fill-rule:evenodd;clip-rule:evenodd;fill:none;stroke:#000000;stroke-width:29.9999;stroke-linecap:round;stroke-linejoin:round;stroke-miterlimit:10;" x1="373.999" y1="201.5" x2="373.999" y2="309.021"/>
	</g>
	<g>
		
			<line style="fill-rule:evenodd;clip-rule:evenodd;fill:none;stroke:#000000;stroke-width:29.9999;stroke-linecap:round;stroke-linejoin:round;stroke-miterlimit:10;" x1="271.125" y1="201.5" x2="271.125" y2="309.021"/>
		
			<path style="fill-rule:evenodd;clip-rule:evenodd;fill:none;stroke:#000000;stroke-width:29.9999;stroke-linecap:round;stroke-linejoin:round;stroke-miterlimit:10;" d="&#10;&#9;&#9;&#9;M332,231.842c0,16.758-14.179,30.343-30.936,30.343c-8.311,0-29.73,0.134-29.73,0.134s-0.134-22.029-0.134-30.476&#10;&#9;&#9;&#9;c0-6.938-0.074-30.343-0.074-30.343s20.118,0,29.939,0C317.821,201.5,332,215.085,332,231.842"/>
	</g>
</g>















</svg>
