<?xml version="1.0" encoding="UTF-8" standalone="no"?>
<!-- Created with Inkscape (http://www.inkscape.org/) -->
<svg xmlns="http://www.w3.org/2000/svg" xmlns:svg="http://www.w3.org/2000/svg" version="1.1" id="svg1218" width="682.66669" height="682.66669" viewBox="0 0 682.66669 682.66669">
  <defs id="defs1222">
    <clipPath clipPathUnits="userSpaceOnUse" id="clipPath1232">
      <path d="M 0,512 H 512 V 0 H 0 Z" id="path1230"/>
    </clipPath>
  </defs>
  <mask id="custom"><rect id="bg" x="0" y="0" width="100%" height="100%" fill="white"/><g transform="matrix(1.3333333,0,0,-1.3333333,0,682.66667)"/></mask><g mask="url(#custom)"><g id="g1224" transform="matrix(1.3333333,0,0,-1.3333333,0,682.66667)">
    <g id="g1226">
      <g id="g1228" clip-path="url(#clipPath1232)">
        <g id="g1234" transform="translate(453.9165,278.1987)">
          <path d="m 0,0 -231.562,-231.562 c -42.183,-42.183 -110.993,-42.182 -153.175,0 l -1.427,1.428 c -42.183,42.182 -42.183,110.992 0,153.175 l 272.697,272.697 c 30.751,30.751 80.911,30.751 111.662,0 l 0.711,-0.711 c 30.75,-30.75 30.75,-80.911 0,-111.661 l -271.273,-271.273 c -19.318,-19.318 -50.841,-19.307 -70.148,0 l -0.711,0.711 c -19.306,19.306 -19.306,50.842 0,70.148 l 230.478,230.478" style="fill:none;stroke:#000000;stroke-width:30;stroke-linecap:round;stroke-linejoin:round;stroke-miterlimit:22.926;stroke-dasharray:none;stroke-opacity:1" id="path1236"/>
        </g>
      </g>
    </g>
  </g></g>
</svg>
