<?xml version="1.0" encoding="UTF-8" standalone="no"?>
<!-- Created with Inkscape (http://www.inkscape.org/) -->

<svg
   version="1.1"
   id="svg189"
   xml:space="preserve"
   width="682.66669"
   height="682.66669"
   viewBox="0 0 682.66669 682.66669"
   xmlns="http://www.w3.org/2000/svg"
   xmlns:svg="http://www.w3.org/2000/svg"><defs
     id="defs193"><clipPath
       clipPathUnits="userSpaceOnUse"
       id="clipPath203"><path
         d="M 0,512 H 512 V 0 H 0 Z"
         id="path201" /></clipPath></defs><g
     id="g195"
     transform="matrix(1.3333333,0,0,-1.3333333,0,682.66667)"><g
       id="g197"><g
         id="g199"
         clip-path="url(#clipPath203)"><g
           id="g205"
           transform="translate(217,155)"><path
             d="m 0,0 c 0,77.32 62.68,140 140,140 47.013,0 88.611,-23.175 114,-58.722 V 312 c 0,16.569 -13.432,30 -30,30 h -396 c -16.568,0 -30,-13.431 -30,-30 V -84 c 0,-16.568 13.432,-30 30,-30 H 58.722 C 23.175,-88.611 0,-47.013 0,0 Z"
             style="fill:none;stroke:#000000;stroke-width:30;stroke-linecap:round;stroke-linejoin:round;stroke-miterlimit:10;stroke-dasharray:none;stroke-opacity:1"
             id="path207" /></g><g
           id="g209"
           transform="translate(243,269)"><path
             d="M 0,0 H -228"
             style="fill:none;stroke:#000000;stroke-width:30;stroke-linecap:round;stroke-linejoin:round;stroke-miterlimit:10;stroke-dasharray:none;stroke-opacity:1"
             id="path211" /></g><g
           id="g213"
           transform="translate(94,383)"><path
             d="M 0,0 H 70"
             style="fill:none;stroke:#000000;stroke-width:30;stroke-linecap:round;stroke-linejoin:round;stroke-miterlimit:10;stroke-dasharray:none;stroke-opacity:1"
             id="path215" /></g><g
           id="g217"
           transform="translate(129,348)"><path
             d="M 0,0 V 70"
             style="fill:none;stroke:#000000;stroke-width:30;stroke-linecap:round;stroke-linejoin:round;stroke-miterlimit:10;stroke-dasharray:none;stroke-opacity:1"
             id="path219" /></g><g
           id="g221"
           transform="translate(327,383)"><path
             d="M 0,0 H 60"
             style="fill:none;stroke:#000000;stroke-width:30;stroke-linecap:round;stroke-linejoin:round;stroke-miterlimit:10;stroke-dasharray:none;stroke-opacity:1"
             id="path223" /></g><g
           id="g225"
           transform="translate(322,130)"><path
             d="M 0,0 H 70"
             style="fill:none;stroke:#000000;stroke-width:30;stroke-linecap:round;stroke-linejoin:round;stroke-miterlimit:10;stroke-dasharray:none;stroke-opacity:1"
             id="path227" /></g><g
           id="g229"
           transform="translate(322,180)"><path
             d="M 0,0 H 70"
             style="fill:none;stroke:#000000;stroke-width:30;stroke-linecap:round;stroke-linejoin:round;stroke-miterlimit:10;stroke-dasharray:none;stroke-opacity:1"
             id="path231" /></g><g
           id="g233"
           transform="translate(104,180)"><path
             d="M 0,0 50,-50"
             style="fill:none;stroke:#000000;stroke-width:30;stroke-linecap:round;stroke-linejoin:round;stroke-miterlimit:10;stroke-dasharray:none;stroke-opacity:1"
             id="path235" /></g><g
           id="g237"
           transform="translate(104,130)"><path
             d="M 0,0 50,50"
             style="fill:none;stroke:#000000;stroke-width:30;stroke-linecap:round;stroke-linejoin:round;stroke-miterlimit:10;stroke-dasharray:none;stroke-opacity:1"
             id="path239" /></g><g
           id="g241"
           transform="translate(497,155)"><path
             d="m 0,0 c 0,-77.32 -62.68,-140 -140,-140 -77.32,0 -140,62.68 -140,140 0,77.32 62.68,140 140,140 C -62.68,140 0,77.32 0,0 Z"
             style="fill:none;stroke:#000000;stroke-width:30;stroke-linecap:round;stroke-linejoin:round;stroke-miterlimit:10;stroke-dasharray:none;stroke-opacity:1"
             id="path243" /></g><g
           id="g245"
           transform="translate(243,236.2783)"><path
             d="M 0,0 V 260.722"
             style="fill:none;stroke:#000000;stroke-width:30;stroke-linecap:round;stroke-linejoin:round;stroke-miterlimit:10;stroke-dasharray:none;stroke-opacity:1"
             id="path247" /></g></g></g></g></svg>
