<?xml version="1.0" encoding="UTF-8"?>
<svg version="1.1" xmlns="http://www.w3.org/2000/svg" width="500" height="500">
<path d="M0 0 C3.77104651 2.16634587 4.73356855 4.10539682 5.9609375 8.2265625 C6.73207868 11.47384507 7.40853466 14.71568431 8 18 C9.11375 17.690625 10.2275 17.38125 11.375 17.0625 C29.51629237 12.58277631 50.41698156 14.09729469 67 23 C92.12421421 38.75758254 100.35269985 63.27536963 108.01855469 90.53466797 C108.95896709 93.85511912 109.93405111 97.16371851 110.9140625 100.47265625 C111.48642925 102.48118657 112.05684217 104.49027504 112.625 106.5 C112.89699219 107.39968506 113.16898437 108.29937012 113.44921875 109.22631836 C115.32595923 116.09808565 114.75322822 121.15779877 113 128 C112.72461395 129.10281311 112.72461395 129.10281311 112.44366455 130.22790527 C111.10058388 135.5967736 109.69562968 140.94738201 108.25927734 146.29199219 C107.49312684 149.15064506 106.74047844 152.01264808 105.98828125 154.875 C105.50341713 156.6903215 105.01776911 158.50543385 104.53125 160.3203125 C104.30723511 161.17746857 104.08322021 162.03462463 103.85241699 162.91775513 C103.29609279 164.9627947 102.65591169 166.98469274 102 169 C101.34 169.33 100.68 169.66 100 170 C97.91089229 162.34270231 95.82449437 154.68467375 93.74157715 147.02569008 C92.77436924 143.46955974 91.80622061 139.91369106 90.8359375 136.35839844 C89.90005681 132.92902738 88.96662715 129.49899795 88.03491211 126.06849289 C87.67854505 124.75809219 87.32128698 123.44793348 86.96313477 122.13801956 C86.4626669 120.30700639 85.96562479 118.47505788 85.46875 116.64306641 C85.04239258 115.07753525 85.04239258 115.07753525 84.60742188 113.4803772 C84 111 84 111 84 109 C83.40266556 109.16110764 82.80533112 109.32221527 82.18989563 109.48820496 C43.02240358 120.04970311 3.82980903 130.5154295 -35.375 140.9375 C-72.09668968 150.69982633 -108.81382299 160.47892434 -145.52216339 170.29133987 C-148.86065159 171.1836649 -152.19920729 172.07573697 -155.53778076 172.96774292 C-160.74619618 174.35939357 -165.95443465 175.75170436 -171.16252136 177.14458466 C-173.06574007 177.65351775 -174.96900819 178.16226608 -176.87232971 178.67081451 C-179.46956638 179.36484393 -182.06659789 180.05963583 -184.66357422 180.75463867 C-185.41185171 180.95442794 -186.1601292 181.15421721 -186.93108177 181.36006069 C-187.63274782 181.54801236 -188.33441387 181.73596403 -189.05734253 181.92961121 C-189.72072506 182.10693975 -190.38410759 182.2842683 -191.06759262 182.46697044 C-192.97754618 182.9938064 -194.8745566 183.5668543 -196.77102661 184.14033508 C-200 185 -200 185 -204 185 C-183.89841989 260.21594667 -183.89841989 260.21594667 -163.72293854 335.41209412 C-160.9690462 345.65564249 -158.22315232 355.90127279 -155.48868465 366.15002441 C-153.65428686 373.02448065 -151.81446273 379.89746981 -149.97077274 386.7694397 C-148.88966614 390.80007559 -147.81124002 394.83138052 -146.73989868 398.86462402 C-138.58930088 436.14774386 -138.58930088 436.14774386 -114.625 463.8125 C-92.19871576 475.30927978 -62.93152032 463.098862 -40.31881714 456.95808411 C-36.26232518 455.85835375 -32.20328239 454.76811459 -28.14453125 453.67675781 C-21.15079978 451.79496695 -14.15873861 449.90707036 -7.16748047 448.01611328 C3.47417382 445.13847571 14.12141777 442.28185311 24.76937675 439.42764854 C31.73585931 437.55965933 38.70139305 435.68813567 45.66696167 433.81674194 C49.5121709 432.78368893 53.35766849 431.75171982 57.20339966 430.72061157 C69.14574938 427.51728901 81.08182846 424.29227386 93 421 C93.70731262 420.80465668 94.41462524 420.60931335 95.14337158 420.40805054 C99.5507402 419.18733353 103.94921531 417.93819017 108.34375 416.671875 C109.37213989 416.38370911 110.40052979 416.09554321 111.46008301 415.79864502 C124.79176284 411.88138105 138.38037367 405.6452404 145.78125 393.3515625 C154.26686506 376.97867704 150.10891056 356.21935709 144.8671875 339.35546875 C142.88711596 331.69384057 144.76699059 325.22058017 146.84375 317.81640625 C147.27657288 316.23314796 147.27657288 316.23314796 147.71813965 314.61790466 C148.63712444 311.26375615 149.56836737 307.91315499 150.5 304.5625 C151.12711539 302.28212455 151.75342647 300.00152775 152.37890625 297.72070312 C153.90996425 292.14453794 155.45108715 286.57123034 157 281 C157.66 281 158.32 281 159 281 C161.17961086 288.97789812 163.34514243 296.95944263 165.49413776 304.9456358 C166.49306326 308.65624332 167.49629807 312.36555705 168.51049805 316.07202148 C186.17209838 380.66844478 186.17209838 380.66844478 171 408 C163.57197122 419.7048779 154.26911883 427.44265736 142.1875 434.0625 C141.49664307 434.45010498 140.80578613 434.83770996 140.09399414 435.23706055 C124.47845343 443.42036005 106.4105989 447.42661642 89.45703125 451.88671875 C87.42292187 452.42730711 85.38898069 452.96852874 83.35519409 453.5103302 C77.95632251 454.94702865 72.55545731 456.37608475 67.15414047 457.80355835 C58.10705046 460.19672415 49.06387011 462.60466583 40.01983833 465.00935745 C36.60143334 465.91800308 33.18279897 466.82578197 29.7641449 467.73348999 C15.65100323 471.48290541 1.5502503 475.27533512 -12.5390625 479.11328125 C-14.26594663 479.58317813 -15.9928396 480.05304251 -17.71974182 480.52287292 C-24.87748601 482.471056 -32.03424367 484.42265137 -39.18756866 486.3870039 C-42.05761428 487.17376519 -44.9290327 487.95542404 -47.80080795 488.73584557 C-49.6964171 489.25278928 -51.59022431 489.77632742 -53.48391724 490.30024719 C-66.53541812 493.83956128 -79.47993358 496.5692072 -93.0625 496.4375 C-94.18156738 496.42992676 -95.30063477 496.42235352 -96.45361328 496.41455078 C-105.19089649 496.24114678 -112.80491597 495.21553727 -121 492 C-122.03769531 491.59910156 -123.07539063 491.19820313 -124.14453125 490.78515625 C-132.53823631 487.06779008 -138.63161063 481.44442984 -145 475 C-145.59554687 474.41476562 -146.19109375 473.82953125 -146.8046875 473.2265625 C-161.2035075 457.89376499 -166.26873496 435.35749706 -171.5 415.6875 C-172.14603331 413.28576103 -172.79287235 410.88423867 -173.44042969 408.48291016 C-174.86610723 403.18877674 -176.2859882 397.89313862 -177.70117188 392.59619141 C-179.88606627 384.41892076 -182.08383969 376.24514273 -184.28343964 368.0718174 C-189.67005345 348.05370222 -195.03362098 328.02943153 -200.39306641 308.00402832 C-201.49673727 303.88020342 -202.60059021 299.75642732 -203.70458984 295.63269043 C-207.59492881 281.101218 -211.48357368 266.56929326 -215.37071228 252.03696442 C-216.23480464 248.8068035 -217.0991242 245.57670347 -217.96350098 242.34661865 C-220.90267974 231.36209642 -223.83761887 220.37646707 -226.76307297 209.38828087 C-228.24315923 203.83123984 -229.73082281 198.27630116 -231.22472 192.72295761 C-232.15981936 189.24194877 -233.0893026 185.75945702 -234.01744843 182.27658844 C-234.44461338 180.6783988 -234.87409946 179.08082724 -235.30622101 177.48397064 C-242.38396915 151.31463435 -244.94561365 126.033179 -231.00683594 101.70654297 C-222.1107869 86.62812814 -206.29476891 76.70071284 -190 71 C-189.01 71 -188.02 71 -187 71 C-187.34224609 69.83984375 -187.34224609 69.83984375 -187.69140625 68.65625 C-189.42288742 62.38254244 -190.81253045 57.34385659 -189 51 C-185.73273528 47.73273528 -183.29353065 46.09762495 -178.6875 45.75 C-174.67619963 46.02195257 -173.02745064 46.39302861 -170 49 C-167.66700338 53.49317868 -166.29193373 58.13040364 -165 63 C-158.31482274 61.73733454 -151.74760562 60.22608198 -145.18041992 58.453125 C-144.25328186 58.20554947 -143.3261438 57.95797394 -142.37091064 57.70289612 C-139.32328324 56.88826957 -136.27687582 56.06917726 -133.23046875 55.25 C-131.06902479 54.67120544 -128.90750904 54.09267887 -126.7459259 53.5144043 C-121.0466163 51.98887788 -115.34834471 50.45950838 -109.65026855 48.92938232 C-105.10841568 47.71038148 -100.56586926 46.49397855 -96.02326775 45.277771 C-90.46711271 43.79017587 -84.91124972 42.30149151 -79.35546875 40.8125 C-77.72549265 40.37565887 -77.72549265 40.37565887 -76.06258774 39.92999268 C-64.90051362 36.93750673 -53.74132788 33.93524227 -42.59228516 30.89453125 C-40.84508379 30.41884089 -39.09787634 29.94317286 -37.35066223 29.4675293 C-34.15356578 28.59701762 -30.95788679 27.72154616 -27.76298523 26.84301758 C-26.35937089 26.46027773 -24.95571269 26.07769865 -23.55200195 25.6953125 C-22.34977493 25.36547363 -21.14754791 25.03563477 -19.90888977 24.69580078 C-17 24 -17 24 -14 24 C-14.22816406 23.21496094 -14.45632813 22.42992188 -14.69140625 21.62109375 C-17.81099185 10.21991768 -17.81099185 10.21991768 -16 5 C-11.50070431 -0.42222814 -6.87534388 -1.34517598 0 0 Z M15 45 C15.15597656 45.56847656 15.31195313 46.13695312 15.47265625 46.72265625 C16.74399459 51.76591232 17.50545597 55.88144971 16 61 C14.0625 63.4375 14.0625 63.4375 11 65 C6.45614826 65.50728807 2.34832755 65.44944252 -2 64 C-2.87890625 61.85546875 -2.87890625 61.85546875 -3.5625 59.1875 C-4.42790861 55.87743429 -5.42851989 53.03470717 -7 50 C-45.04937557 60.11743785 -83.09064077 70.26462414 -121.10208893 80.52375793 C-123.56697513 81.18870725 -126.03208312 81.8528284 -128.49725342 82.51672363 C-132.36614956 83.55878603 -136.23445074 84.60302739 -140.10227394 85.64906502 C-141.52379074 86.03318045 -142.94549853 86.41658988 -144.36740685 86.79925346 C-146.30220292 87.32012941 -148.23620794 87.84394113 -150.17016602 88.36791992 C-151.79608421 88.80704964 -151.79608421 88.80704964 -153.45484924 89.25505066 C-155.96234534 89.90702498 -155.96234534 89.90702498 -158 91 C-157.82082031 91.86882812 -157.64164063 92.73765625 -157.45703125 93.6328125 C-155.71564642 103.06795214 -155.71564642 103.06795214 -157.125 107.6875 C-159.1053875 110.12997792 -159.98907141 111.16363095 -163 112 C-168.05324597 112.459386 -170.96712143 112.10921929 -175 109 C-176.36328125 106.08203125 -176.36328125 106.08203125 -177.3125 102.8125 C-177.63863281 101.72582031 -177.96476562 100.63914063 -178.30078125 99.51953125 C-178.64689453 98.27236328 -178.64689453 98.27236328 -179 97 C-190.96104236 100.51659272 -201.66926256 107.07411406 -208.17578125 117.96875 C-212.22479307 125.62506326 -213.32378558 132.74722402 -213.25 141.3125 C-213.25773437 142.19873047 -213.26546875 143.08496094 -213.2734375 143.99804688 C-213.25532149 150.20730955 -212.42879198 155.96180793 -211 162 C-206.99922613 163.58540323 -203.57055403 162.35504521 -199.61157227 161.24707031 C-198.86388423 161.04614367 -198.11619619 160.84521704 -197.34585094 160.63820171 C-194.8334749 159.96060758 -192.32508147 159.26928423 -189.81640625 158.578125 C-188.01572234 158.0897371 -186.2147921 157.60225666 -184.41363525 157.11561584 C-180.51802691 156.06120864 -176.6241016 155.00086254 -172.73135376 153.9359436 C-166.48652975 152.22777424 -160.23814998 150.53289191 -153.98901367 148.84057617 C-147.40817575 147.05797839 -140.82747593 145.27489059 -134.24787903 143.48771667 C-112.56230878 137.5986684 -90.85445857 131.79413907 -69.1428833 126.00183105 C-62.81920355 124.31460828 -56.49618369 122.6249226 -50.17333984 120.93457031 C-49.13478033 120.65692904 -48.09622082 120.37928776 -47.0261898 120.09323311 C-44.93554017 119.5343256 -42.84489215 118.97541207 -40.75424576 118.41649246 C-26.39201933 114.57699955 -12.02905964 110.74027434 2.33536434 106.90901089 C10.10062229 104.83766134 17.86512042 102.76348016 25.62905216 100.68716526 C30.99639059 99.25192843 36.36460205 97.820024 41.73353577 96.3907671 C45.00517851 95.51891495 48.27591631 94.64370711 51.54639816 93.76751137 C53.04426381 93.36692765 54.54249465 92.96770639 56.04112625 92.56999779 C63.15450923 90.68151797 70.17151145 88.77487576 77 86 C73.8090676 71.10898211 66.9323929 56.99979005 54.1875 48.0625 C41.97939498 41.24530076 28.18169109 42.09380039 15 45 Z " fill="#FFFFFF" transform="translate(273,3)"/>
<path d="M0 0 C4.68887173 3.00054358 7.82996025 7.09380488 10.62890625 11.83984375 C12.10355462 18.55768633 11.12616433 24.97271494 9.29321289 31.5012207 C9.08897862 32.26386891 8.88474436 33.02651712 8.67432117 33.81227589 C7.99411197 36.3414257 7.29790182 38.86587299 6.6015625 41.390625 C6.10889441 43.20936032 5.61723145 45.02836817 5.12649536 46.84762573 C3.79410213 51.77589961 2.44778865 56.70027399 1.09899521 61.62408066 C-0.32662824 66.83804575 -1.73915382 72.05555725 -3.15307617 77.27270508 C-5.51456156 85.9796411 -7.88369623 94.68446165 -10.25878906 103.38769531 C-13.89355365 116.7069278 -17.5124213 130.03044844 -21.12662125 143.3552742 C-23.99148661 153.91743343 -26.86178617 164.47802388 -29.75048828 175.03369141 C-30.7809901 178.80221332 -31.81075223 182.57093648 -32.83984375 186.33984375 C-33.09149166 187.26139629 -33.34313957 188.18294884 -33.60241318 189.13242722 C-37.07366021 201.85979737 -40.43857106 214.61102986 -43.72220802 227.38802147 C-45.04688035 232.52852071 -46.38910294 237.6644724 -47.73124218 242.80043507 C-48.76998201 246.78381645 -49.79535812 250.76959978 -50.78799438 254.76473999 C-54.74844358 270.68527502 -58.50714365 285.12013798 -69.46194458 297.82369995 C-71.38007973 300.07228275 -73.07990417 302.46324552 -74.796875 304.8671875 C-76.49564042 307.15978436 -78.201214 309.4471633 -79.90820312 311.73364258 C-82.37183345 315.04678884 -84.81880012 318.34170193 -87.0390625 321.82421875 C-87.91498047 323.19320312 -87.91498047 323.19320312 -88.80859375 324.58984375 C-89.26234375 325.34652344 -89.71609375 326.10320312 -90.18359375 326.8828125 C-92.57484146 329.11885904 -94.64821002 328.50589743 -97.80859375 328.40234375 C-99.85214149 317.25288282 -101.68211408 306.09103551 -103.22607422 294.86108398 C-103.44959667 293.25031093 -103.67852729 291.64027998 -103.91259766 290.03100586 C-104.2592806 287.64714108 -104.59029488 285.26154338 -104.91796875 282.875 C-105.07564728 281.81841942 -105.07564728 281.81841942 -105.23651123 280.74049377 C-106.62545333 270.22489136 -104.0475187 260.7090584 -101.25 250.61328125 C-100.87425536 249.23430999 -100.49924812 247.85513762 -100.12490845 246.4757843 C-99.31269871 243.48894888 -98.49550385 240.50353921 -97.67440796 237.51913452 C-96.33848044 232.66312578 -95.01381303 227.80408649 -93.69067383 222.94458008 C-92.01039629 216.77618146 -90.32745917 210.60851961 -88.64144802 204.44168568 C-83.88027636 187.02489356 -79.16726784 169.59509314 -74.45251942 152.16568947 C-72.54034755 145.09790587 -70.62438568 138.03115673 -68.70678711 130.96484375 C-63.43587302 111.53701411 -58.18576277 92.10411217 -52.99511909 72.65466499 C-51.40588602 66.70432961 -49.81098616 60.75551027 -48.21595287 54.80672741 C-46.71119694 49.19169242 -45.21618321 43.57418137 -43.72842121 37.95462132 C-42.8135729 34.50831035 -41.88956661 31.06450476 -40.96298409 27.62133217 C-40.53796276 26.03431615 -40.11679842 24.44626124 -39.69984245 22.85710716 C-39.13060762 20.6894429 -38.54772378 18.52589417 -37.96142578 16.36279297 C-37.64013702 15.15565643 -37.31884827 13.9485199 -36.98782349 12.70480347 C-34.64286944 6.13770628 -30.88310319 1.37571244 -24.56640625 -1.68359375 C-16.74817834 -4.27490442 -7.4264957 -3.43796588 0 0 Z " fill="#FF6624" transform="translate(457.80859375,52.59765625)"/>
<path d="M0 0 C1.32 4.95 2.64 9.9 4 15 C-3.74694799 17.6939268 -11.60373974 19.87437421 -19.51953125 22.01171875 C-20.90958409 22.38849063 -22.29961359 22.76534865 -23.68962097 23.14228821 C-26.58449057 23.92655853 -29.47992682 24.70869518 -32.37573242 25.48950195 C-36.08369034 26.48964656 -39.78968669 27.49686525 -43.49524403 28.50586224 C-46.3570483 29.28396836 -49.22007608 30.05749267 -52.0834713 30.82972145 C-53.45103154 31.19930185 -54.81815529 31.57050138 -56.18482399 31.9433651 C-58.09042499 32.46271237 -59.99793347 32.97504529 -61.90551758 33.48706055 C-62.98867752 33.78001511 -64.07183746 34.07296967 -65.18782043 34.37480164 C-68 35 -68 35 -72 35 C-71.45458199 42.79665034 -70.90258694 50.59281471 -70.34594727 58.38867188 C-70.15724472 61.04253502 -69.97006593 63.69650696 -69.78442383 66.35058594 C-69.51781314 70.15849755 -69.24578175 73.96598834 -68.97265625 77.7734375 C-68.89032242 78.96617279 -68.80798859 80.15890808 -68.72315979 81.38778687 C-68.64315231 82.48877716 -68.56314484 83.58976746 -68.48071289 84.72412109 C-68.41187393 85.69674896 -68.34303497 86.66937683 -68.27210999 87.67147827 C-68.13148219 90.02068147 -68.13148219 90.02068147 -67 92 C-66.48953125 91.25556641 -66.48953125 91.25556641 -65.96875 90.49609375 C-57.03978193 77.9812901 -44.53453693 70.39514653 -29.4140625 67.43359375 C-11.7105712 65.18520984 3.42506127 68.41539346 18.27734375 78.5546875 C30.46189019 88.25406902 37.86349977 104.07094608 41 119 C41.40771216 122.80378403 41.47852069 126.55167823 41.4375 130.375 C41.42920166 131.38087158 41.42090332 132.38674316 41.41235352 133.4230957 C41.06849407 148.59084608 35.41660681 161.9241882 25.00390625 173.12890625 C9.40024565 187.69840611 -8.83968057 193.05210247 -29.8046875 192.3828125 C-43.68817598 191.58617783 -56.53137713 185.21014153 -66 175 C-71.88788639 167.57004813 -75.53810183 160.13493794 -78 151 C-75.94237091 150.29805625 -73.87863969 149.61398303 -71.8125 148.9375 C-70.66394531 148.55464844 -69.51539063 148.17179688 -68.33203125 147.77734375 C-64.93157213 146.98403617 -63.2010889 146.62098419 -60 148 C-58.41015625 150.4765625 -58.41015625 150.4765625 -57.0625 153.625 C-51.94975395 164.54944978 -45.08012387 170.29011184 -33.875 174.875 C-22.86994143 178.12207558 -10.33132776 176.61583632 0 172 C11.59789475 165.50131834 17.84171903 156.72287124 22.3125 144.375 C25.51825487 129.14766435 22.33850065 113.95959091 14 101 C8.13167594 92.23183159 -1.74293378 86.20787696 -12 84 C-24.99991105 81.69106058 -37.31833345 84.58577249 -48.51171875 91.56640625 C-55.40055885 96.60730622 -60.99732494 102.60606864 -63.625 110.8125 C-64.94155601 114.1744198 -65.72439194 114.86922679 -69.0625 116.453125 C-77.24119718 119 -77.24119718 119 -81 119 C-82.74862464 99.29775468 -84.37957878 79.58682331 -85.91516113 59.86682129 C-86.09601677 57.54796175 -86.27805504 55.22919412 -86.46130371 52.91052246 C-86.7212605 49.61509395 -86.97650353 46.31933253 -87.23046875 43.0234375 C-87.308452 42.04339752 -87.38643524 41.06335754 -87.46678162 40.05361938 C-87.89985182 34.34956424 -88.07219472 28.72060737 -88 23 C-71.62148544 18.24887431 -55.18095363 13.73541249 -38.71899414 9.28417969 C-35.10576267 8.30686749 -31.49423589 7.32339379 -27.88300991 6.33870125 C-25.0726743 5.57357019 -22.26114557 4.81289982 -19.44926643 4.05346298 C-18.1151808 3.69232078 -16.78154732 3.32950377 -15.44839287 2.96493912 C-13.60156617 2.46033703 -11.75284813 1.96267264 -9.90405273 1.46533203 C-8.85708725 1.18142609 -7.81012177 0.89752014 -6.73143005 0.60501099 C-4 0 -4 0 0 0 Z " fill="#FFFFFF" transform="translate(275,193)"/>
</svg>
