<?xml version="1.0" encoding="UTF-8" standalone="no"?>
<!-- Created with Inkscape (http://www.inkscape.org/) -->
<svg xmlns="http://www.w3.org/2000/svg" xmlns:svg="http://www.w3.org/2000/svg" version="1.1" id="svg1512" width="682.66669" height="682.66669" viewBox="0 0 682.66669 682.66669">
  <defs id="defs1516">
    <clipPath clipPathUnits="userSpaceOnUse" id="clipPath1526">
      <path d="M 0,512 H 512 V 0 H 0 Z" id="path1524"/>
    </clipPath>
  </defs>
  <mask id="custom"><rect id="bg" x="0" y="0" width="100%" height="100%" fill="white"/><g transform="matrix(1.3333333,0,0,-1.3333333,0,682.66667)"/></mask><g mask="url(#custom)"><g id="g1518" transform="matrix(1.3333333,0,0,-1.3333333,0,682.66667)">
    <g id="g1520">
      <g id="g1522" clip-path="url(#clipPath1526)">
        <g id="g1528" transform="translate(461.7935,381.4601)">
          <path d="M 0,0 C -42.33,69.287 -118.656,115.54 -205.793,115.54 V -4.96 c 54.382,0 100.313,-36.041 115.304,-85.529 L -125.46,-125.46 H 35.207 V 35.207 Z" style="fill:none;stroke:#000000;stroke-width:30;stroke-linecap:round;stroke-linejoin:round;stroke-miterlimit:10;stroke-dasharray:none;stroke-opacity:1" id="path1530"/>
        </g>
        <g id="g1532" transform="translate(140.6955,221.0288)">
          <path d="m 0,0 34.971,34.971 h -160.667 v -160.666 l 35.207,35.206" style="fill:none;stroke:#000000;stroke-width:30;stroke-linecap:round;stroke-linejoin:round;stroke-miterlimit:10;stroke-dasharray:none;stroke-opacity:1" id="path1534"/>
        </g>
        <g id="g1536" transform="translate(95.3333,497)">
          <path d="M 0,0 35.206,-35.207 C -34.08,-77.537 -80.333,-153.862 -80.333,-241 h 120.5 c 0,54.383 36.041,100.314 85.528,115.305 l 34.972,-34.972 V 0 Z" style="fill:none;stroke:#000000;stroke-width:30;stroke-linecap:round;stroke-linejoin:round;stroke-miterlimit:10;stroke-dasharray:none;stroke-opacity:1" id="path1538"/>
        </g>
        <g id="g1540" transform="translate(50.2065,130.5398)">
          <path d="m 0,0 c 42.33,-69.287 118.656,-115.54 205.793,-115.54 65.313,0 124.549,25.988 167.951,68.18 L 288.45,37.934 C 266.876,17.535 237.833,4.96 205.793,4.96 151.411,4.96 105.48,41.001 90.489,90.489" style="fill:none;stroke:#000000;stroke-width:30;stroke-linecap:round;stroke-linejoin:round;stroke-miterlimit:10;stroke-dasharray:none;stroke-opacity:1" id="path1542"/>
        </g>
      </g>
    </g>
  </g></g>
</svg>
