<?xml version="1.0" encoding="UTF-8" standalone="no"?>
<!-- Created with Inkscape (http://www.inkscape.org/) -->

<svg
   version="1.1"
   id="svg1452"
   xml:space="preserve"
   width="682.66669"
   height="682.66669"
   viewBox="0 0 682.66669 682.66669"
   xmlns="http://www.w3.org/2000/svg"
   xmlns:svg="http://www.w3.org/2000/svg"><defs
     id="defs1456"><clipPath
       clipPathUnits="userSpaceOnUse"
       id="clipPath1466"><path
         d="M 0,512 H 512 V 0 H 0 Z"
         id="path1464" /></clipPath></defs><g
     id="g1458"
     transform="matrix(1.3333333,0,0,-1.3333333,0,682.66667)"><g
       id="g1460"><g
         id="g1462"
         clip-path="url(#clipPath1466)"><g
           id="g1468"
           transform="translate(24.8091,105.0612)"><path
             d="m 0,0 v 0 c -11.753,11.753 -11.753,30.808 0,42.561 l 340.563,340.563 c 11.753,11.753 30.808,11.753 42.561,0 v 0 c 11.753,-11.753 11.753,-30.808 0,-42.561 L 42.561,0 C 30.808,-11.753 11.753,-11.753 0,0 Z"
             style="fill:none;stroke:#000000;stroke-width:30;stroke-linecap:round;stroke-linejoin:round;stroke-miterlimit:10;stroke-dasharray:none;stroke-opacity:1"
             id="path1470" /></g><g
           id="g1472"
           transform="translate(438.1874,106.6212)"><path
             d="m 0,0 -62.563,58.4 v 248.295 l -42.561,42.561"
             style="fill:none;stroke:#000000;stroke-width:30;stroke-linecap:butt;stroke-linejoin:round;stroke-miterlimit:10;stroke-dasharray:none;stroke-opacity:1"
             id="path1474" /></g><g
           id="g1476"
           transform="translate(457.547,123.3664)"><path
             d="m 0,0 c -17.629,-17.629 -152.615,-124.032 -170.244,-106.403 -17.63,17.63 88.773,152.615 106.402,170.245 17.63,17.629 46.213,17.629 63.842,0 C 17.629,46.212 17.629,17.629 0,0 Z"
             style="fill:none;stroke:#000000;stroke-width:30;stroke-linecap:round;stroke-linejoin:round;stroke-miterlimit:10;stroke-dasharray:none;stroke-opacity:1"
             id="path1478" /></g><g
           id="g1480"
           transform="translate(341.412,121.8251)"><path
             d="M 0,0 14.805,-14.667"
             style="fill:none;stroke:#000000;stroke-width:30;stroke-linecap:round;stroke-linejoin:round;stroke-miterlimit:10;stroke-dasharray:none;stroke-opacity:1"
             id="path1482" /></g><g
           id="g1484"
           transform="translate(496.0056,187.208)"><path
             d="M 0,0 H -38.459 V 38.459"
             style="fill:none;stroke:#000000;stroke-width:30;stroke-linecap:round;stroke-linejoin:round;stroke-miterlimit:10;stroke-dasharray:none;stroke-opacity:1"
             id="path1486" /></g><g
           id="g1488"
           transform="translate(460.4783,190.1392)"><path
             d="M 0,0 30.283,30.283"
             style="fill:none;stroke:#000000;stroke-width:30;stroke-linecap:round;stroke-linejoin:round;stroke-miterlimit:10;stroke-dasharray:none;stroke-opacity:1"
             id="path1490" /></g></g></g></g></svg>
