<svg id="Capa_1" enable-background="new 0 0 512 512" height="512" viewBox="0 0 512 512" width="512" xmlns="http://www.w3.org/2000/svg"><path d="m497 90h-86.06c-21.335-18.66-49.325-30-79.94-30-14.386 0-28.668 2.613-42.056 7.61-19.487-39.989-60.549-67.61-107.944-67.61-55.813 0-102.848 38.301-116.203 90h-49.797c-8.284 0-15 6.716-15 15v301c0 8.284 6.716 15 15 15h196v61c-14.095 0-30.95 0-45 0-8.284 0-15 6.716-15 15s6.716 15 15 15h180c8.284 0 15-6.716 15-15s-6.716-14.99-15-14.99c-2.297 0-41.121 0-45.009 0l.001-61.01h196.008c8.284 0 15-6.716 15-15v-301c0-8.284-6.716-15-15-15zm-166 0c50.178 0 91 40.374 91 90 0 23.18-9.034 46.025-24.785 62.676-5.317 5.621-5.487 14.363-.393 20.186l7.121 8.138h-72.943c-34.596 0-66.61-21.14-81.417-52.588 31.059-21.71 51.417-57.726 51.417-98.412 0-8.208-.831-16.227-2.408-23.976 10.282-3.958 21.301-6.024 32.408-6.024zm-150-60c49.626 0 90 40.374 90 90s-40.374 90-90 90h-71.943l7.121-8.138c5.095-5.822 4.925-14.565-.392-20.186-15.984-16.896-24.786-38.8-24.786-61.676 0-49.626 40.374-90 90-90zm-120 90c0 26.018 8.482 51.056 24.119 71.8l-20.407 23.323c-3.876 4.429-4.803 10.716-2.371 16.076s7.773 8.801 13.659 8.801h105c14.786 0 28.952-2.695 42.043-7.608 19.761 40.701 60.793 68.608 107.957 68.608h106c5.886 0 11.228-3.442 13.659-8.802 2.433-5.36 1.505-11.646-2.37-16.076l-20.439-23.359c15.469-20.775 24.15-46.621 24.15-72.763 0-21.843-5.918-42.339-16.243-60h46.243v211h-452v-211zm225.002 271c-8.284 0-15 6.716-15 15 0 0-.001 76-.001 76h-30.001v-76c0-8.284-6.716-15-15-15h-196v-30h452v30z"/><circle cx="121" cy="120" r="15"/><circle cx="181" cy="120" r="15"/><circle cx="241" cy="120" r="15"/></svg>