<svg height="512pt" viewBox="-50 0 512 512.001" width="512pt" xmlns="http://www.w3.org/2000/svg"><path d="m350.730469 47.523438h-58.386719c-1.550781-13.359376-12.933594-23.761719-26.703125-23.761719h-16.488281c-9.164063-14.648438-25.273438-23.761719-42.914063-23.761719-17.632812 0-33.746093 9.113281-42.929687 23.761719h-16.476563c-13.769531 0-25.152343 10.402343-26.703125 23.761719h-58.335937c-34.074219 0-61.792969 27.722656-61.792969 61.792968v340.894532c0 34.070312 27.71875 61.789062 61.792969 61.789062h288.9375c34.070312 0 61.792969-27.71875 61.792969-61.789062v-340.894532c0-34.074218-27.71875-61.792968-61.792969-61.792968zm-200.78125 6.238281h20.339843c7.378907 0 14.023438-4.382813 16.925782-11.167969 3.273437-7.652344 10.742187-12.59375 19.023437-12.59375 8.277344 0 15.734375 4.933594 18.988281 12.566406 2.898438 6.800782 9.546876 11.195313 16.9375 11.195313h20.359376v41.285156h-112.574219zm232.574219 396.445312c0 17.53125-14.261719 31.792969-31.792969 31.792969h-288.9375c-17.53125 0-31.792969-14.261719-31.792969-31.792969v-340.890625c0-17.53125 14.261719-31.792968 31.792969-31.792968h58.15625v20.644531c0 14.820312 12.058593 26.878906 26.882812 26.878906h118.808594c14.824219 0 26.882813-12.058594 26.882813-26.878906v-20.644531h58.207031c17.53125 0 31.792969 14.261718 31.792969 31.792968zm0 0"/><path d="m175.148438 211.703125h158.703124c8.285157 0 15-6.71875 15-15 0-8.285156-6.714843-15-15-15h-158.703124c-8.285157 0-15 6.714844-15 15 0 8.28125 6.714843 15 15 15zm0 0"/><path d="m81.097656 224.777344c3.101563 3.101562 7.175782 4.648437 11.246094 4.648437s8.144531-1.546875 11.246094-4.648437l35.199218-35.203125c5.859376-5.855469 5.859376-15.355469 0-21.210938-5.855468-5.859375-15.355468-5.859375-21.210937 0l-25.234375 25.230469-4.617188-4.617188c-5.859374-5.855468-15.355468-5.855468-21.214843 0-5.855469 5.859376-5.855469 15.355469 0 21.214844zm0 0"/><path d="m174.808594 318.226562h158.707031c8.28125 0 15-6.71875 15-15 0-8.285156-6.71875-15-15-15h-158.707031c-8.28125 0-15 6.714844-15 15 0 8.28125 6.71875 15 15 15zm0 0"/><path d="m80.761719 331.300781c3.003906 3.003907 6.996093 4.65625 11.246093 4.65625h.011719c4.25-.003906 8.246094-1.660156 11.230469-4.65625l35.203125-35.203125c5.859375-5.855468 5.859375-15.355468 0-21.210937-5.855469-5.859375-15.355469-5.859375-21.210937 0l-25.234376 25.230469-4.621093-4.617188c-5.855469-5.855469-15.351563-5.855469-21.210938 0-5.859375 5.859375-5.859375 15.355469 0 21.214844zm0 0"/><path d="m335.742188 393.691406h-158.703126c-8.285156 0-15 6.714844-15 15s6.714844 15 15 15h158.703126c8.285156 0 15-6.714844 15-15s-6.714844-15-15-15zm0 0"/><path d="m119.46875 380.351562-25.234375 25.234376-4.621094-4.617188c-5.859375-5.859375-15.351562-5.859375-21.210937 0-5.859375 5.855469-5.859375 15.355469 0 21.214844l14.585937 14.582031c3.101563 3.101563 7.171875 4.652344 11.246094 4.652344 4.070313 0 8.144531-1.550781 11.242187-4.652344l35.203126-35.199219c5.859374-5.859375 5.859374-15.355468 0-21.214844-5.855469-5.859374-15.355469-5.859374-21.210938 0zm0 0"/></svg>