<?xml version="1.0" encoding="UTF-8" standalone="no"?>
<!-- Created with Inkscape (http://www.inkscape.org/) -->

<svg
   version="1.1"
   id="svg2820"
   xml:space="preserve"
   width="682.66669"
   height="682.66669"
   viewBox="0 0 682.66669 682.66669"
   xmlns="http://www.w3.org/2000/svg"
   xmlns:svg="http://www.w3.org/2000/svg"><defs
     id="defs2824"><clipPath
       clipPathUnits="userSpaceOnUse"
       id="clipPath2834"><path
         d="M 0,512 H 512 V 0 H 0 Z"
         id="path2832" /></clipPath></defs><g
     id="g2826"
     transform="matrix(1.3333333,0,0,-1.3333333,0,682.66667)"><g
       id="g2828"><g
         id="g2830"
         clip-path="url(#clipPath2834)"><g
           id="g2836"
           transform="translate(366.208,152.0703)"><path
             d="m 0,0 -96.065,96.066 c -7.811,7.811 -20.475,7.811 -28.286,0 L -220.416,0 c -6.3,-6.299 -1.838,-17.07 7.071,-17.07 h 58.137 v -105 c 0,-8.285 6.716,-15 15,-15 h 60 c 8.284,0 15,6.715 15,15 v 105 H -7.071 C 1.838,-17.07 6.3,-6.299 0,0 Z"
             style="fill:none;stroke:#000000;stroke-width:30;stroke-linecap:round;stroke-linejoin:round;stroke-miterlimit:10;stroke-dasharray:none;stroke-opacity:1"
             id="path2838" /></g><g
           id="g2840"
           transform="translate(428.0098,346.2275)"><path
             d="m 0,0 c 2.6,9.821 3.99,20.134 3.99,30.772 0,66.275 -53.725,120 -120,120 -49.041,0 -91.205,-29.422 -109.819,-71.575 -11.073,4.868 -23.31,7.575 -36.181,7.575 -49.132,0 -89.062,-39.371 -89.978,-88.284 -35.018,-8.523 -61.022,-40.074 -61.022,-77.716 0,-44.182 35.818,-80 80,-80 h 85.721 l 61.137,61.137 c 7.81,7.811 20.474,7.811 28.285,0 l 61.137,-61.137 h 85.72 c 44.183,0 80,35.818 80,80 C 68.99,-38.782 38.971,-5.368 0,0 Z"
             style="fill:none;stroke:#000000;stroke-width:30;stroke-linecap:round;stroke-linejoin:round;stroke-miterlimit:10;stroke-dasharray:none;stroke-opacity:1"
             id="path2842" /></g></g></g></g></svg>
