<?xml version="1.0" encoding="UTF-8" standalone="no"?>
<!-- Created with Inkscape (http://www.inkscape.org/) -->

<svg
   version="1.1"
   id="svg522"
   xml:space="preserve"
   width="682.66669"
   height="682.66669"
   viewBox="0 0 682.66669 682.66669"
   xmlns="http://www.w3.org/2000/svg"
   xmlns:svg="http://www.w3.org/2000/svg"><defs
     id="defs526"><clipPath
       clipPathUnits="userSpaceOnUse"
       id="clipPath536"><path
         d="M 0,512 H 512 V 0 H 0 Z"
         id="path534" /></clipPath></defs><g
     id="g528"
     transform="matrix(1.3333333,0,0,-1.3333333,0,682.66667)"><g
       id="g530"><g
         id="g532"
         clip-path="url(#clipPath536)"><g
           id="g538"
           transform="translate(336.0039,497)"><path
             d="m 0,0 h -230.004 c -16.568,0 -30,-13.432 -30,-30 v -422 c 0,-16.568 13.432,-30 30,-30 h 300 c 16.568,0 30,13.432 30,30 v 351.997 z"
             style="fill:none;stroke:#000000;stroke-width:30;stroke-linecap:round;stroke-linejoin:round;stroke-miterlimit:10;stroke-dasharray:none;stroke-opacity:1"
             id="path540" /></g><g
           id="g542"
           transform="translate(336,497)"><path
             d="M 0,0 V -100 H 100 Z"
             style="fill:none;stroke:#000000;stroke-width:30;stroke-linecap:round;stroke-linejoin:round;stroke-miterlimit:10;stroke-dasharray:none;stroke-opacity:1"
             id="path544" /></g><g
           id="g546"
           transform="translate(326,156)"><path
             d="M 0,0 50,60 0,120"
             style="fill:none;stroke:#000000;stroke-width:30;stroke-linecap:round;stroke-linejoin:round;stroke-miterlimit:10;stroke-dasharray:none;stroke-opacity:1"
             id="path548" /></g><g
           id="g550"
           transform="translate(186,156)"><path
             d="M 0,0 -50,60 0,120"
             style="fill:none;stroke:#000000;stroke-width:30;stroke-linecap:round;stroke-linejoin:round;stroke-miterlimit:10;stroke-dasharray:none;stroke-opacity:1"
             id="path552" /></g><g
           id="g554"
           transform="translate(236,156)"><path
             d="M 0,0 40,120"
             style="fill:none;stroke:#000000;stroke-width:30;stroke-linecap:round;stroke-linejoin:round;stroke-miterlimit:10;stroke-dasharray:none;stroke-opacity:1"
             id="path556" /></g></g></g></g></svg>
