<?xml version="1.0" encoding="UTF-8" standalone="no"?>
<!-- Created with Inkscape (http://www.inkscape.org/) -->

<svg
   version="1.1"
   id="svg699"
   xml:space="preserve"
   width="682.66669"
   height="682.66669"
   viewBox="0 0 682.66669 682.66669"
   xmlns="http://www.w3.org/2000/svg"
   xmlns:svg="http://www.w3.org/2000/svg"><defs
     id="defs703"><clipPath
       clipPathUnits="userSpaceOnUse"
       id="clipPath713"><path
         d="M 0,512 H 512 V 0 H 0 Z"
         id="path711" /></clipPath></defs><g
     id="g705"
     transform="matrix(1.3333333,0,0,-1.3333333,0,682.66667)"><g
       id="g707"><g
         id="g709"
         clip-path="url(#clipPath713)"><g
           id="g715"
           transform="translate(473.0417,105.375)"><path
             d="m 0,0 h -434.083 c -13.232,0 -23.959,10.727 -23.959,23.958 v 313.584 c 0,13.231 10.727,23.958 23.959,23.958 H 0 c 13.232,0 23.958,-10.727 23.958,-23.958 V 23.958 C 23.958,10.727 13.232,0 0,0 Z"
             style="fill:none;stroke:#000000;stroke-width:30;stroke-linecap:butt;stroke-linejoin:round;stroke-miterlimit:10;stroke-dasharray:none;stroke-opacity:1"
             id="path717" /></g><path
           d="m 316.25,45.125 h -120.5 v 60.25 h 120.5 z"
           style="fill:none;stroke:#000000;stroke-width:30;stroke-linecap:butt;stroke-linejoin:round;stroke-miterlimit:10;stroke-dasharray:none;stroke-opacity:1"
           id="path719" /><g
           id="g721"
           transform="translate(351.375,45.125)"><path
             d="M 0,0 H -190.75"
             style="fill:none;stroke:#000000;stroke-width:30;stroke-linecap:round;stroke-linejoin:round;stroke-miterlimit:10;stroke-dasharray:none;stroke-opacity:1"
             id="path723" /></g><g
           id="g725"
           transform="translate(497,165.625)"><path
             d="M 0,0 H -482"
             style="fill:none;stroke:#000000;stroke-width:30;stroke-linecap:butt;stroke-linejoin:round;stroke-miterlimit:10;stroke-dasharray:none;stroke-opacity:1"
             id="path727" /></g><g
           id="g729"
           transform="translate(225.875,319.9644)"><path
             d="M 0,0 17.848,-17.848 60.25,10.42"
             style="fill:none;stroke:#000000;stroke-width:30;stroke-linecap:round;stroke-linejoin:round;stroke-miterlimit:10;stroke-dasharray:none;stroke-opacity:1"
             id="path731" /></g><g
           id="g733"
           transform="translate(346.375,316.25)"><path
             d="m 0,0 c 0,-49.913 -40.462,-90.375 -90.375,-90.375 -49.913,0 -90.375,40.462 -90.375,90.375 0,49.913 40.462,90.375 90.375,90.375 C -40.462,90.375 0,49.913 0,0 Z"
             style="fill:none;stroke:#000000;stroke-width:30;stroke-linecap:round;stroke-linejoin:round;stroke-miterlimit:10;stroke-dasharray:none;stroke-opacity:1"
             id="path735" /></g></g></g></g></svg>
