<?xml version="1.0" encoding="UTF-8" standalone="no"?>
<!-- Created with Inkscape (http://www.inkscape.org/) -->

<svg
   version="1.1"
   id="svg3264"
   xml:space="preserve"
   width="682.66669"
   height="682.66669"
   viewBox="0 0 682.66669 682.66669"
   xmlns="http://www.w3.org/2000/svg"
   xmlns:svg="http://www.w3.org/2000/svg"><defs
     id="defs3268"><clipPath
       clipPathUnits="userSpaceOnUse"
       id="clipPath3290"><path
         d="M 0,512 H 512 V 0 H 0 Z"
         id="path3288" /></clipPath></defs><g
     id="g3270"
     transform="matrix(1.3333333,0,0,-1.3333333,0,682.66667)"><g
       id="g3272"
       transform="translate(135.083,280.292)"><path
         d="M 0,0 V -93.943"
         style="fill:none;stroke:#000000;stroke-width:30;stroke-linecap:round;stroke-linejoin:round;stroke-miterlimit:10;stroke-dasharray:none;stroke-opacity:1"
         id="path3274" /></g><g
       id="g3276"
       transform="translate(255.1611,228.3018)"><path
         d="M 0,0 V -41.953"
         style="fill:none;stroke:#000000;stroke-width:30;stroke-linecap:round;stroke-linejoin:round;stroke-miterlimit:10;stroke-dasharray:none;stroke-opacity:1"
         id="path3278" /></g><g
       id="g3280"
       transform="translate(195.1221,243.2979)"><path
         d="M 0,0 V -56.949"
         style="fill:none;stroke:#000000;stroke-width:30;stroke-linecap:round;stroke-linejoin:round;stroke-miterlimit:10;stroke-dasharray:none;stroke-opacity:1"
         id="path3282" /></g><g
       id="g3284"><g
         id="g3286"
         clip-path="url(#clipPath3290)"><g
           id="g3292"
           transform="translate(75.04,237.9424)"><path
             d="m 0,0 v 115.925 c 0,16.431 12.908,30.278 29.299,30.659 16.947,0.395 30.74,-13.259 30.74,-30.048 V 25.417 c 0,16.602 13.439,30.057 30.02,30.057 8.285,0 15.79,-3.367 21.223,-8.807 5.434,-5.44 8.796,-12.954 8.796,-21.25 V -4.641 c 0,16.602 13.439,30.058 30.02,30.058 8.285,0 15.79,-3.367 21.223,-8.808 5.434,-5.44 8.796,-12.954 8.796,-21.25 v -4.998 -1.763 c 0,0.591 0.02,1.173 0.05,1.744"
             style="fill:none;stroke:#000000;stroke-width:30;stroke-linecap:round;stroke-linejoin:round;stroke-miterlimit:10;stroke-dasharray:none;stroke-opacity:1"
             id="path3294" /></g><g
           id="g3296"
           transform="translate(75.0439,241.7275)"><path
             d="M 0,0 V -104.273"
             style="fill:none;stroke:#000000;stroke-width:30;stroke-linecap:round;stroke-linejoin:round;stroke-miterlimit:10;stroke-dasharray:none;stroke-opacity:1"
             id="path3298" /></g><g
           id="g3300"
           transform="translate(255.21,192.9805)"><path
             d="M 0,0 V 10.84"
             style="fill:none;stroke:#000000;stroke-width:30;stroke-linecap:round;stroke-linejoin:round;stroke-miterlimit:10;stroke-dasharray:none;stroke-opacity:1"
             id="path3302" /></g><g
           id="g3304"
           transform="translate(75.04,193.2998)"><path
             d="M 0,0 -0.21,-0.01"
             style="fill:none;stroke:#000000;stroke-width:30;stroke-linecap:round;stroke-linejoin:round;stroke-miterlimit:10;stroke-dasharray:none;stroke-opacity:1"
             id="path3306" /></g><g
           id="g3308"
           transform="translate(15,189.7998)"><path
             d="m 0,0 c 0,8.29 3.36,15.8 8.79,21.23 5.44,5.43 12.94,8.791 21.23,8.791 15.4,0 28.09,-11.59 29.81,-26.531 C 59.97,2.351 60.04,1.181 60.04,0 v -52.35"
             style="fill:none;stroke:#000000;stroke-width:30;stroke-linecap:round;stroke-linejoin:round;stroke-miterlimit:10;stroke-dasharray:none;stroke-opacity:1"
             id="path3310" /></g><g
           id="g3312"
           transform="translate(255.1602,203.8203)"><path
             d="m 0,0 h 0.05 v 1.979 c 0,17.491 14.15,31.67 31.599,31.67 8.401,0 16.061,-3.29 21.741,-8.679 5.67,-5.39 9.36,-12.88 9.82,-21.281"
             style="fill:none;stroke:#000000;stroke-width:30;stroke-linecap:round;stroke-linejoin:round;stroke-miterlimit:10;stroke-dasharray:none;stroke-opacity:1"
             id="path3314" /></g><g
           id="g3316"
           transform="translate(318.3711,207.5098)"><path
             d="m 0,0 v -90.226 c 0,-56.49 -45.794,-102.284 -102.283,-102.284 h -98.803 c -56.49,0 -102.284,45.794 -102.284,102.284 v 72.516"
             style="fill:none;stroke:#000000;stroke-width:30;stroke-linecap:round;stroke-linejoin:round;stroke-miterlimit:10;stroke-dasharray:none;stroke-opacity:1"
             id="path3318" /></g><g
           id="g3320"
           transform="translate(135.0801,343.0303)"><path
             d="m 0,0 h 333.72 c 15.57,0 28.2,12.62 28.2,28.2 v 97.57 c 0,15.57 -12.63,28.2 -28.2,28.2 h -425.6 c -15.57,0 -28.2,-12.63 -28.2,-28.2 V 28.2 c 0,-15.58 12.63,-28.2 28.2,-28.2 h 31.84"
             style="fill:none;stroke:#000000;stroke-width:30;stroke-linecap:round;stroke-linejoin:round;stroke-miterlimit:10;stroke-dasharray:none;stroke-opacity:1"
             id="path3322" /></g><g
           id="g3324"
           transform="translate(381.0303,419.8164)"><path
             d="M 0,0 21.211,-21.211 64.027,21.605"
             style="fill:none;stroke:#000000;stroke-width:30;stroke-linecap:round;stroke-linejoin:round;stroke-miterlimit:10;stroke-dasharray:none;stroke-opacity:1"
             id="path3326" /></g><g
           id="g3328"
           transform="translate(329.0879,497)"><path
             d="M 0,0 V -153.972"
             style="fill:none;stroke:#000000;stroke-width:30;stroke-linecap:round;stroke-linejoin:round;stroke-miterlimit:10;stroke-dasharray:none;stroke-opacity:1"
             id="path3330" /></g><g
           id="g3332"
           transform="translate(75.001,437)"><path
             d="M 0,0 H 194.087"
             style="fill:none;stroke:#000000;stroke-width:30;stroke-linecap:round;stroke-linejoin:round;stroke-miterlimit:10;stroke-dasharray:none;stroke-opacity:1"
             id="path3334" /></g></g></g></g></svg>
