<svg viewBox="0 0 512 512" xmlns="http://www.w3.org/2000/svg"><path d="m466 0h-421c-24.8125 0-45 20.1875-45 45v422c0 24.8125 20.1875 45 45 45h421c24.8125 0 45-20.1875 45-45v-422c0-24.8125-20.1875-45-45-45zm-421 30h421c8.269531 0 15 6.730469 15 15v75h-451v-75c0-8.269531 6.730469-15 15-15zm421 452h-421c-8.269531 0-15-6.730469-15-15v-317h451v317c0 8.269531-6.730469 15-15 15zm0 0"/><path d="m255 90h181c8.285156 0 15-6.714844 15-15s-6.714844-15-15-15h-181c-8.285156 0-15 6.714844-15 15s6.714844 15 15 15zm0 0"/><path d="m89.972656 75c0 8.285156-6.71875 15-15 15-8.285156 0-15-6.714844-15-15s6.714844-15 15-15c8.28125 0 15 6.714844 15 15zm0 0"/><path d="m149.972656 75c0 8.285156-6.71875 15-15 15-8.285156 0-15-6.714844-15-15s6.714844-15 15-15c8.28125 0 15 6.714844 15 15zm0 0"/><path d="m209.972656 75c0 8.285156-6.71875 15-15 15-8.285156 0-15-6.714844-15-15s6.714844-15 15-15c8.28125 0 15 6.714844 15 15zm0 0"/><path d="m386.914062 274.480469-30-51.960938c-4.140624-7.175781-13.316406-9.632812-20.488281-5.492187l-22.132812 12.78125c-4.550781-3.148438-9.324219-5.914063-14.292969-8.289063v-25.519531c0-8.285156-6.714844-15-15-15h-60c-8.285156 0-15 6.714844-15 15v25.519531c-4.96875 2.375-9.738281 5.140625-14.292969 8.285157l-22.132812-12.777344c-7.171875-4.140625-16.347657-1.683594-20.488281 5.492187l-30 51.960938c-4.140626 7.175781-1.683594 16.347656 5.488281 20.488281l21.824219 12.601562c-.265626 2.902344-.398438 5.699219-.398438 8.425782 0 2.730468.132812 5.527344.398438 8.429687l-21.824219 12.601563c-7.171875 4.140625-9.628907 13.316406-5.488281 20.488281l30 51.960937c4.140624 7.175782 13.316406 9.632813 20.488281 5.492188l22.132812-12.777344c4.550781 3.144532 9.324219 5.914063 14.292969 8.285156v25.523438c0 8.285156 6.714844 15 15 15h60c8.285156 0 15-6.714844 15-15v-25.519531c4.96875-2.375 9.738281-5.140625 14.292969-8.285157l22.132812 12.777344c7.171875 4.140625 16.347657 1.683594 20.488281-5.492187l30-51.960938c4.140626-7.175781 1.683594-16.347656-5.488281-20.492187l-21.824219-12.597656c.265626-2.902344.398438-5.703126.398438-8.429688s-.132812-5.527344-.398438-8.429688l21.820313-12.597656c7.175781-4.144531 9.632813-13.316406 5.492187-20.492187zm-58.316406 27.871093c.957032 5.183594 1.402344 9.519532 1.402344 13.648438s-.445312 8.464844-1.402344 13.648438c-1.148437 6.242187 1.753906 12.535156 7.253906 15.710937l17.582032 10.148437-15 25.980469-17.816406-10.285156c-5.5-3.175781-12.402344-2.542969-17.234376 1.582031-7 5.972656-14.875 10.535156-23.40625 13.570313-5.980468 2.125-9.976562 7.785156-9.976562 14.132812v20.511719h-30v-20.511719c0-6.347656-3.996094-12.007812-9.976562-14.132812-8.53125-3.035157-16.40625-7.597657-23.40625-13.570313-4.832032-4.125-11.734376-4.757812-17.234376-1.582031l-17.816406 10.285156-15-25.980469 17.582032-10.148437c5.5-3.175781 8.402343-9.46875 7.253906-15.710937-.957032-5.183594-1.402344-9.519532-1.402344-13.648438s.445312-8.464844 1.402344-13.648438c1.148437-6.242187-1.753906-12.535156-7.253906-15.710937l-17.582032-10.148437 15-25.980469 17.816406 10.285156c5.5 3.175781 12.402344 2.542969 17.234376-1.582031 7-5.972656 14.875-10.535156 23.40625-13.570313 5.980468-2.125 9.976562-7.785156 9.976562-14.132812v-20.511719h30v20.511719c0 6.347656 3.996094 12.007812 9.976562 14.132812 8.53125 3.035157 16.40625 7.597657 23.40625 13.570313 4.832032 4.121094 11.734376 4.757812 17.234376 1.582031l17.816406-10.285156 15 25.980469-17.582032 10.148437c-5.5 3.175781-8.402343 9.46875-7.253906 15.710937zm0 0"/><path d="m255 271c-24.8125 0-45 20.1875-45 45s20.1875 45 45 45 45-20.1875 45-45-20.1875-45-45-45zm0 60c-8.269531 0-15-6.730469-15-15s6.730469-15 15-15 15 6.730469 15 15-6.730469 15-15 15zm0 0"/></svg>