<?xml version="1.0" encoding="UTF-8" standalone="no"?>
<!-- Created with Inkscape (http://www.inkscape.org/) -->

<svg
   version="1.1"
   id="svg1095"
   xml:space="preserve"
   width="682.66669"
   height="682.66669"
   viewBox="0 0 682.66669 682.66669"
   xmlns="http://www.w3.org/2000/svg"
   xmlns:svg="http://www.w3.org/2000/svg"><defs
     id="defs1099"><clipPath
       clipPathUnits="userSpaceOnUse"
       id="clipPath1109"><path
         d="M 0,512 H 512 V 0 H 0 Z"
         id="path1107" /></clipPath></defs><g
     id="g1101"
     transform="matrix(1.3333333,0,0,-1.3333333,0,682.66667)"><g
       id="g1103"><g
         id="g1105"
         clip-path="url(#clipPath1109)"><g
           id="g1111"
           transform="translate(417,417)"><path
             d="m 0,0 h -402 v 40 c 0,22.091 17.908,40 40,40 H -40 C -17.908,80 0,62.091 0,40 Z"
             style="fill:none;stroke:#000000;stroke-width:30;stroke-linecap:round;stroke-linejoin:round;stroke-miterlimit:10;stroke-dasharray:none;stroke-opacity:1"
             id="path1113" /></g><g
           id="g1115"
           transform="translate(317,417)"><path
             d="M 0,0 V 80"
             style="fill:none;stroke:#000000;stroke-width:30;stroke-linecap:round;stroke-linejoin:round;stroke-miterlimit:10;stroke-dasharray:none;stroke-opacity:1"
             id="path1117" /></g><g
           id="g1119"
           transform="translate(301.0146,168.9424)"><path
             d="m 0,0 140,242.487 c 8.284,14.349 26.632,19.265 40.98,10.981 14.349,-8.284 19.265,-26.632 10.981,-40.981 L 51.961,-30 -19.02,-92.942 Z"
             style="fill:none;stroke:#000000;stroke-width:30;stroke-linecap:round;stroke-linejoin:round;stroke-miterlimit:10;stroke-dasharray:none;stroke-opacity:1"
             id="path1121" /></g><g
           id="g1123"
           transform="translate(301.0146,168.9424)"><path
             d="M 0,0 51.961,-30"
             style="fill:none;stroke:#000000;stroke-width:30;stroke-linecap:round;stroke-linejoin:round;stroke-miterlimit:10;stroke-dasharray:none;stroke-opacity:1"
             id="path1125" /></g><g
           id="g1127"
           transform="translate(426.0146,385.4487)"><path
             d="M 0,0 51.961,-30"
             style="fill:none;stroke:#000000;stroke-width:30;stroke-linecap:round;stroke-linejoin:round;stroke-miterlimit:10;stroke-dasharray:none;stroke-opacity:1"
             id="path1129" /></g><g
           id="g1131"
           transform="translate(396.0146,333.4873)"><path
             d="M 0,0 51.961,-30"
             style="fill:none;stroke:#000000;stroke-width:30;stroke-linecap:round;stroke-linejoin:round;stroke-miterlimit:10;stroke-dasharray:none;stroke-opacity:1"
             id="path1133" /></g><path
           d="M 266,216 H 76 v 140 h 190 z"
           style="fill:none;stroke:#000000;stroke-width:30;stroke-linecap:round;stroke-linejoin:round;stroke-miterlimit:10;stroke-dasharray:none;stroke-opacity:1"
           id="path1135" /><g
           id="g1137"
           transform="translate(76,216)"><path
             d="M 0,0 60,60 120,0"
             style="fill:none;stroke:#000000;stroke-width:30;stroke-linecap:round;stroke-linejoin:round;stroke-miterlimit:10;stroke-dasharray:none;stroke-opacity:1"
             id="path1139" /></g><g
           id="g1141"
           transform="translate(281.9951,76)"><path
             d="M 0,0 H -205.995"
             style="fill:none;stroke:#000000;stroke-width:30;stroke-linecap:round;stroke-linejoin:round;stroke-miterlimit:10;stroke-dasharray:none;stroke-opacity:1"
             id="path1143" /></g><g
           id="g1145"
           transform="translate(266,216)"><path
             d="M 0,0 -60,80 -98.571,28.571"
             style="fill:none;stroke:#000000;stroke-width:30;stroke-linecap:round;stroke-linejoin:round;stroke-miterlimit:10;stroke-dasharray:none;stroke-opacity:1"
             id="path1147" /></g><g
           id="g1149"
           transform="translate(296.3193,146)"><path
             d="M 0,0 H -220.319"
             style="fill:none;stroke:#000000;stroke-width:30;stroke-linecap:round;stroke-linejoin:round;stroke-miterlimit:10;stroke-dasharray:none;stroke-opacity:1"
             id="path1151" /></g><g
           id="g1153"
           transform="translate(417,369.8354)"><path
             d="m 0,0 v 47.165 h -402 v -362 c 0,-22.091 17.908,-40 40,-40 h 322 c 22.092,0 40,17.909 40,40 V -120"
             style="fill:none;stroke:#000000;stroke-width:30;stroke-linecap:round;stroke-linejoin:round;stroke-miterlimit:10;stroke-dasharray:none;stroke-opacity:1"
             id="path1155" /></g></g></g></g></svg>
