<?xml version="1.0" encoding="iso-8859-1"?>
<!-- Generator: Adobe Illustrator 19.0.0, SVG Export Plug-In . SVG Version: 6.00 Build 0)  -->
<svg version="1.1" id="Capa_1" xmlns="http://www.w3.org/2000/svg" xmlns:xlink="http://www.w3.org/1999/xlink" x="0px" y="0px"
	 viewBox="0 0 512 512" style="enable-background:new 0 0 512 512;" xml:space="preserve">
<g>
	<g>
		<path d="M482,331.588V164.959c18.204-13.697,30-35.475,30-59.959c0-32.66-41.712-79.126-64.682-100.887
			c-5.786-5.483-14.851-5.483-20.637,0C405.565,24.119,362,71.465,362,105c0,24.484,11.796,46.262,30,59.959v58.93
			c-1.642-1.633-3.32-3.236-5.043-4.8c-16.308-14.804-35.408-25.696-55.957-32.17V105c0-2.31-0.617-4.778-1.583-6.708l-45-90
			C281.875,3.21,276.682,0,271,0s-10.875,3.21-13.417,8.292l-45,90c-0.946,1.89-1.583,4.36-1.583,6.708v90
			c0,1.701,0.296,3.329,0.818,4.853c-5.527,3.206-10.884,6.782-16.041,10.733c-5.208,3.99-10.142,8.329-14.777,12.968V15
			c0-8.284-6.716-15-15-15H76c-8.284,0-15,6.716-15,15v270.918C25.287,306.372,0,344.79,0,390c0,66.232,54.72,122,121,122h286
			c57.891,0,105-48.765,105-107c0-28.395-11.343-54.181-29.719-73.1C482.193,331.793,482.091,331.693,482,331.588z M437.005,36.186
			C458.254,58.388,482,89.229,482,105c0,24.813-20.187,45-45,45s-45-20.187-45-45C392,89.267,415.755,58.409,437.005,36.186z
			 M452,178.491v131.582c-5.796-2.752-11.839-4.956-18.062-6.596C431.6,290.558,427.57,278.071,422,266.3v-87.809
			c4.848,0.988,9.864,1.509,15,1.509S447.152,179.479,452,178.491z M271,48.541L291.729,90H250.27L271,48.541z M241,120h60v60.759
			c-4.963-0.498-9.967-0.759-15-0.759c-15.496,0-30.613,2.348-45,6.92V120z M91,210h15c8.284,0,15-6.716,15-15s-6.716-15-15-15H91
			v-30h15c8.284,0,15-6.716,15-15s-6.716-15-15-15H91V90h15c8.284,0,15-6.716,15-15s-6.716-15-15-15H91V30h60v236.193
			c-1.067,2.254-2.093,4.528-3.048,6.833C139.212,271.03,130.186,270,121,270c-10.241,0-20.3,1.281-30,3.756V210z M407,482H121
			c-49.327,0-91-42.131-91-92c0-49.685,40.903-90,91-90c18.311,0,29.95,6.087,34.098,6.666
			c10.647,4.355,20.762,10.915,29.541,19.694c5.86,5.859,15.356,5.857,21.213,0c5.858-5.858,5.858-15.355,0-21.213
			c-7.527-7.527-15.882-13.924-24.853-19.12V273.06C201.561,234.547,241.245,210,286,210c54.822,0,102.865,38.354,116.463,90.103
			c-26.655,1.129-52.212,12.154-70.709,30.651c-5.858,5.858-5.858,15.355,0,21.213c5.857,5.858,15.355,5.858,21.213,0
			c18.607-18.607,46.336-25.773,71.033-20.023c33.081,7.702,58,37.472,58,73.057C482,446.738,447.654,482,407,482z"/>
	</g>
</g>
<g>
</g>
<g>
</g>
<g>
</g>
<g>
</g>
<g>
</g>
<g>
</g>
<g>
</g>
<g>
</g>
<g>
</g>
<g>
</g>
<g>
</g>
<g>
</g>
<g>
</g>
<g>
</g>
<g>
</g>
</svg>
