<?xml version="1.0" encoding="UTF-8" standalone="no"?>
<!-- Created with Inkscape (http://www.inkscape.org/) -->

<svg
   version="1.1"
   id="svg3708"
   xml:space="preserve"
   width="682.66669"
   height="682.66669"
   viewBox="0 0 682.66669 682.66669"
   xmlns="http://www.w3.org/2000/svg"
   xmlns:svg="http://www.w3.org/2000/svg"><defs
     id="defs3712"><clipPath
       clipPathUnits="userSpaceOnUse"
       id="clipPath3722"><path
         d="M 0,512 H 512 V 0 H 0 Z"
         id="path3720" /></clipPath></defs><g
     id="g3714"
     transform="matrix(1.3333333,0,0,-1.3333333,0,682.66667)"><g
       id="g3716"><g
         id="g3718"
         clip-path="url(#clipPath3722)"><g
           id="g3724"
           transform="translate(46,315)"><path
             d="m 0,0 h 420 c 16.568,0 30,-13.432 30,-30 v -240 c 0,-16.568 -13.432,-30 -30,-30 H 0 c -16.568,0 -30,13.432 -30,30 v 240 c 0,16.568 13.432,30 30,30 z"
             style="fill:none;stroke:#000000;stroke-width:30;stroke-linecap:round;stroke-linejoin:round;stroke-miterlimit:10;stroke-dasharray:none;stroke-opacity:1"
             id="path3726" /></g><g
           id="g3728"
           transform="translate(439.459,439.665)"><path
             d="M 0,0 -342.514,-124.665"
             style="fill:none;stroke:#000000;stroke-width:30;stroke-linecap:round;stroke-linejoin:round;stroke-miterlimit:10;stroke-dasharray:none;stroke-opacity:1"
             id="path3730" /></g><g
           id="g3732"
           transform="translate(272.374,315)"><path
             d="M 0,0 187.606,68.283"
             style="fill:none;stroke:#000000;stroke-width:30;stroke-linecap:round;stroke-linejoin:round;stroke-miterlimit:10;stroke-dasharray:none;stroke-opacity:1"
             id="path3734" /></g><g
           id="g3736"
           transform="translate(488.5586,304.7646)"><path
             d="m 0,0 -62.78,172.488 c -5.667,15.57 -22.882,23.597 -38.451,17.93 L -439.521,67.291 c -15.569,-5.667 -23.596,-22.882 -17.93,-38.451 l 7.141,-19.621"
             style="fill:none;stroke:#000000;stroke-width:30;stroke-linecap:round;stroke-linejoin:round;stroke-miterlimit:10;stroke-dasharray:none;stroke-opacity:1"
             id="path3738" /></g><path
           d="M 76,255 H 176 V 195 H 76 Z"
           style="fill:none;stroke:#000000;stroke-width:30;stroke-linecap:round;stroke-linejoin:round;stroke-miterlimit:10;stroke-dasharray:none;stroke-opacity:1"
           id="path3740" /><g
           id="g3742"
           transform="translate(76,135)"><path
             d="M 0,0 H 40"
             style="fill:none;stroke:#000000;stroke-width:30;stroke-linecap:round;stroke-linejoin:round;stroke-miterlimit:10;stroke-dasharray:none;stroke-opacity:1"
             id="path3744" /></g><g
           id="g3746"
           transform="translate(76,75)"><path
             d="M 0,0 H 100"
             style="fill:none;stroke:#000000;stroke-width:30;stroke-linecap:round;stroke-linejoin:round;stroke-miterlimit:10;stroke-dasharray:none;stroke-opacity:1"
             id="path3748" /></g><g
           id="g3750"
           transform="translate(176,135)"><path
             d="M 0,0 H 40"
             style="fill:none;stroke:#000000;stroke-width:30;stroke-linecap:round;stroke-linejoin:round;stroke-miterlimit:10;stroke-dasharray:none;stroke-opacity:1"
             id="path3752" /></g><g
           id="g3754"
           transform="translate(276,135)"><path
             d="M 0,0 H 40"
             style="fill:none;stroke:#000000;stroke-width:30;stroke-linecap:round;stroke-linejoin:round;stroke-miterlimit:10;stroke-dasharray:none;stroke-opacity:1"
             id="path3756" /></g><g
           id="g3758"
           transform="translate(376,135)"><path
             d="M 0,0 H 40"
             style="fill:none;stroke:#000000;stroke-width:30;stroke-linecap:round;stroke-linejoin:round;stroke-miterlimit:10;stroke-dasharray:none;stroke-opacity:1"
             id="path3760" /></g></g></g></g></svg>
