<svg id="Capa_1" enable-background="new 0 0 512 512" height="512" viewBox="0 0 512 512" width="512" xmlns="http://www.w3.org/2000/svg"><g><path d="m331 204c0-41.355-33.645-75-75-75s-75 33.645-75 75 33.645 75 75 75 75-33.645 75-75zm-75 45c-24.813 0-45-20.187-45-45s20.187-45 45-45 45 20.187 45 45-20.187 45-45 45z"/><path d="m413.148 309.185c30.069-3.088 53.602-28.564 53.602-59.435 0-32.946-26.804-59.75-59.75-59.75s-59.75 26.804-59.75 59.75c0 30.893 23.567 56.384 53.666 59.442-16.145.92-31.667 5.494-45.638 13.429-53.605-58.193-145.008-58.129-198.554-.001-13.974-7.932-29.512-12.506-45.637-13.428 30.098-3.059 53.664-28.55 53.664-59.442 0-32.946-26.804-59.75-59.75-59.75s-59.75 26.804-59.75 59.75c0 30.871 23.533 56.347 53.602 59.435-55.047 3.195-98.853 48.982-98.853 104.815v45c0 8.284 6.716 15 15 15h106c0 8.284 6.716 15 15 15h240c8.284 0 15-6.716 15-15h106c8.284 0 15-6.716 15-15v-45c0-55.833-43.806-101.62-98.852-104.815zm-35.898-59.435c0-16.404 13.346-29.75 29.75-29.75s29.75 13.346 29.75 29.75-13.346 29.75-29.75 29.75-29.75-13.346-29.75-29.75zm-302 0c0-16.404 13.346-29.75 29.75-29.75s29.75 13.346 29.75 29.75-13.346 29.75-29.75 29.75-29.75-13.346-29.75-29.75zm-45.25 194.25v-30c0-55.943 59.281-92.03 108.807-66.957-24.264 42.304-16.25 78.41-17.807 96.957zm331 15h-210v-45c0-57.897 47.103-105 105-105s105 47.103 105 105zm121-15h-91c-1.551-18.468 6.467-54.642-17.811-96.964 49.482-25.067 108.811 11 108.811 66.964z"/><path d="m230.894 108.607c5.857 5.858 15.355 5.859 21.213 0l60-60c5.858-5.858 5.858-15.355 0-21.213-5.857-5.858-15.355-5.858-21.213 0l-49.394 49.393-20.394-20.393c-5.857-5.858-15.355-5.858-21.213 0s-5.858 15.355 0 21.213z"/></g></svg>