<?xml version="1.0" encoding="UTF-8" standalone="no"?>
<!-- Created with Inkscape (http://www.inkscape.org/) -->

<svg
   version="1.1"
   id="svg2823"
   xml:space="preserve"
   width="682.66669"
   height="682.66669"
   viewBox="0 0 682.66669 682.66669"
   xmlns="http://www.w3.org/2000/svg"
   xmlns:svg="http://www.w3.org/2000/svg"><defs
     id="defs2827"><clipPath
       clipPathUnits="userSpaceOnUse"
       id="clipPath2837"><path
         d="M 0,512 H 512 V 0 H 0 Z"
         id="path2835" /></clipPath></defs><g
     id="g2829"
     transform="matrix(1.3333333,0,0,-1.3333333,0,682.66667)"><g
       id="g2831"><g
         id="g2833"
         clip-path="url(#clipPath2837)"><g
           id="g2839"
           transform="translate(467,128)"><path
             d="m 0,0 h -422 c -16.568,0 -30,13.432 -30,30 v 292 c 0,16.568 13.432,30 30,30 H 0 c 16.568,0 30,-13.432 30,-30 V 30 C 30,13.432 16.568,0 0,0 Z"
             style="fill:none;stroke:#000000;stroke-width:30;stroke-linecap:round;stroke-linejoin:round;stroke-miterlimit:10;stroke-dasharray:none;stroke-opacity:1"
             id="path2841" /></g><g
           id="g2843"
           transform="translate(320,32)"><path
             d="m 0,0 h -128 l 16,96 h 96 z"
             style="fill:none;stroke:#000000;stroke-width:30;stroke-linecap:round;stroke-linejoin:round;stroke-miterlimit:10;stroke-dasharray:none;stroke-opacity:1"
             id="path2845" /></g><g
           id="g2847"
           transform="translate(160,32)"><path
             d="M 0,0 H 192"
             style="fill:none;stroke:#000000;stroke-width:30;stroke-linecap:round;stroke-linejoin:round;stroke-miterlimit:10;stroke-dasharray:none;stroke-opacity:1"
             id="path2849" /></g><g
           id="g2851"
           transform="translate(80,384)"><path
             d="M 0,0 V -160 H 128"
             style="fill:none;stroke:#000000;stroke-width:30;stroke-linecap:round;stroke-linejoin:round;stroke-miterlimit:10;stroke-dasharray:none;stroke-opacity:1"
             id="path2853" /></g><g
           id="g2855"
           transform="translate(144,224)"><path
             d="M 0,0 V 112"
             style="fill:none;stroke:#000000;stroke-width:30;stroke-linecap:round;stroke-linejoin:round;stroke-miterlimit:10;stroke-dasharray:none;stroke-opacity:1"
             id="path2857" /></g><g
           id="g2859"
           transform="translate(208,224)"><path
             d="M 0,0 V 64"
             style="fill:none;stroke:#000000;stroke-width:30;stroke-linecap:round;stroke-linejoin:round;stroke-miterlimit:10;stroke-dasharray:none;stroke-opacity:1"
             id="path2861" /></g><g
           id="g2863"
           transform="translate(432,304)"><path
             d="m 0,0 c 0,-39.765 -32.235,-72 -72,-72 -39.765,0 -72,32.235 -72,72 0,39.765 32.235,72 72,72 C -32.235,72 0,39.765 0,0 Z"
             style="fill:none;stroke:#000000;stroke-width:30;stroke-linecap:round;stroke-linejoin:round;stroke-miterlimit:10;stroke-dasharray:none;stroke-opacity:1"
             id="path2865" /></g><g
           id="g2867"
           transform="translate(360,376)"><path
             d="M 0,0 V -72 H 72"
             style="fill:none;stroke:#000000;stroke-width:30;stroke-linecap:round;stroke-linejoin:round;stroke-miterlimit:10;stroke-dasharray:none;stroke-opacity:1"
             id="path2869" /></g><g
           id="g2871"
           transform="translate(360,304)"><path
             d="M 0,0 -50.91,-50.91"
             style="fill:none;stroke:#000000;stroke-width:30;stroke-linecap:round;stroke-linejoin:round;stroke-miterlimit:10;stroke-dasharray:none;stroke-opacity:1"
             id="path2873" /></g><g
           id="g2875"
           transform="translate(256,480)"><path
             d="M 0,0 V -32"
             style="fill:none;stroke:#000000;stroke-width:30;stroke-linecap:round;stroke-linejoin:round;stroke-miterlimit:10;stroke-dasharray:none;stroke-opacity:1"
             id="path2877" /></g></g></g></g></svg>
