<?xml version="1.0" encoding="UTF-8"?>
<svg xmlns="http://www.w3.org/2000/svg" xmlns:xlink="http://www.w3.org/1999/xlink" version="1.1" id="Capa_1" x="0px" y="0px" viewBox="0 0 512 512" style="enable-background:new 0 0 512 512;" xml:space="preserve" width="512" height="512">
<g>
	<g>
		
			<polyline style="fill:none;stroke:#000000;stroke-width:30;stroke-linecap:round;stroke-linejoin:round;stroke-miterlimit:10;" points="&#10;&#9;&#9;&#9;455.5,323.4 455.5,95 308.63,95 249.85,35 230.25,15 56.5,15 56.5,323.4 &#9;&#9;"/>
		
			<polyline style="fill:none;stroke:#000000;stroke-width:30;stroke-linecap:round;stroke-linejoin:round;stroke-miterlimit:10;" points="&#10;&#9;&#9;&#9;249.85,35 455.5,35 455.5,95 308.63,95 &#9;&#9;"/>
	</g>
	<g>
		
			<polygon style="fill:none;stroke:#000000;stroke-width:30;stroke-linecap:round;stroke-linejoin:round;stroke-miterlimit:10;" points="&#10;&#9;&#9;&#9;400.2,382.21 358.53,394.1 380.66,436.37 338.97,477.87 298.45,454.86 285.41,497 226.59,497 213.55,454.86 173.03,477.87 &#10;&#9;&#9;&#9;131.34,436.37 153.47,394.1 111.8,382.21 111.8,323.4 154.22,309.68 130.81,269.71 172.31,228.02 213.84,250.62 226.59,208.61 &#10;&#9;&#9;&#9;285.41,208.61 298.16,250.62 339.69,228.02 381.19,269.71 357.78,309.68 400.2,323.4 &#9;&#9;"/>
	</g>
	
		<circle style="fill:none;stroke:#000000;stroke-width:30;stroke-linecap:round;stroke-linejoin:round;stroke-miterlimit:10;" cx="256" cy="353" r="50"/>
	
		<line style="fill:none;stroke:#000000;stroke-width:30;stroke-linecap:round;stroke-linejoin:round;stroke-miterlimit:10;" x1="455.5" y1="323.4" x2="400.2" y2="323.4"/>
	
		<line style="fill:none;stroke:#000000;stroke-width:30;stroke-linecap:round;stroke-linejoin:round;stroke-miterlimit:10;" x1="111.8" y1="323.4" x2="56.5" y2="323.4"/>
</g>















</svg>
