<?xml version="1.0" encoding="UTF-8" standalone="no"?>
<!-- Created with Inkscape (http://www.inkscape.org/) -->

<svg
   version="1.1"
   id="svg3381"
   xml:space="preserve"
   width="682.66669"
   height="682.66669"
   viewBox="0 0 682.66669 682.66669"
   xmlns="http://www.w3.org/2000/svg"
   xmlns:svg="http://www.w3.org/2000/svg"><defs
     id="defs3385"><clipPath
       clipPathUnits="userSpaceOnUse"
       id="clipPath3395"><path
         d="M 0,512 H 512 V 0 H 0 Z"
         id="path3393" /></clipPath></defs><g
     id="g3387"
     transform="matrix(1.3333333,0,0,-1.3333333,0,682.66667)"><g
       id="g3389"><g
         id="g3391"
         clip-path="url(#clipPath3395)"><g
           id="g3397"
           transform="translate(256,186)"><path
             d="m 0,0 c -38.66,0 -70,31.34 -70,70 0,38.66 31.34,70 70,70 38.66,0 70,-31.34 70,-70 C 70,31.34 38.66,0 0,0 Z m 160,46.471 v 47.058 l -32.075,7.548 c -3.243,13.389 -8.519,25.949 -15.503,37.391 l 17.353,28.031 -33.276,33.276 -28.031,-17.353 c -11.442,6.984 -24.002,12.26 -37.391,15.503 L 23.529,230 h -47.058 l -7.548,-32.075 c -13.389,-3.243 -25.949,-8.519 -37.391,-15.503 l -28.031,17.353 -33.276,-33.276 17.353,-28.031 c -6.984,-11.442 -12.26,-24.002 -15.503,-37.391 L -160,93.529 V 46.471 l 32.075,-7.548 c 3.243,-13.389 8.519,-25.949 15.503,-37.391 l -17.353,-28.031 33.276,-33.276 28.031,17.353 c 11.442,-6.984 24.002,-12.26 37.391,-15.503 L -23.529,-90 h 47.058 l 7.548,32.075 c 13.389,3.243 25.949,8.519 37.391,15.503 l 28.031,-17.353 33.276,33.276 -17.353,28.031 c 6.985,11.442 12.26,24.002 15.503,37.391 z"
             style="fill:none;stroke:#000000;stroke-width:30;stroke-linecap:round;stroke-linejoin:round;stroke-miterlimit:10;stroke-dasharray:none;stroke-opacity:1"
             id="path3399" /></g><g
           id="g3401"
           transform="translate(354.9706,430.7527)"><path
             d="M 0,0 55.941,9.864 46.077,65.805"
             style="fill:none;stroke:#000000;stroke-width:30;stroke-linecap:round;stroke-linejoin:round;stroke-miterlimit:10;stroke-dasharray:none;stroke-opacity:1"
             id="path3403" /></g><g
           id="g3405"
           transform="translate(157.0294,81.2473)"><path
             d="m 0,0 -55.941,-9.864 9.864,-55.941"
             style="fill:none;stroke:#000000;stroke-width:30;stroke-linecap:round;stroke-linejoin:round;stroke-miterlimit:10;stroke-dasharray:none;stroke-opacity:1"
             id="path3407" /></g><g
           id="g3409"
           transform="translate(410.8889,440.5898)"><path
             d="m 0,0 c -41.89,35.187 -95.901,56.41 -154.889,56.41 -133.1,0 -241,-107.899 -241,-241"
             style="fill:none;stroke:#000000;stroke-width:30;stroke-linecap:round;stroke-linejoin:round;stroke-miterlimit:10;stroke-dasharray:none;stroke-opacity:1"
             id="path3411" /></g><g
           id="g3413"
           transform="translate(101.1105,71.4108)"><path
             d="m 0,0 c 41.89,-35.188 95.901,-56.411 154.89,-56.411 133.1,0 241,107.9 241,241"
             style="fill:none;stroke:#000000;stroke-width:30;stroke-linecap:round;stroke-linejoin:round;stroke-miterlimit:10;stroke-dasharray:none;stroke-opacity:1"
             id="path3415" /></g></g></g></g></svg>
