<?xml version="1.0" encoding="UTF-8"?>
<svg xmlns="http://www.w3.org/2000/svg" xmlns:xlink="http://www.w3.org/1999/xlink" version="1.1" id="Capa_1" x="0px" y="0px" viewBox="0 0 512 512" style="enable-background:new 0 0 512 512;" xml:space="preserve" width="512" height="512">
<g>
	<path style="fill:none;stroke:#000000;stroke-width:30;stroke-linecap:round;stroke-linejoin:round;stroke-miterlimit:10;" d="&#10;&#9;&#9;M94.267,360.931c-12.926-19.867-22.292-42.272-27.186-66.291L15,288.133v-64.267l52.081-6.507&#10;&#9;&#9;c5.002-24.542,14.67-47.389,28.036-67.584l-32.251-41.468l45.443-45.444l41.466,32.254c20.189-13.367,43.04-23.032,67.581-28.036&#10;&#9;&#9;l6.51-52.08h64.267l6.51,52.08c24.539,5.005,47.389,14.669,67.581,28.036l41.466-32.254l45.443,45.444l-32.251,41.468&#10;&#9;&#9;c13.367,20.188,23.036,43.043,28.036,67.584L497,223.867v64.267l-52.081,6.507c-5.002,24.542-14.67,47.389-28.036,67.584&#10;&#9;&#9;l32.251,41.468l-45.443,45.444l-41.466-32.254c-20.189,13.367-43.04,23.032-67.581,28.036l-6.51,52.08h-64.267l-6.51-52.08&#10;&#9;&#9;c-24.016-4.9-46.415-14.259-66.285-27.185"/>
	<path style="fill:none;stroke:#000000;stroke-width:30;stroke-linecap:round;stroke-linejoin:round;stroke-miterlimit:10;" d="&#10;&#9;&#9;M358.695,210.114c6.279,14.01,9.772,29.547,9.772,45.886c0,62.073-50.395,112.467-112.467,112.467&#10;&#9;&#9;c-16.344,0-31.878-3.494-45.89-9.769L71.805,497L15,440.196l138.306-138.31c-6.279-14.01-9.773-29.547-9.773-45.886&#10;&#9;&#9;c0-62.073,50.395-112.467,112.467-112.467c16.342,0,31.875,3.494,45.89,9.769l-73.961,73.963l12.004,44.802l44.8,12.002&#10;&#9;&#9;L358.695,210.114z"/>
</g>















</svg>
