<?xml version="1.0" encoding="UTF-8" standalone="no"?>
<!-- Created with Inkscape (http://www.inkscape.org/) -->

<svg
   version="1.1"
   id="svg2511"
   xml:space="preserve"
   width="682.66669"
   height="682.66669"
   viewBox="0 0 682.66669 682.66669"
   xmlns="http://www.w3.org/2000/svg"
   xmlns:svg="http://www.w3.org/2000/svg"><defs
     id="defs2515"><clipPath
       clipPathUnits="userSpaceOnUse"
       id="clipPath2525"><path
         d="M 0,512 H 512 V 0 H 0 Z"
         id="path2523" /></clipPath></defs><g
     id="g2517"
     transform="matrix(1.3333333,0,0,-1.3333333,0,682.66667)"><g
       id="g2519"><g
         id="g2521"
         clip-path="url(#clipPath2525)"><g
           id="g2527"
           transform="translate(179.2002,160.0303)"><path
             d="m 0,0 c -27.105,-0.512 -52.921,5.651 -75.94,17.42 l -88.26,-17.45 17.45,87.259 c -11.16,21.831 -17.45,46.55 -17.45,72.741 0,88.37 72.63,160 161,160 77.42,0 141.99,-54.981 156.8,-128.031"
             style="fill:none;stroke:#000000;stroke-width:30;stroke-linecap:round;stroke-linejoin:round;stroke-miterlimit:10;stroke-dasharray:none;stroke-opacity:1"
             id="path2529" /></g><g
           id="g2531"
           transform="translate(176,192)"><path
             d="m 0,0 c 0,-88.37 71.63,-160 160,-160 26.189,0 50.91,6.29 72.74,17.45 L 321,-160 303.55,-72.74 C 314.71,-50.91 321,-26.189 321,0 321,88.37 248.37,160 160,160 71.63,160 0,88.37 0,0 Z"
             style="fill:none;stroke:#000000;stroke-width:30;stroke-linecap:round;stroke-linejoin:round;stroke-miterlimit:10;stroke-dasharray:none;stroke-opacity:1"
             id="path2533" /></g></g></g></g></svg>
