<svg id="Capa_1" enable-background="new 0 0 512 512" height="512" viewBox="0 0 512 512" width="512" xmlns="http://www.w3.org/2000/svg"><g><path d="m497.827 368.419v-.01l-4.519-2.599c-21.031-12.153-21.046-43.933 0-56.094l4.519-2.609c13.466-7.778 18.105-25.063 10.327-38.53l-20.705-35.86c-7.794-13.5-25.03-18.127-38.539-10.327l-4.489 2.589c-20.878 12.052-48.607-3.536-48.607-27.992v-5.249c0-15.556-12.657-28.212-28.212-28.212h-5.838v-135.834c0-15.265-12.427-27.692-27.702-27.692h-207.643c-7.203 0-14.373 2.861-19.575 8.108l-98.623 98.623c-5.113 5.065-8.148 12.199-8.148 19.615v357.812c0 15.276 12.427 27.702 27.702 27.702 2.382 0 337.444.14 339.827.14 15.556 0 28.212-12.657 28.212-28.212v-5.249c0-24.388 27.682-40.072 48.607-27.992l4.489 2.589c13.476 7.778 30.761 3.149 38.539-10.327l20.705-35.86c7.778-13.467 3.139-30.752-10.327-38.53zm-391.663-317.213v54.885h-54.895zm191.828 430.662h-267.927v-345.785h78.398c15.266 0 27.693-12.427 27.693-27.703v-78.388h195.616v133.534h-5.579c-15.546 0-28.202 12.656-28.202 28.212v5.249c0 24.436-27.711 40.055-48.607 27.992-4.97-2.867-13.326-8.775-25.893-5.408-7.278 1.949-13.366 6.618-17.135 13.146l-20.704 35.86c-7.778 13.466-3.139 30.751 10.327 38.53l4.519 2.609c21.041 12.159 21.039 43.937 0 56.094l-4.519 2.609c-13.466 7.778-18.105 25.063-10.327 38.53l20.704 35.86c7.778 13.477 25.073 18.105 38.539 10.327l4.489-2.589c20.87-12.048 48.607 3.523 48.607 27.992v3.329zm164.375-55.595-2.949-1.699c-40.827-23.574-93.594 6.395-93.594 53.965v3.469c-.052 0-.097 0-.143 0-.457 0-.625 0-.638 0-2.072 0-10.117 0-37.058 0 0-.839 0-1.309 0-3.469 0-21.954-11.906-42.418-30.991-53.375l-.51-.29c-19.265-11.187-43.058-11.297-62.103-.3l-2.939 1.699-18.925-32.771 2.979-1.719c38.847-22.423 44.412-82.407-2.979-109.76l18.925-32.771 2.949 1.699c40.824 23.573 93.594-6.394 93.594-53.965v-3.469h37.84v3.469c0 45.062 49.464 79.484 96.543 52.266l18.925 32.771-2.979 1.719c-41.053 23.696-41.006 84.372 0 108.041l2.979 1.719z"/><path d="m346.898 277.774c-33.098 0-59.984 26.929-59.984 59.984 0 27.862 19.085 51.336 44.858 58.054 37.858 9.854 75.109-18.758 75.109-58.054.001-32.995-26.823-59.984-59.983-59.984zm14.866 86.027c-9.207 5.297-20.75 5.294-29.992-.16-26.365-15.451-15.297-55.875 15.126-55.875 30.511 0 41.554 40.754 14.866 56.035z"/><path d="m151.124 301.492h-76.019c-8.284 0-15 6.716-15 15s6.716 15 15 15h76.019c8.284 0 15-6.716 15-15s-6.716-15-15-15z"/><path d="m75.105 271.159h67.718c8.284 0 15-6.716 15-15s-6.716-15-15-15h-67.718c-8.284 0-15 6.716-15 15s6.716 15 15 15z"/><path d="m75.105 210.508h108.895c8.284 0 15-6.716 15-15s-6.716-15-15-15h-108.895c-8.284 0-15 6.716-15 15s6.716 15 15 15z"/></g></svg>