<svg id="Capa_1" enable-background="new 0 0 512 512" height="512" viewBox="0 0 512 512" width="512" xmlns="http://www.w3.org/2000/svg"><g><path d="m450.637 160.462c6.017-86.906-63.042-160.462-149.637-160.462-51.6 0-99.212 26.403-126.673 69.643-65.743-31.215-141.347 25.489-127.192 98.714-29.352 19.314-47.135 51.892-47.135 87.643 0 57.897 47.103 105 105 105h16v136c0 8.284 6.716 15 15 15h240c8.284 0 15-6.716 15-15v-136h16c57.897 0 105-47.103 105-105 0-41.656-24.204-78.645-61.363-95.538zm-89.637 321.538h-210v-271h130v66c0 8.265 6.701 15 15 15 .062 0 .125 0 .188-.001l64.813-.81v190.811zm-20.767-220.554-29.233.366v-29.598zm66.767 69.554h-16v-55c0-.031-.004-.062-.005-.093 0-.032.004-.063.004-.095-.047-3.74-1.57-7.597-4.393-10.419l-79.997-79.997c-2.737-2.738-6.533-4.396-10.609-4.396h-160c-8.284 0-15 6.716-15 15v135h-16c-41.355 0-75-33.645-75-75 0-28.498 15.825-54.177 41.298-67.018 6.688-3.371 9.864-11.159 7.442-18.245-19.071-55.815 45.351-102.372 92.336-68.278 7.523 5.458 18.151 2.823 22.26-5.5 20.391-41.302 61.645-66.959 107.664-66.959 72.8 0 129.674 64.893 118.651 138.044-1.097 7.277 3.248 14.275 10.256 16.52 31.158 9.983 52.093 38.691 52.093 71.436 0 41.355-33.645 75-75 75z"/><path d="m316 331h-120c-8.284 0-15 6.716-15 15s6.716 15 15 15h120c8.284 0 15-6.716 15-15s-6.716-15-15-15z"/><path d="m316 391h-120c-8.284 0-15 6.716-15 15s6.716 15 15 15h120c8.284 0 15-6.716 15-15s-6.716-15-15-15z"/></g></svg>