<?xml version="1.0" encoding="iso-8859-1"?>
<!-- Generator: Adobe Illustrator 19.0.0, SVG Export Plug-In . SVG Version: 6.00 Build 0)  -->
<svg version="1.1" id="Capa_1" xmlns="http://www.w3.org/2000/svg" xmlns:xlink="http://www.w3.org/1999/xlink" x="0px" y="0px"
	 viewBox="0 0 511.999 511.999" style="enable-background:new 0 0 511.999 511.999;" xml:space="preserve">
<g>
	<g>
		<path d="M456.831,32.133H270.999V15c0-8.284-6.716-15-15-15c-8.284,0-15,6.716-15,15v17.133H55.168c-8.284,0-15,6.716-15,15
			v257.065c0,8.284,6.716,15,15,15h114.921l-30.925,82.466h-19.73c-8.284,0-15,6.716-15,15s6.716,15,15,15h8.48l-22.525,60.066
			c-2.909,7.757,1.021,16.402,8.778,19.311c1.735,0.65,3.515,0.959,5.265,0.959c6.073,0,11.789-3.716,14.047-9.737l26.475-70.599
			h192.093l26.475,70.599c2.258,6.022,7.974,9.737,14.047,9.737c1.749,0,3.53-0.309,5.265-0.959
			c7.756-2.909,11.686-11.555,8.778-19.311l-22.525-60.066h8.48c8.284,0,15-6.716,15-15s-6.716-15-15-15h-19.73l-30.926-82.466
			h114.921c8.284,0,15-6.716,15-15V47.133C471.831,38.849,465.116,32.133,456.831,32.133z M171.204,401.664l30.925-82.466h107.742
			l30.926,82.466H171.204z M441.832,289.198H70.167V62.133h371.664V289.198z"/>
	</g>
</g>
<g>
</g>
<g>
</g>
<g>
</g>
<g>
</g>
<g>
</g>
<g>
</g>
<g>
</g>
<g>
</g>
<g>
</g>
<g>
</g>
<g>
</g>
<g>
</g>
<g>
</g>
<g>
</g>
<g>
</g>
</svg>
