<svg height="512pt" viewBox="-1 0 512 512" width="512pt" xmlns="http://www.w3.org/2000/svg"><path d="m505.667969 246.464844c-.890625-.90625-54.296875-54.308594-55.667969-55.679688v-135.785156c0-30.328125-24.671875-55-55-55h-280c-30.328125 0-55 24.671875-55 55v135.785156c-59.621094 59.621094-60 57.515625-60 66.214844v210c0 24.8125 20.1875 45 45 45h420c24.8125 0 45-20.1875 45-45v-210c0-3.855469-1.539062-7.710938-4.332031-10.535156zm-35.992188 6.425781-19.675781 9.839844v-29.515625zm-354.675781-222.890625h280c13.785156 0 25 11.214844 25 25v222.730469l-120 60c0-5.738281 0-131.589844 0-140.730469 0-8.285156-6.714844-15-15-15h-150c-8.285156 0-15 6.714844-15 15v95.730469l-30-15c0-5.191407 0-203.800781 0-222.730469 0-13.785156 11.214844-25 25-25zm155 257.972656-66.679688-44.453125c-4.480468-2.984375-10.214843-3.34375-15.027343-.9375l-38.292969 19.148438v-49.730469h120zm-120 7.296875 43.921875-21.960937 76.078125 50.71875v28.703125l-15 7.5-105-52.5zm-90-32.539062-19.675781-9.839844 19.675781-19.675781zm405 219.269531h-420c-8.269531 0-15-6.730469-15-15v-185.730469l218.292969 109.148438c4.222656 2.109375 9.191406 2.109375 13.414062 0l218.292969-109.148438v185.730469c0 8.269531-6.730469 15-15 15zm0 0"/><path d="m195 91h120c8.285156 0 15-6.714844 15-15s-6.714844-15-15-15h-120c-8.285156 0-15 6.714844-15 15s6.714844 15 15 15zm0 0"/><path d="m135 151h240c8.285156 0 15-6.714844 15-15s-6.714844-15-15-15h-240c-8.285156 0-15 6.714844-15 15s6.714844 15 15 15zm0 0"/><path d="m375 181h-30c-8.285156 0-15 6.714844-15 15s6.714844 15 15 15h30c8.285156 0 15-6.714844 15-15s-6.714844-15-15-15zm0 0"/><path d="m375 241h-30c-8.285156 0-15 6.714844-15 15s6.714844 15 15 15h30c8.285156 0 15-6.714844 15-15s-6.714844-15-15-15zm0 0"/></svg>