<svg enable-background="new 0 0 512 512" viewBox="0 0 512 512" xmlns="http://www.w3.org/2000/svg"><path d="m497 0h-385.6c-8.284 0-15 6.716-15 15v162.748c-54.356 7.35-96.397 54.047-96.397 110.384l-.003 64.269c0 88.004 71.596 159.599 159.6 159.599 88.003 0 159.6-71.596 159.6-159.6v-33.2h177.8c8.284 0 15-6.716 15-15v-289.2c0-8.284-6.715-15-15-15zm-43.648 30-149.152 110.907-149.152-110.907zm-164.152 322.401c0 71.462-58.138 129.6-129.6 129.6-71.462-.001-129.6-58.138-129.6-129.599l.003-64.269c0-44.883 36.516-81.398 81.4-81.398s81.4 36.516 81.4 81.398v48.203c0 18.308-14.893 33.201-33.2 33.201s-33.2-14.894-33.2-33.201v-48.203c0-8.284-6.716-15-15-15s-15 6.716-15 15v48.203c0 34.85 28.352 63.201 63.2 63.201 34.849 0 63.2-28.352 63.2-63.201v-17.136h66.397zm192.8-63.201h-259.197v-1.067c0-56.34-42.044-103.038-96.403-110.386v-131.664l168.849 125.554c2.657 1.976 5.804 2.963 8.951 2.963s6.294-.987 8.951-2.963l168.849-125.555z"/></svg>