<?xml version="1.0" encoding="UTF-8"?>
<svg xmlns="http://www.w3.org/2000/svg" xmlns:xlink="http://www.w3.org/1999/xlink" version="1.1" id="Capa_1" x="0px" y="0px" viewBox="0 0 512 512" style="enable-background:new 0 0 512 512;" xml:space="preserve" width="512" height="512">
<g>
	
		<rect x="87" y="15" style="fill:none;stroke:#000000;stroke-width:30;stroke-linecap:round;stroke-linejoin:round;stroke-miterlimit:10;" width="60" height="77"/>
	
		<rect x="335" y="15" style="fill:none;stroke:#000000;stroke-width:30;stroke-linecap:round;stroke-linejoin:round;stroke-miterlimit:10;" width="60" height="77"/>
	
		<line style="fill:none;stroke:#000000;stroke-width:30;stroke-linecap:round;stroke-linejoin:round;stroke-miterlimit:10;" x1="335" y1="44" x2="147" y2="44"/>
	
		<polyline style="fill:none;stroke:#000000;stroke-width:30;stroke-linecap:round;stroke-linejoin:round;stroke-miterlimit:10;" points="&#10;&#9;&#9;395,44 467,44 467,152 15,152 15,44 87,44 &#9;"/>
	
		<line style="fill:none;stroke:#000000;stroke-width:30;stroke-linecap:round;stroke-linejoin:round;stroke-miterlimit:10;" x1="467" y1="290.05" x2="467" y2="152"/>
	
		<polyline style="fill:none;stroke:#000000;stroke-width:30;stroke-linecap:round;stroke-linejoin:round;stroke-miterlimit:10;" points="&#10;&#9;&#9;15,152 15,447 268.06,447 &#9;"/>
	
		<rect x="75" y="212" style="fill:none;stroke:#000000;stroke-width:30;stroke-linecap:round;stroke-linejoin:round;stroke-miterlimit:10;" width="60" height="60"/>
	
		<rect x="75" y="332" style="fill:none;stroke:#000000;stroke-width:30;stroke-linecap:round;stroke-linejoin:round;stroke-miterlimit:10;" width="60" height="60"/>
	<g>
		
			<circle style="fill:none;stroke:#000000;stroke-width:30;stroke-linecap:round;stroke-linejoin:round;stroke-miterlimit:10;" cx="373.5" cy="373.5" r="30"/>
		<path style="fill:none;stroke:#000000;stroke-width:30;stroke-linecap:round;stroke-linejoin:round;stroke-miterlimit:10;" d="&#10;&#9;&#9;&#9;M497,396.714v-46.429l-44.179-3.156c-1.269-3.819-2.807-7.515-4.59-11.068l29.012-33.475l-32.83-32.83l-33.475,29.012&#10;&#9;&#9;&#9;c-3.552-1.783-7.248-3.321-11.068-4.59L396.714,250h-46.429l-3.156,44.179c-3.819,1.269-7.515,2.807-11.068,4.59l-33.475-29.012&#10;&#9;&#9;&#9;l-32.83,32.83l29.012,33.475c-1.783,3.552-3.321,7.248-4.59,11.068L250,350.286v46.429l44.179,3.156&#10;&#9;&#9;&#9;c1.269,3.819,2.807,7.515,4.59,11.068l-29.012,33.475l32.83,32.83l33.475-29.012c3.552,1.783,7.248,3.321,11.068,4.59L350.286,497&#10;&#9;&#9;&#9;h46.429l3.156-44.179c3.819-1.269,7.515-2.807,11.068-4.59l33.475,29.012l32.83-32.83l-29.012-33.475&#10;&#9;&#9;&#9;c1.783-3.552,3.321-7.248,4.59-11.068L497,396.714z"/>
	</g>
</g>















</svg>
