<?xml version="1.0" standalone="no"?>
<!DOCTYPE svg PUBLIC "-//W3C//DTD SVG 20010904//EN"
 "http://www.w3.org/TR/2001/REC-SVG-20010904/DTD/svg10.dtd">
<svg version="1.0" xmlns="http://www.w3.org/2000/svg"
 width="513.000000pt" height="513.000000pt" viewBox="0 0 513.000000 513.000000"
 preserveAspectRatio="xMidYMid meet">

<g transform="translate(0.000000,513.000000) scale(0.100000,-0.100000)"
fill="#000000" stroke="none">
<path d="M2405 5120 c-1186 -72 -2175 -965 -2366 -2138 -70 -432 -25 -904 126
-1307 310 -826 1031 -1442 1890 -1614 187 -37 278 -46 505 -46 228 0 325 9
510 46 488 98 945 344 1300 699 128 128 215 235 325 400 219 328 348 674 406
1090 18 122 18 514 1 635 -81 570 -314 1056 -697 1454 -524 544 -1246 826
-2000 781z m1210 -1029 c44 -20 110 -87 126 -129 6 -15 139 -506 295 -1091
202 -753 285 -1079 285 -1116 0 -29 -7 -70 -16 -91 -20 -49 -76 -107 -123
-128 -21 -8 -460 -129 -977 -267 -799 -214 -947 -250 -987 -246 -82 10 -152
58 -189 128 -10 20 -147 518 -305 1105 -301 1121 -305 1137 -272 1215 22 51
71 103 116 123 21 10 454 129 963 266 987 265 1002 269 1084 231z m-2199
-1302 c54 -51 34 -137 -39 -163 -75 -27 -418 -116 -449 -116 -87 0 -122 140
-45 182 12 6 116 38 232 69 224 62 261 65 301 28z m104 -454 c78 -40 63 -156
-23 -184 -17 -6 -210 -58 -427 -116 -267 -71 -403 -104 -422 -100 -15 4 -39
20 -53 37 -33 39 -33 87 -1 125 22 25 65 39 438 140 227 61 423 112 436 112
13 1 36 -6 52 -14z m153 -495 c40 -45 33 -113 -16 -145 -28 -18 -643 -185
-682 -185 -65 0 -115 62 -100 123 14 55 40 66 377 158 215 58 335 87 358 84
23 -3 44 -15 63 -35z"/>
<path d="M2816 3639 c-286 -76 -530 -146 -542 -154 -12 -8 -30 -34 -39 -58
-16 -43 -16 -47 9 -138 27 -100 57 -141 112 -155 18 -5 184 35 543 131 284 76
535 146 558 155 74 32 90 97 53 224 -27 96 -70 137 -142 135 -18 0 -267 -63
-552 -140z m593 47 c29 -34 54 -177 33 -190 -4 -2 -245 -68 -535 -146 -405
-108 -531 -138 -546 -131 -12 7 -26 37 -40 88 -18 66 -19 80 -7 98 11 16 114
47 517 157 277 75 518 136 535 137 17 1 37 -5 43 -13z"/>
<path d="M2990 2992 c-338 -91 -616 -166 -617 -166 -1 -1 3 -19 9 -39 7 -22
17 -36 23 -33 7 2 284 77 616 166 332 89 605 163 607 165 6 5 -9 64 -16 68 -4
2 -284 -70 -622 -161z"/>
<path d="M2176 2918 c-7 -13 -39 -68 -71 -123 -31 -55 -60 -104 -65 -109 -5
-5 -37 7 -74 28 l-65 36 -14 -27 -15 -27 92 -53 c50 -28 94 -49 98 -45 12 13
178 304 178 313 0 8 -32 29 -44 29 -3 0 -12 -10 -20 -22z"/>
<path d="M3075 2635 l-600 -162 3 -33 c1 -19 5 -36 7 -38 4 -5 1212 316 1231
327 18 10 -3 71 -24 70 -9 -1 -287 -74 -617 -164z"/>
<path d="M2217 2481 c-96 -169 -80 -157 -158 -112 l-67 39 -11 -25 c-6 -13 -9
-28 -6 -33 6 -10 161 -100 172 -100 5 0 37 48 71 108 34 59 75 130 92 159 l30
52 -28 15 -29 15 -66 -118z"/>
<path d="M3186 2274 c-335 -90 -611 -166 -613 -168 -9 -9 10 -77 21 -73 6 2
286 78 622 168 l611 164 -10 37 c-5 21 -12 38 -16 37 -3 0 -280 -75 -615 -165z"/>
</g>
</svg>
