<?xml version="1.0" encoding="UTF-8" standalone="no"?>
<!-- Created with Inkscape (http://www.inkscape.org/) -->

<svg
   version="1.1"
   id="svg3066"
   xml:space="preserve"
   width="682.66669"
   height="682.66669"
   viewBox="0 0 682.66669 682.66669"
   xmlns="http://www.w3.org/2000/svg"
   xmlns:svg="http://www.w3.org/2000/svg"><defs
     id="defs3070"><clipPath
       clipPathUnits="userSpaceOnUse"
       id="clipPath3080"><path
         d="M 0,512 H 512 V 0 H 0 Z"
         id="path3078" /></clipPath></defs><g
     id="g3072"
     transform="matrix(1.3333333,0,0,-1.3333333,0,682.66667)"><g
       id="g3074"><g
         id="g3076"
         clip-path="url(#clipPath3080)"><g
           id="g3082"
           transform="translate(354.1748,15)"><path
             d="m 0,0 h -196.35 c -17.576,0 -31.825,14.249 -31.825,31.825 0,5.363 1.356,10.639 3.94,15.338 l 96.422,175.313 c 5.945,10.808 17.302,17.524 29.638,17.524 12.336,0 23.694,-6.716 29.639,-17.524 L 27.886,47.163 C 30.47,42.464 31.825,37.188 31.825,31.825 31.825,14.249 17.576,0 0,0 Z"
             style="fill:none;stroke:#000000;stroke-width:30;stroke-linecap:round;stroke-linejoin:round;stroke-miterlimit:10;stroke-dasharray:none;stroke-opacity:1"
             id="path3084" /></g><g
           id="g3086"
           transform="translate(222.667,467)"><path
             d="m 0,0 h 244.333 c 16.568,0 30,-13.432 30,-30 v -30"
             style="fill:none;stroke:#000000;stroke-width:30;stroke-linecap:round;stroke-linejoin:round;stroke-miterlimit:10;stroke-dasharray:none;stroke-opacity:1"
             id="path3088" /></g><g
           id="g3090"
           transform="translate(329.9004,157)"><path
             d="m 0,0 h 137.1 c 16.568,0 30,13.432 30,30 v 220 h -241 l -41.428,74.569 C -120.619,334.093 -130.657,340 -141.553,340 H -284.9 c -16.569,0 -30,-13.432 -30,-30 V 30 c 0,-16.568 13.431,-30 30,-30 h 137.099"
             style="fill:none;stroke:#000000;stroke-width:30;stroke-linecap:round;stroke-linejoin:round;stroke-miterlimit:10;stroke-dasharray:none;stroke-opacity:1"
             id="path3092" /></g><g
           id="g3094"
           transform="translate(256,115)"><path
             d="M 0,0 V 70"
             style="fill:none;stroke:#000000;stroke-width:30;stroke-linecap:round;stroke-linejoin:round;stroke-miterlimit:10;stroke-dasharray:none;stroke-opacity:1"
             id="path3096" /></g><g
           id="g3098"
           transform="translate(271,65)"><path
             d="m 0,0 c 0,-8.284 -6.716,-15 -15,-15 -8.284,0 -15,6.716 -15,15 0,8.284 6.716,15 15,15 C -6.716,15 0,8.284 0,0"
             style="fill:#000000;fill-opacity:1;fill-rule:nonzero;stroke:none"
             id="path3100" /></g></g></g></g></svg>
