<?xml version="1.0" encoding="UTF-8"?>
<svg version="1.1" xmlns="http://www.w3.org/2000/svg" width="500" height="500">
<path d="M0 0 C0.98033203 0.71542969 0.98033203 0.71542969 1.98046875 1.4453125 C20.23922148 15.95026976 27.11534025 39.93110805 33.00341797 61.38916016 C34.01750216 65.06341425 35.07212781 68.72454335 36.12890625 72.38671875 C36.79667019 74.7779771 37.46211183 77.16988543 38.125 79.5625 C38.44476807 80.66126465 38.76453613 81.7600293 39.09399414 82.89208984 C39.51539673 84.46337646 39.51539673 84.46337646 39.9453125 86.06640625 C40.19812988 86.97334229 40.45094727 87.88027832 40.71142578 88.81469727 C41.13042752 93.43966823 40.08397912 97.51452184 39 102 C38.80326691 102.82081558 38.60653381 103.64163116 38.40383911 104.48731995 C37.77790086 107.02807459 37.12776565 109.56138074 36.46875 112.09375 C36.23216675 113.00709106 35.9955835 113.92043213 35.75183105 114.8614502 C35.25585609 116.77099061 34.75832198 118.68012671 34.25927734 120.58886719 C33.49520183 123.5183966 32.74164473 126.45051261 31.98828125 129.3828125 C31.50324485 131.24495867 31.01759021 133.10694393 30.53125 134.96875 C30.19522766 136.28425842 30.19522766 136.28425842 29.85241699 137.62634277 C29.63879517 138.43478638 29.42517334 139.24322998 29.20507812 140.07617188 C29.02013794 140.78769409 28.83519775 141.49921631 28.64465332 142.2322998 C28 144 28 144 26 146 C23.33315537 138.42141498 21.24848684 130.71553806 19.19284821 122.95523643 C18.56392788 120.58317224 17.9306225 118.21231758 17.29608154 115.8417511 C15.49361998 109.10643163 13.69567511 102.36992943 11.90820312 95.63061523 C4.02073699 61.85890946 4.02073699 61.85890946 -11 31 C-11.59361328 30.08734375 -11.59361328 30.08734375 -12.19921875 29.15625 C-17.84401412 21.39218057 -27.8244268 17.45259734 -37 16 C-44.43355874 15.34888537 -51.58469162 15.93059806 -58.91259766 17.25 C-60.01796844 17.44802719 -60.01796844 17.44802719 -61.14566994 17.65005493 C-69.13868964 19.13579241 -76.94119606 21.21426686 -84.7734375 23.375 C-86.3844195 23.81324233 -87.99558612 24.25080649 -89.60691833 24.6877594 C-93.95761514 25.86960602 -98.30571956 27.06073035 -102.65332413 28.25389481 C-107.26846063 29.51906284 -111.88567878 30.77658987 -116.50268555 32.03491211 C-122.3931059 33.64088712 -128.28319498 35.24805242 -134.17222595 36.8591156 C-148.32315808 40.72983208 -162.48240924 44.56897596 -176.64571381 48.39415359 C-183.40030007 50.21942586 -190.15359232 52.04947877 -196.90679932 53.87984657 C-202.37995645 55.36304096 -207.85372621 56.84387891 -213.32904053 58.3190918 C-218.50903162 59.71499882 -223.68690341 61.11852186 -228.86335945 62.52747917 C-230.76206796 63.04291414 -232.66148972 63.55573079 -234.56170464 64.06558418 C-264.91975615 71.4358476 -264.91975615 71.4358476 -287.46484375 91.41796875 C-301.24709537 117.82396388 -288.80697245 148.58339154 -281.56982422 175.32040405 C-280.27609092 180.11148175 -278.99690582 184.90643941 -277.71679688 189.70117188 C-276.10886557 195.72074586 -274.49983994 201.7400158 -272.88504028 207.75775146 C-267.69219479 227.11051931 -262.58231221 246.4847611 -257.48388672 265.86257935 C-256.00054894 271.49937426 -254.51435026 277.13541217 -253.02734375 282.77124023 C-252.6584928 284.16922804 -252.6584928 284.16922804 -252.28219032 285.59545803 C-251.78467882 287.48102789 -251.287159 289.36659555 -250.78963089 291.25216103 C-247.18064341 304.93032368 -243.57552987 318.60949699 -239.97694206 332.29039955 C-237.85431436 340.35962407 -235.72917612 348.42818487 -233.60232735 356.49629784 C-232.34385654 361.27078482 -231.08667015 366.04560115 -229.83276367 370.82128906 C-228.6676425 375.25881142 -227.49906639 379.69541001 -226.32796288 384.13135719 C-225.90331357 385.74230376 -225.47989124 387.35357442 -225.05788612 388.96521568 C-216.95559484 423.48629522 -216.95559484 423.48629522 -195 450 C-187.99260059 453.8043472 -181.89250771 455.20846764 -173.9375 455.3125 C-172.9155957 455.35600586 -172.9155957 455.35600586 -171.87304688 455.40039062 C-153.12800833 455.61471384 -133.76405296 448.14730576 -115.80648804 443.29347992 C-112.75906746 442.47053628 -109.71066946 441.65124304 -106.66232491 440.83172989 C-81.83080448 434.15445732 -57.02095572 427.39645088 -32.21705246 420.61740494 C-29.5411652 419.88624794 -26.86509571 419.15576116 -24.18899536 418.42538452 C-7.69532485 413.92192373 8.7957755 409.404254 25.23347473 404.6998024 C27.13271852 404.15738289 29.03378843 403.62136969 30.93493652 403.08566284 C46.92808415 398.46693528 62.88228417 392.6360671 72.2421875 378.06640625 C80.64277632 362.82884186 77.29128521 343.70681686 72.83984375 327.7109375 C72.64874023 327.01395752 72.45763672 326.31697754 72.26074219 325.59887695 C71.72210687 323.68543694 71.14929753 321.78171078 70.57421875 319.87890625 C69.35916526 311.67109593 72.68282618 303.08588564 74.8203125 295.1796875 C75.08383514 294.19501495 75.34735779 293.21034241 75.61886597 292.1958313 C76.45129354 289.08808727 77.2880689 285.98153387 78.125 282.875 C78.69429972 280.75268175 79.26331284 278.6302866 79.83203125 276.5078125 C81.21804447 271.33764864 82.60761759 266.16845198 84 261 C86 262 86 262 86.8657074 264.46005249 C87.15422073 265.555242 87.44273407 266.65043152 87.73999023 267.77880859 C88.07050888 269.0187558 88.40102753 270.258703 88.74156189 271.53622437 C89.09768229 272.90684702 89.4533471 274.27758812 89.80859375 275.6484375 C90.17924923 277.05892396 90.55035529 278.46929207 90.92189026 279.87954712 C91.70306482 282.8525656 92.47818565 285.82708289 93.24926758 288.80273438 C94.22374963 292.56112173 95.21362965 296.3152418 96.20789719 300.06843567 C106.68840376 339.69938308 106.68840376 339.69938308 106.375 356.25 C106.36557373 357.07371094 106.35614746 357.89742188 106.34643555 358.74609375 C105.92918787 375.90145627 100.91880199 390.69006502 90 404 C89.47921875 404.63550781 88.9584375 405.27101563 88.421875 405.92578125 C77.65351312 417.75466362 60.76081752 425.04571156 45.78588867 429.72045898 C44.97701549 429.97399108 44.1681423 430.22752317 43.3347578 430.48873806 C31.84243422 434.03558664 20.21667864 437.11876917 8.60537744 440.2477715 C5.19048764 441.16896683 1.77686435 442.09483395 -1.63691711 443.02012634 C-8.12665645 444.77841795 -14.61747218 446.53270028 -21.10870725 448.28546089 C-29.02459554 450.42311896 -36.93905342 452.5660537 -44.85351562 454.70898438 C-53.27174027 456.98816451 -61.69020512 459.26644332 -70.10983276 461.54043579 C-72.8419487 462.27838721 -75.57405662 463.01636829 -78.30615234 463.75439453 C-78.97218153 463.93430726 -79.63821071 464.11421999 -80.3244226 464.29958463 C-89.67110408 466.8248388 -99.01387265 469.36418684 -108.35400391 471.91357422 C-111.63338333 472.80724108 -114.91283188 473.70065385 -118.1923008 474.59399223 C-120.20471999 475.1430672 -122.21677889 475.69346487 -124.22842979 476.24534798 C-152.74445555 484.06845889 -181.75190693 491.07539148 -209.25 475.6875 C-242.74864726 455.02275007 -249.02085776 411.96314212 -258.168396 376.8253479 C-259.48126665 371.78906521 -260.80245726 366.75496623 -262.12304688 361.72070312 C-264.04973934 354.37352516 -265.97427234 347.02578867 -267.89591408 339.67728806 C-272.4988173 322.07675095 -277.13880431 304.48606303 -281.78351688 286.89652157 C-283.50678826 280.37008297 -285.22774866 273.84303822 -286.94750977 267.31567383 C-291.6391824 249.51053122 -296.33957081 231.70778633 -301.06439209 213.91140747 C-303.02698864 206.51890801 -304.9860252 199.12546643 -306.94427109 191.73181343 C-308.54047367 185.70645633 -310.14141584 179.68238544 -311.7459774 173.65924931 C-312.73562629 169.93970507 -313.72067468 166.21895369 -314.70448685 162.49786186 C-315.1590709 160.78227092 -315.61554142 159.06717848 -316.07410812 157.35264778 C-323.02175154 131.36517281 -327.59490921 103.91755906 -314.43359375 79.0390625 C-302.48714609 59.24842764 -284.11536345 48.14540459 -262.47265625 41.578125 C-260.82958496 41.07675018 -260.82958496 41.07675018 -259.15332031 40.56524658 C-240.17841606 34.86678057 -221.00716505 29.82838671 -201.88207626 24.66381073 C-196.17100808 23.12072448 -190.46118933 21.57302792 -184.7512207 20.02587891 C-175.55181443 17.53383696 -166.35159178 15.04483036 -157.15087891 12.55761719 C-146.03639508 9.55277422 -134.92488115 6.53710574 -123.81458664 3.51681519 C-118.66705692 2.11789308 -113.51897183 0.72101697 -108.37080956 -0.67557526 C-104.41334348 -1.74921094 -100.45612011 -2.82372011 -96.49951172 -3.9005127 C-92.85071947 -4.89339211 -89.20106966 -5.88305413 -85.55072975 -6.87022781 C-83.62832305 -7.3909429 -81.70680192 -7.91492407 -79.7853241 -8.4390564 C-52.53202879 -15.79395769 -23.76879532 -17.99445522 0 0 Z " fill="#FFFFFF" transform="translate(349,15)"/>
<path d="M0 0 C5.75573008 3.68446389 10.17532381 8.53638577 12.0703125 15.1953125 C12.64069976 20.81807644 11.4717297 25.6423278 10.10986328 31.04882812 C9.88336153 31.9719706 9.65685978 32.89511307 9.42349434 33.84622955 C7.00947779 43.60959085 4.42617901 53.32763479 1.8125 63.0390625 C1.28796844 64.99685828 0.76370515 66.95472595 0.23968506 68.91265869 C-0.87733314 73.08411002 -1.99612776 77.25507898 -3.11639404 81.42565918 C-4.90035344 88.06716748 -6.6802133 94.70977031 -8.45947266 101.35253906 C-10.63891179 109.48832527 -12.81927204 117.62386346 -15.0008831 125.75906754 C-20.52160013 146.34605375 -26.02860389 166.93670134 -31.53281212 187.52810669 C-33.21078211 193.80537684 -34.88928949 200.08250263 -36.56886101 206.35934448 C-37.10013792 208.34551631 -37.63106031 210.33178301 -38.161623 212.31814575 C-39.45807245 217.17110415 -40.7593626 222.02264612 -42.07168579 226.87133789 C-44.53308309 235.99139642 -46.92955525 245.11816851 -49.14951897 254.30041122 C-50.22345465 258.7288752 -51.32666956 263.14983728 -52.43159866 267.57065582 C-52.94539654 269.66120987 -53.44516545 271.75527614 -53.92890549 273.8529892 C-57.20777916 288.05341156 -62.04836694 298.39648357 -71.3183012 309.69333935 C-73.17307771 311.97548691 -74.88020295 314.35092828 -76.57421875 316.75390625 C-78.10510434 318.87590892 -79.63738114 320.99683271 -81.17358398 323.11499023 C-83.54392408 326.38517835 -85.90233292 329.65936385 -88.1953125 332.984375 C-89.23945313 334.48097656 -89.23945313 334.48097656 -90.3046875 336.0078125 C-91.17287109 337.27818359 -91.17287109 337.27818359 -92.05859375 338.57421875 C-93.7421875 340.4453125 -93.7421875 340.4453125 -95.83203125 341.34765625 C-96.46238281 341.37988281 -97.09273438 341.41210938 -97.7421875 341.4453125 C-100.15752554 339.02997446 -100.17842614 337.94509845 -100.671875 334.6171875 C-100.82567627 333.60390381 -100.97947754 332.59062012 -101.13793945 331.54663086 C-101.29609131 330.4406958 -101.45424316 329.33476074 -101.6171875 328.1953125 C-101.78500732 327.05392822 -101.95282715 325.91254395 -102.12573242 324.73657227 C-102.4844493 322.27378215 -102.83834251 319.81028572 -103.18798828 317.34619141 C-103.56333618 314.70420519 -103.94331809 312.06341251 -104.33154297 309.42333984 C-104.92090503 305.41187743 -105.48914668 301.39770546 -106.0546875 297.3828125 C-106.23821777 296.13016602 -106.42174805 294.87751953 -106.61083984 293.58691406 C-106.77406738 292.39420898 -106.93729492 291.20150391 -107.10546875 289.97265625 C-107.25282471 288.92843506 -107.40018066 287.88421387 -107.55200195 286.80834961 C-108.08832123 277.32465514 -105.3310932 268.50689658 -102.8515625 259.4609375 C-102.43911614 257.93618562 -102.02732202 256.41125719 -101.61611938 254.88616943 C-100.72224661 251.57545267 -99.82441671 248.26584434 -98.92352295 244.95703125 C-96.68452283 236.73215049 -94.46651231 228.50159264 -92.24563217 220.27180481 C-91.44175138 217.29380359 -90.63706214 214.31602159 -89.83230591 211.33825684 C-84.12923995 190.22481616 -78.51724685 169.08730351 -72.906394 147.94920826 C-68.92446341 132.9489402 -64.93009831 117.95198211 -60.93580627 102.95500183 C-60.34504556 100.73676999 -59.75430139 98.51853374 -59.16357422 96.30029297 C-58.87540675 95.21820085 -58.58723928 94.13610872 -58.29033947 93.02122593 C-56.3786611 85.84085656 -54.47155192 78.65928539 -52.56689453 71.47705078 C-50.42760312 63.41033241 -48.28094707 55.34562456 -46.12353897 47.28373146 C-45.0538367 43.28561412 -43.98777828 39.28662005 -42.93157959 35.28491211 C-41.97110192 31.64611468 -41.00044051 28.01019925 -40.02139091 24.37635612 C-39.50825678 22.46127012 -39.00610765 20.54325106 -38.50440979 18.62513733 C-36.24968304 10.31746277 -34.09878574 4.46933081 -26.7421875 -0.5546875 C-18.65179574 -4.47303055 -8.04447592 -3.79656784 0 0 Z " fill="#FF6624" transform="translate(460.7421875,36.5546875)"/>
<path d="M0 0 C3.79049707 1.42749981 7.27122456 3.16236542 10.8125 5.125 C11.78832031 5.66382812 12.76414062 6.20265625 13.76953125 6.7578125 C14.50558594 7.16773437 15.24164063 7.57765625 16 8 C15.31142951 11.64190504 13.77267882 14.47576581 11.97265625 17.69921875 C11.34915283 18.8176416 10.72564941 19.93606445 10.08325195 21.08837891 C9.75281891 21.67596985 9.42238586 22.26356079 9.0819397 22.86895752 C8.05483462 24.70117399 7.0404188 26.53996319 6.02807617 28.38037109 C3.08307374 33.70641967 0.12231638 38.96334967 -3.359375 43.96484375 C-3.842854 44.68260986 -4.32633301 45.40037598 -4.82446289 46.13989258 C-6.1875 48.125 -6.1875 48.125 -7.55639648 49.83081055 C-9.8291028 53.19804542 -10.07971705 55.37718014 -9.56030273 59.43530273 C-8.77730694 63.14403801 -7.76769454 66.78419545 -6.72799683 70.42810059 C-5.95728593 73.15090216 -5.23114685 75.88275845 -4.51391602 78.62011719 C-3.46188237 82.6323703 -2.4030811 86.64264781 -1.33398438 90.65039062 C-1.06416748 91.66206299 -0.79435059 92.67373535 -0.51635742 93.71606445 C0.04262679 95.80431092 0.60420863 97.89186355 1.16821289 99.97875977 C1.99190034 103.03177777 2.80357093 106.08778126 3.61328125 109.14453125 C3.99592888 110.54285942 3.99592888 110.54285942 4.38630676 111.96943665 C4.61372055 112.83521835 4.84113434 113.70100006 5.07543945 114.59301758 C5.27877396 115.35004471 5.48210846 116.10707184 5.69160461 116.88703918 C6.03210986 119.21999965 5.72018431 120.77332919 5 123 C-5.5242497 125.89413457 -16.0505728 128.78058627 -26.57964134 131.65714359 C-31.46820942 132.99296936 -36.35601276 134.33146923 -41.2421875 135.67602539 C-45.95426267 136.97256894 -50.66818922 138.26215962 -55.38350296 139.54687309 C-57.1855863 140.03918762 -58.98697857 140.53403878 -60.78767014 141.03141975 C-63.30248618 141.725596 -65.81956915 142.41085613 -68.33740234 143.09399414 C-69.08762161 143.30330566 -69.83784088 143.51261719 -70.61079407 143.72827148 C-75.77189568 145.11405216 -75.77189568 145.11405216 -78 144 C-78.90291462 141.21781528 -79.68486986 138.47283315 -80.41430664 135.64404297 C-80.64707809 134.76756607 -80.87984955 133.89108917 -81.11967468 132.98805237 C-81.89112234 130.07479855 -82.65079701 127.1586136 -83.41015625 124.2421875 C-83.94239343 122.21998703 -84.47523319 120.19794507 -85.00865173 118.17605591 C-86.12740876 113.92856645 -87.24069334 109.6796929 -88.34985352 105.4296875 C-89.76961349 99.99023146 -91.19984984 94.55360237 -92.63385868 89.1178875 C-93.73601385 84.93735915 -94.83401557 80.75574923 -95.93063164 76.5737648 C-96.45637291 74.56971907 -96.98305369 72.56591956 -97.51069832 70.56237411 C-98.24948103 67.75338216 -98.98302089 64.94307281 -99.71508789 62.13232422 C-99.93276825 61.30814499 -100.15044861 60.48396576 -100.37472534 59.6348114 C-101.54987711 55.09738457 -102.43251754 50.65374893 -103 46 C-95.58513442 43.4449242 -88.09343413 41.27492213 -80.5390625 39.171875 C-78.63778091 38.64197968 -78.63778091 38.64197968 -76.6980896 38.10137939 C-74.03444057 37.35995155 -71.37016418 36.62082273 -68.70556641 35.8828125 C-65.29054199 34.9363225 -61.87844356 33.97968757 -58.46686745 33.02085495 C-55.20129336 32.10552554 -51.93247223 31.20202605 -48.6640625 30.296875 C-47.43910065 29.95114441 -46.21413879 29.60541382 -44.95205688 29.24920654 C-43.82012909 28.93848206 -42.68820129 28.62775757 -41.52197266 28.30761719 C-40.52541656 28.03020691 -39.52886047 27.75279663 -38.50210571 27.46697998 C-36 27 -36 27 -33 28 C-34.79344373 31.45974704 -36.64116408 34.88750545 -38.5 38.3125 C-39.0053125 39.28896484 -39.510625 40.26542969 -40.03125 41.27148438 C-44.45209549 49.31189712 -44.45209549 49.31189712 -48.609375 50.9375 C-50.06527597 51.32187041 -51.53028438 51.67239624 -53 52 C-55.03799695 52.60289605 -57.07432926 53.21143488 -59.109375 53.82421875 C-61.32186979 54.44903149 -63.5354385 55.07005241 -65.75 55.6875 C-66.87277344 56.00783203 -67.99554688 56.32816406 -69.15234375 56.65820312 C-70.23128906 56.96048828 -71.31023437 57.26277344 -72.421875 57.57421875 C-73.39737305 57.84838623 -74.37287109 58.12255371 -75.37792969 58.4050293 C-78 59 -78 59 -82 59 C-81.69449219 60.02867187 -81.38898438 61.05734375 -81.07421875 62.1171875 C-75.26679806 81.95448139 -70.1941623 101.99568086 -65 122 C-54.9262059 120.52366811 -45.26691035 117.66748909 -35.5 114.875 C-33.03763903 114.17250007 -30.57488363 113.47156514 -28.11071777 112.77542114 C-26.58823168 112.34521491 -25.06677427 111.91134691 -23.54650879 111.47335815 C-20.59945874 110.63980485 -18.07943841 110 -15 110 C-17.64 100.1 -20.28 90.2 -23 80 C-28.25273103 88.35941099 -28.25273103 88.35941099 -33 97 C-37.24280159 96.07694553 -40.70223256 94.08163938 -44.4375 91.9375 C-45.13746094 91.53990479 -45.83742187 91.14230957 -46.55859375 90.73266602 C-53.13391392 86.97374487 -59.58756026 83.02973525 -66 79 C-65.06758496 77.08085447 -64.12885525 75.16477614 -63.1875 73.25 C-62.66542969 72.18265625 -62.14335937 71.1153125 -61.60546875 70.015625 C-60.2383308 67.44766758 -58.82284537 65.25529217 -57 63 C-51.03347646 64.57013777 -46.17090975 67.75029782 -41 71 C-35.05588743 61.08382161 -29.33741473 51.05909456 -23.75 40.9375 C-18.66375434 31.7295742 -13.49366621 22.58351925 -8.1875 13.5 C-7.59485352 12.48542725 -7.00220703 11.47085449 -6.39160156 10.42553711 C-4.32283619 6.89884552 -2.26845704 3.40268557 0 0 Z " fill="#FFFFFF" transform="translate(206,99)"/>
<path d="M0 0 C1.8746854 2.8120281 2.51369289 4.464468 3.2890625 7.66796875 C3.61777344 9.00698242 3.61777344 9.00698242 3.953125 10.37304688 C4.17484375 11.30181641 4.3965625 12.23058594 4.625 13.1875 C4.85445312 14.12787109 5.08390625 15.06824219 5.3203125 16.03710938 C5.88552569 18.35683851 6.44519925 20.67776258 7 23 C1.82868735 25.00515025 -3.31692669 26.7440148 -8.68164062 28.1628418 C-9.41132994 28.35930738 -10.14101925 28.55577297 -10.89282036 28.75819206 C-13.31299363 29.40887735 -15.73461553 30.05399484 -18.15625 30.69921875 C-19.90030138 31.16716922 -21.64424599 31.63551773 -23.38809204 32.10423279 C-27.13122868 33.10964078 -30.87496588 34.11276783 -34.61920166 35.11407471 C-43.61669124 37.52047899 -52.61101982 39.93865286 -61.60541153 42.35660553 C-63.68491039 42.91559849 -65.76444717 43.47445041 -67.84402084 44.03316498 C-83.45935343 48.22883344 -99.06561513 52.45683585 -114.6640625 56.71484375 C-115.65836525 56.9862512 -116.652668 57.25765865 -117.67710114 57.53729057 C-126.36204862 59.90843137 -135.04625988 62.2822607 -143.72973633 64.65878296 C-149.03047594 66.10950584 -154.33146092 67.55932745 -159.6328125 69.0078125 C-160.4554232 69.23258333 -161.27803391 69.45735416 -162.1255722 69.68893623 C-175.05957302 73.22065409 -188.01202396 76.67131786 -201 80 C-201.47985407 78.56563208 -201.95925944 77.13111405 -202.43847656 75.6965332 C-202.70549377 74.89770218 -202.97251099 74.09887115 -203.24761963 73.27583313 C-204.1344469 70.59331913 -204.97066371 67.90324839 -205.75 65.1875 C-206.01296875 64.29417969 -206.2759375 63.40085937 -206.546875 62.48046875 C-207.02289005 59.87469671 -206.71597044 58.50027202 -206 56 C-205.40061111 55.83746735 -204.80122223 55.67493469 -204.18367004 55.50747681 C-160.09963598 43.55277109 -116.02321854 31.57008629 -71.94851637 19.58103085 C-69.80981663 18.99927008 -67.67111526 18.4175153 -65.53241348 17.83576202 C-56.00725323 15.24479542 -46.48212932 12.6536952 -36.95703125 10.0625 C-35.71074951 9.72347027 -34.46446777 9.38444054 -33.18041992 9.03513718 C-29.6577853 8.07685035 -26.13516455 7.11851254 -22.61254883 6.16015625 C-21.59309079 5.88282969 -20.57363276 5.60550312 -19.52328205 5.31977272 C-13.01483955 3.54901192 -6.50715937 1.77547016 0 0 Z " fill="#FFFFFF" transform="translate(343,215)"/>
<path d="M0 0 C1.51796645 5.38145295 -0.14738555 9.76008322 -1.5625 15.0625 C-1.92311523 16.57166992 -1.92311523 16.57166992 -2.29101562 18.11132812 C-2.54689453 19.07619141 -2.80277344 20.04105469 -3.06640625 21.03515625 C-3.29271729 21.9156665 -3.51902832 22.79617676 -3.75219727 23.70336914 C-5.91260068 27.67967806 -10.03037353 28.68951592 -14.18856812 30.02101135 C-15.34240997 30.32675583 -16.49625183 30.63250031 -17.68505859 30.94750977 C-18.65768316 31.20817954 -18.65768316 31.20817954 -19.6499567 31.47411537 C-21.81454237 32.05264751 -23.98145435 32.62192606 -26.1484375 33.19140625 C-27.71696686 33.60894422 -29.28532679 34.02711912 -30.85353088 34.44587708 C-34.24277978 35.34969392 -37.6330338 36.24959811 -41.0241394 37.14642334 C-49.25140281 39.32238874 -57.47379805 41.51663999 -65.69664574 43.70922089 C-68.6252011 44.48989406 -71.55397106 45.26975879 -74.48274231 46.04962158 C-89.5643573 50.0683384 -104.63037254 54.14317169 -119.69140625 58.23828125 C-121.90950116 58.84106408 -124.1276001 59.4438321 -126.34570312 60.04658508 C-135.03720389 62.40895554 -143.7284863 64.77211125 -152.41790771 67.14212036 C-157.52259195 68.53436323 -162.62819802 69.92317428 -167.7344799 71.30954552 C-169.62357955 71.82320398 -171.51230541 72.33823929 -173.40063667 72.85471535 C-175.98223612 73.5607113 -178.56504198 74.26210981 -181.14819336 74.96240234 C-181.90643087 75.17100671 -182.66466839 75.37961107 -183.4458828 75.59453678 C-186.38923376 76.38823065 -188.93607747 77 -192 77 C-193.00427892 73.54289448 -194.0026944 70.08412303 -195 66.625 C-195.28617188 65.64015625 -195.57234375 64.6553125 -195.8671875 63.640625 C-196.13789063 62.69960938 -196.40859375 61.75859375 -196.6875 60.7890625 C-197.06455078 59.48509521 -197.06455078 59.48509521 -197.44921875 58.15478516 C-198 56 -198 56 -198 54 C-157.46492991 42.68059053 -116.86805258 31.60242585 -76.22485352 20.67773438 C-72.64336649 19.71493834 -69.06191001 18.75202877 -65.48046875 17.7890625 C-64.61050577 17.55519585 -63.74054279 17.32132919 -62.8442173 17.08037567 C-41.88075447 11.44344411 -20.93930314 5.72591894 0 0 Z " fill="#FFFFFF" transform="translate(347,267)"/>
<path d="M0 0 C3.63 13.53 7.26 27.06 11 41 C8.18146853 43.81853147 4.85941221 44.33895979 1.10961914 45.35424805 C0.29484604 45.58047852 -0.51992706 45.80670898 -1.35939026 46.03979492 C-4.05935179 46.7873592 -6.7619325 47.5248966 -9.46484375 48.26171875 C-11.33819453 48.77657471 -13.21144875 49.29178214 -15.08460999 49.80732727 C-19.01343829 50.88688824 -22.94361536 51.96136126 -26.87475586 53.0324707 C-31.91959666 54.40758731 -36.96053652 55.79643847 -42.00051022 57.18927288 C-45.86867876 58.25642097 -49.73897853 59.31566198 -53.60995674 60.37256813 C-55.46985262 60.8815379 -57.32903301 61.39312955 -59.18748283 61.90735435 C-61.7829227 62.62435672 -64.38107066 63.33053531 -66.98022461 64.03393555 C-67.75175873 64.24945572 -68.52329285 64.46497589 -69.31820679 64.68702698 C-74.65733435 66.11422188 -74.65733435 66.11422188 -78 65 C-78.99829155 62.22830663 -79.79367218 59.57605986 -80.515625 56.73046875 C-80.73571228 55.89792068 -80.95579956 55.06537262 -81.18255615 54.20759583 C-81.64578959 52.44298698 -82.10266729 50.67669945 -82.55371094 48.90893555 C-83.24557916 46.20477879 -83.96097828 43.5076782 -84.6796875 40.81054688 C-85.12642404 39.09672473 -85.57178219 37.38254258 -86.015625 35.66796875 C-86.33735687 34.45683662 -86.33735687 34.45683662 -86.66558838 33.22123718 C-87.62181715 29.42211492 -88.16849945 26.74608517 -87 23 C-75.95271873 19.9982164 -64.9047094 16.99912925 -53.85575294 14.00351715 C-48.72573725 12.61256673 -43.59598051 11.22067597 -38.46679688 9.82666016 C-33.5202004 8.48230481 -28.57294836 7.14038825 -23.62522507 5.80018616 C-21.73427979 5.2875159 -19.84357557 4.77395565 -17.95311356 4.25950623 C-15.31262984 3.54111473 -12.67131966 2.82584458 -10.02978516 2.11132812 C-9.24216293 1.89626114 -8.45454071 1.68119415 -7.64305115 1.45960999 C-2.22810432 0 -2.22810432 0 0 0 Z " fill="#FFFFFF" transform="translate(250,345)"/>
<path d="M0 0 C0.81542969 1.68652344 0.81542969 1.68652344 1.421875 3.859375 C1.64230469 4.64570312 1.86273438 5.43203125 2.08984375 6.2421875 C2.30769531 7.06976563 2.52554688 7.89734375 2.75 8.75 C3.09998047 9.96816406 3.09998047 9.96816406 3.45703125 11.2109375 C4.66868574 15.665763 5.00024657 18.44397519 4 23 C-6.01386681 25.7058696 -16.02831593 28.40957229 -26.04350185 31.11055565 C-30.69456957 32.36496844 -35.34543798 33.62011003 -39.99584961 34.87695312 C-44.48873193 36.09119218 -48.98213936 37.30346982 -53.47590828 38.51442337 C-55.18517734 38.97538932 -56.89426017 39.43704642 -58.60314751 39.89942551 C-61.00763835 40.54988609 -63.41279635 41.19782398 -65.81811523 41.84521484 C-66.51511536 42.0343898 -67.21211548 42.22356476 -67.93023682 42.41847229 C-72.92335337 43.75843008 -77.94616197 44.91249851 -83 46 C-83.86949872 42.94157342 -84.7194528 39.87832947 -85.5625 36.8125 C-85.80935547 35.94818359 -86.05621094 35.08386719 -86.31054688 34.19335938 C-86.53935547 33.35224609 -86.76816406 32.51113281 -87.00390625 31.64453125 C-87.21861572 30.87471924 -87.4333252 30.10490723 -87.65454102 29.31176758 C-88.05508088 26.63140578 -87.58197289 24.62819931 -87 22 C-76.10230925 18.97395693 -65.2021487 15.95699949 -54.29871655 12.95170498 C-49.23621926 11.55602849 -44.17463557 10.15720429 -39.11499023 8.7512207 C-34.23465345 7.39518759 -29.35211465 6.04737869 -24.4679203 4.70530891 C-22.60233603 4.19112156 -20.73757276 3.67394601 -18.87364769 3.15377617 C-16.26836198 2.42725571 -13.66039318 1.7112923 -11.05151367 0.99780273 C-10.27683746 0.77914047 -9.50216125 0.56047821 -8.70401001 0.33518982 C-3.34215648 -1.11405216 -3.34215648 -1.11405216 0 0 Z " fill="#FFFFFF" transform="translate(317,113)"/>
<path d="M0 0 C0.8397028 2.91496831 1.67196003 5.8317186 2.5 8.75 C2.85771484 9.9875 2.85771484 9.9875 3.22265625 11.25 C3.44824219 12.04921875 3.67382812 12.8484375 3.90625 13.671875 C4.11572266 14.4050293 4.32519531 15.13818359 4.54101562 15.89355469 C5 18 5 18 5 22 C-6.02960679 25.00327003 -17.06030806 28.00248217 -28.09243488 30.99648285 C-33.21475884 32.3867642 -38.33669159 33.77845366 -43.45776367 35.17333984 C-48.39758232 36.51880069 -53.33838451 37.86059048 -58.27989769 39.19981384 C-60.16734691 39.71203816 -62.05443465 40.22559631 -63.94115639 40.74049377 C-66.57873006 41.46006127 -69.21753569 42.17492507 -71.85668945 42.88867188 C-73.03272987 43.21127235 -73.03272987 43.21127235 -74.23252869 43.54039001 C-77.24167737 44.3499621 -79.8686212 45 -83 45 C-84.98 37.74 -86.96 30.48 -89 23 C-85.57199581 20.71466387 -82.22523695 19.79983288 -78.30322266 18.73754883 C-77.52077682 18.52107193 -76.73833099 18.30459503 -75.93217468 18.08155823 C-73.34437984 17.3675025 -70.75440117 16.66179892 -68.1640625 15.95703125 C-66.36424286 15.46441475 -64.56446931 14.97162984 -62.76473999 14.47868347 C-58.99135805 13.44677187 -55.21676509 12.4194293 -51.44140625 11.39477539 C-46.60393185 10.08108296 -41.7707443 8.75230789 -36.9384861 7.41957569 C-33.22248203 6.39720664 -29.50380974 5.38483107 -25.7843132 4.37524986 C-24.00117112 3.88956362 -22.21899498 3.40031648 -20.43782425 2.90744972 C-17.94644489 2.219258 -15.45167183 1.54508242 -12.95556641 0.87426758 C-12.2208461 0.66809814 -11.48612579 0.46192871 -10.72914124 0.24951172 C-6.81256557 -0.78588495 -3.90651967 -1.20376665 0 0 Z " fill="#FFFFFF" transform="translate(331,166)"/>
</svg>
