<?xml version="1.0" standalone="no"?>
<!DOCTYPE svg PUBLIC "-//W3C//DTD SVG 20010904//EN"
 "http://www.w3.org/TR/2001/REC-SVG-20010904/DTD/svg10.dtd">
<svg version="1.0" xmlns="http://www.w3.org/2000/svg"
 width="513.000000pt" height="513.000000pt" viewBox="0 0 513.000000 513.000000"
 preserveAspectRatio="xMidYMid meet">

<g transform="translate(0.000000,513.000000) scale(0.100000,-0.100000)"
fill="#000000" stroke="none">
<path d="M2405 5120 c-1186 -72 -2175 -965 -2366 -2138 -94 -580 17 -1194 307
-1690 375 -641 996 -1088 1709 -1231 187 -37 278 -46 505 -46 228 0 325 9 510
46 488 98 945 344 1300 699 128 128 215 235 325 400 219 328 348 674 406 1090
18 122 18 514 1 635 -58 408 -191 765 -402 1084 -512 774 -1374 1206 -2295
1151z m730 -822 c192 -63 291 -203 384 -545 l49 -182 -49 -182 c-27 -101 -52
-185 -54 -187 -4 -5 -14 28 -80 273 -114 420 -151 514 -229 581 -23 19 -65 42
-95 51 -108 31 -168 19 -846 -162 -913 -245 -868 -230 -956 -312 -71 -66 -93
-130 -86 -253 4 -82 26 -172 155 -655 83 -308 205 -761 271 -1006 78 -294 131
-469 152 -513 82 -169 202 -221 409 -178 111 23 1336 351 1425 382 78 27 158
80 194 130 58 80 65 208 21 382 l-22 88 48 185 c27 102 52 185 55 185 4 0 21
-55 39 -122 18 -68 48 -181 67 -253 26 -98 36 -158 40 -245 9 -190 -23 -288
-130 -394 -63 -64 -166 -122 -282 -161 -94 -31 -1390 -375 -1450 -385 -188
-31 -358 14 -474 123 -47 45 -113 149 -145 231 -15 38 -133 463 -262 945 -333
1241 -314 1165 -315 1284 0 62 7 126 16 162 35 131 136 246 278 314 90 44 125
54 937 271 506 135 616 162 705 174 55 7 169 -6 230 -26z m938 -235 c43 -26
77 -78 77 -120 0 -19 -18 -100 -39 -181 -135 -504 -474 -1749 -479 -1758 -37
-61 -239 -324 -249 -324 -16 0 -17 4 -47 232 l-25 186 113 419 c63 230 155
571 206 758 164 609 200 734 212 756 7 12 31 30 53 41 49 23 130 19 178 -9z
m-935 -965 l153 -573 -54 -194 -53 -194 19 -134 c11 -73 17 -139 14 -145 -4
-12 -184 -65 -191 -57 -5 6 -466 1730 -466 1744 0 7 68 30 178 59 97 26 188
51 202 56 14 5 30 9 35 9 6 1 79 -257 163 -571z m-350 -773 c78 -292 142 -536
142 -542 0 -6 -24 -18 -52 -27 -142 -40 -369 -98 -372 -95 -4 4 -283 1043
-288 1073 -3 17 22 26 207 76 116 31 213 54 216 51 3 -3 70 -245 147 -536z
m-421 -465 c29 -107 53 -202 53 -211 0 -12 -48 -29 -212 -72 -117 -31 -213
-55 -213 -54 -4 6 -107 399 -109 413 -1 13 37 27 194 70 107 29 204 52 215 51
17 -2 27 -30 72 -197z"/>
</g>
</svg>
