<?xml version="1.0" encoding="UTF-8" standalone="no"?>
<!-- Created with Inkscape (http://www.inkscape.org/) -->

<svg
   version="1.1"
   id="svg1173"
   xml:space="preserve"
   width="682.66669"
   height="682.66669"
   viewBox="0 0 682.66669 682.66669"
   xmlns="http://www.w3.org/2000/svg"
   xmlns:svg="http://www.w3.org/2000/svg"><defs
     id="defs1177"><clipPath
       clipPathUnits="userSpaceOnUse"
       id="clipPath1187"><path
         d="M 0,512 H 512 V 0 H 0 Z"
         id="path1185" /></clipPath></defs><g
     id="g1179"
     transform="matrix(1.3333333,0,0,-1.3333333,0,682.66667)"><g
       id="g1181"><g
         id="g1183"
         clip-path="url(#clipPath1187)"><g
           id="g1189"
           transform="translate(276,95)"><path
             d="m 0,0 h -231 c -16.568,0 -30,13.432 -30,30 v 342 c 0,16.568 13.432,30 30,30 h 422 c 16.568,0 30,-13.432 30,-30 V 30 C 221,13.432 207.568,0 191,0 h -31"
             style="fill:none;stroke:#000000;stroke-width:30;stroke-linecap:round;stroke-linejoin:round;stroke-miterlimit:10;stroke-dasharray:none;stroke-opacity:1"
             id="path1191" /></g><g
           id="g1193"
           transform="translate(76,287)"><path
             d="M 0,0 H 170"
             style="fill:none;stroke:#000000;stroke-width:30;stroke-linecap:round;stroke-linejoin:round;stroke-miterlimit:10;stroke-dasharray:none;stroke-opacity:1"
             id="path1195" /></g><g
           id="g1197"
           transform="translate(76,227)"><path
             d="M 0,0 H 170"
             style="fill:none;stroke:#000000;stroke-width:30;stroke-linecap:round;stroke-linejoin:round;stroke-miterlimit:10;stroke-dasharray:none;stroke-opacity:1"
             id="path1199" /></g><g
           id="g1201"
           transform="translate(76,167)"><path
             d="M 0,0 H 110"
             style="fill:none;stroke:#000000;stroke-width:30;stroke-linecap:round;stroke-linejoin:round;stroke-miterlimit:10;stroke-dasharray:none;stroke-opacity:1"
             id="path1203" /></g><g
           id="g1205"
           transform="translate(141.1602,432.3149)"><path
             d="m 0,0 c -7.183,4.852 -15.841,7.685 -25.16,7.685 -24.853,0 -45,-20.147 -45,-45 0,-24.853 20.147,-45 45,-45 24.852,0 38.846,20.147 38.846,45 h -26.923"
             style="fill:none;stroke:#000000;stroke-width:25;stroke-linecap:round;stroke-linejoin:round;stroke-miterlimit:10;stroke-dasharray:none;stroke-opacity:1"
             id="path1207" /></g><g
           id="g1209"
           transform="translate(196.083,439.9067)"><path
             d="M 0,0 V -88.445"
             style="fill:none;stroke:#000000;stroke-width:25;stroke-linecap:round;stroke-linejoin:round;stroke-miterlimit:10;stroke-dasharray:none;stroke-opacity:1"
             id="path1211" /></g><g
           id="g1213"
           transform="translate(257.917,395)"><path
             d="M 0,0 C 0,-24.798 -13.763,-44.42 -35.599,-44.802 -42.867,-44.929 -61.651,-45 -61.651,-45 c 0,0 -0.118,32.599 -0.118,45.099 0,10.266 -0.065,44.901 -0.065,44.901 h 25.489 C -12.395,45 0,24.798 0,0 Z"
             style="fill:none;stroke:#000000;stroke-width:25;stroke-linecap:round;stroke-linejoin:round;stroke-miterlimit:10;stroke-dasharray:none;stroke-opacity:1"
             id="path1215" /></g><g
           id="g1217"
           transform="translate(403.1943,392.9551)"><path
             d="M 0,0 37.806,-42.955"
             style="fill:none;stroke:#000000;stroke-width:25;stroke-linecap:round;stroke-linejoin:round;stroke-miterlimit:10;stroke-dasharray:none;stroke-opacity:1"
             id="path1219" /></g><g
           id="g1221"
           transform="translate(392.3408,440)"><path
             d="M 0,0 V -90"
             style="fill:none;stroke:#000000;stroke-width:25;stroke-linecap:round;stroke-linejoin:round;stroke-miterlimit:10;stroke-dasharray:none;stroke-opacity:1"
             id="path1223" /></g><g
           id="g1225"
           transform="translate(441,416.6099)"><path
             d="m 0,0 c 0,-12.918 -11.327,-23.39 -24.714,-23.39 -6.639,0 -23.749,-0.103 -23.749,-0.103 0,0 -0.107,16.982 -0.107,23.493 0,5.348 -0.06,23.39 -0.06,23.39 h 23.916 C -11.327,23.39 0,12.918 0,0 Z"
             style="fill:none;stroke:#000000;stroke-width:25;stroke-linecap:round;stroke-linejoin:round;stroke-miterlimit:10;stroke-dasharray:none;stroke-opacity:1"
             id="path1227" /></g><g
           id="g1229"
           transform="translate(300.5225,440)"><path
             d="M 0,0 V -90"
             style="fill:none;stroke:#000000;stroke-width:25;stroke-linecap:round;stroke-linejoin:round;stroke-miterlimit:10;stroke-dasharray:none;stroke-opacity:1"
             id="path1231" /></g><g
           id="g1233"
           transform="translate(351.4775,414.6021)"><path
             d="m 0,0 c 0,-14.027 -11.868,-25.398 -25.896,-25.398 -6.956,0 -24.884,-0.112 -24.884,-0.112 0,0 -0.113,18.439 -0.113,25.51 0,5.807 -0.062,25.398 -0.062,25.398 h 25.059 C -11.868,25.398 0,14.027 0,0 Z"
             style="fill:none;stroke:#000000;stroke-width:25;stroke-linecap:round;stroke-linejoin:round;stroke-miterlimit:10;stroke-dasharray:none;stroke-opacity:1"
             id="path1235" /></g><g
           id="g1237"
           transform="translate(296,155)"><path
             d="m 0,0 h 120 c 11.046,0 20,-8.954 20,-20 v -100 c 0,-11.046 -8.954,-20 -20,-20 H 0 c -11.046,0 -20,8.954 -20,20 v 100 c 0,11.046 8.954,20 20,20 z"
             style="fill:none;stroke:#000000;stroke-width:30;stroke-linecap:round;stroke-linejoin:round;stroke-miterlimit:10;stroke-dasharray:none;stroke-opacity:1"
             id="path1239" /></g><g
           id="g1241"
           transform="translate(356,255)"><path
             d="m 0,0 v 0 c 33.137,0 60,-26.863 60,-60 v -40 H -60 v 40 c 0,33.137 26.863,60 60,60 z"
             style="fill:none;stroke:#000000;stroke-width:30;stroke-linecap:round;stroke-linejoin:round;stroke-miterlimit:10;stroke-dasharray:none;stroke-opacity:1"
             id="path1243" /></g><g
           id="g1245"
           transform="translate(324.1807,85)"><path
             d="M 0,0 21.213,-21.213 63.639,21.213"
             style="fill:none;stroke:#000000;stroke-width:30;stroke-linecap:round;stroke-linejoin:round;stroke-miterlimit:10;stroke-dasharray:none;stroke-opacity:1"
             id="path1247" /></g></g></g></g></svg>
