<svg version="1.1" id="Capa_1" xmlns="http://www.w3.org/2000/svg" xmlns:xlink="http://www.w3.org/1999/xlink" x="0px" y="0px" viewBox="0 0 512 512" style="enable-background:new 0 0 512 512;" xml:space="preserve">
<g>
	<path style="fill:none;stroke:#000000;stroke-width:30;stroke-linecap:round;stroke-linejoin:round;stroke-miterlimit:10;" d="&#10;&#9;&#9;M461.583,213.094c-5.425-26.129-15.779-50.421-29.929-72.006l0.054-0.118l15.917-34.169L405.2,64.374L371.03,80.292l-0.12,0.054&#10;&#9;&#9;c-21.586-14.15-45.877-24.503-72.005-29.929L286,15h-60l-12.906,35.417c-26.128,5.425-50.419,15.779-72.005,29.929l-0.12-0.054&#10;&#9;&#9;L106.8,64.374L64.374,106.8l15.917,34.169l0.054,0.118c-14.15,21.586-24.503,45.878-29.929,72.006L15,226v60l35.417,12.906&#10;&#9;&#9;c5.426,26.129,15.779,50.42,29.929,72.006l-0.054,0.119L64.374,405.2l42.426,42.426l34.169-15.917l0.119-0.054&#10;&#9;&#9;c21.586,14.15,45.877,24.503,72.006,29.929L226,497h60l12.906-35.417c26.129-5.426,50.42-15.779,72.006-29.929l0.119,0.054&#10;&#9;&#9;l34.169,15.917l42.426-42.426l-15.917-34.169l-0.054-0.119c14.15-21.586,24.503-45.877,29.929-72.006L497,286v-60L461.583,213.094z&#10;&#9;&#9;"/>
	
		<circle style="fill:none;stroke:#000000;stroke-width:30;stroke-linecap:round;stroke-linejoin:round;stroke-miterlimit:10;" cx="256" cy="256" r="150"/>
	
		<polyline style="fill:none;stroke:#000000;stroke-width:30;stroke-linecap:round;stroke-linejoin:round;stroke-miterlimit:10;" points="&#10;&#9;&#9;316,286 346,256 316,226 &#9;"/>
	
		<polyline style="fill:none;stroke:#000000;stroke-width:30;stroke-linecap:round;stroke-linejoin:round;stroke-miterlimit:10;" points="&#10;&#9;&#9;196,286 166,256 196,226 &#9;"/>
	
		<line style="fill:none;stroke:#000000;stroke-width:30;stroke-linecap:round;stroke-linejoin:round;stroke-miterlimit:10;" x1="236" y1="336" x2="276" y2="176"/>
</g>
<g>
</g>
<g>
</g>
<g>
</g>
<g>
</g>
<g>
</g>
<g>
</g>
<g>
</g>
<g>
</g>
<g>
</g>
<g>
</g>
<g>
</g>
<g>
</g>
<g>
</g>
<g>
</g>
<g>
</g>
</svg>