<?xml version="1.0" encoding="UTF-8" standalone="no"?>
<!-- Created with Inkscape (http://www.inkscape.org/) -->
<svg xmlns="http://www.w3.org/2000/svg" xmlns:svg="http://www.w3.org/2000/svg" version="1.1" id="svg1443" width="682.66669" height="682.66669" viewBox="0 0 682.66669 682.66669">
  <defs id="defs1447">
    <clipPath clipPathUnits="userSpaceOnUse" id="clipPath1457">
      <path d="M 0,512 H 512 V 0 H 0 Z" id="path1455"/>
    </clipPath>
  </defs>
  <mask id="custom"><rect id="bg" x="0" y="0" width="100%" height="100%" fill="white"/><g transform="matrix(1.3333333,0,0,-1.3333333,0,682.66667)"/></mask><g mask="url(#custom)"><g id="g1449" transform="matrix(1.3333333,0,0,-1.3333333,0,682.66667)">
    <g id="g1451">
      <g id="g1453" clip-path="url(#clipPath1457)">
        <g id="g1459" transform="translate(496.7744,283.9111)">
          <path d="m 0,0 c -0.411,3.917 -2.427,7.489 -5.565,9.867 l -35.831,27.9 c -0.892,0.674 -1.269,1.835 -0.945,2.905 l 13.401,44.217 c 1.142,3.77 0.673,7.843 -1.295,11.256 -1.969,3.41 -5.263,5.853 -9.098,6.749 l -44.997,10.505 c -1.09,0.255 -1.905,1.161 -2.044,2.271 l -5.744,45.846 c -0.489,3.908 -2.574,7.439 -5.761,9.753 -3.185,2.316 -7.188,3.21 -11.056,2.466 l -45.378,-8.704 c -1.099,-0.21 -2.212,0.285 -2.791,1.243 l -23.898,39.545 c -3.608,5.97 -11.311,8.827 -18.692,5.413 -0.155,-0.071 -0.303,-0.158 -0.442,-0.255 l -39.112,-27.244 c -0.918,-0.639 -2.137,-0.639 -3.055,0 l -37.914,26.408 c -3.233,2.25 -7.253,3.062 -11.103,2.244 -3.853,-0.819 -7.194,-3.196 -9.231,-6.568 l -23.893,-39.546 c -0.579,-0.958 -1.693,-1.453 -2.791,-1.243 l -45.379,8.704 c -3.867,0.741 -7.87,-0.151 -11.056,-2.466 -3.185,-2.315 -5.271,-5.844 -5.761,-9.752 l -5.743,-45.847 c -0.139,-1.109 -0.955,-2.016 -2.045,-2.271 l -46.483,-10.853 c -0.171,-0.056 -0.343,-0.112 -0.514,-0.168 -7.409,-3.24 -10.407,-10.837 -8.393,-17.486 l 13.398,-44.219 c 0.325,-1.07 -0.052,-2.23 -0.943,-2.905 L -477.182,8.96 c -0.133,-0.121 -0.268,-0.243 -0.402,-0.363 -5.464,-5.968 -5.124,-14.142 -0.571,-19.404 l 29.223,-34.946 c 0.733,-0.846 0.86,-2.059 0.32,-3.038 l -23.03,-41.79 c -0.072,-0.163 -0.144,-0.327 -0.216,-0.491 -2.566,-7.666 1.071,-14.998 7.371,-17.955 l 41.825,-19.63 c 1.013,-0.476 1.622,-1.531 1.527,-2.646 l -3.913,-46.04 c -0.334,-3.924 0.972,-7.811 3.609,-10.738 2.633,-2.927 6.364,-4.632 10.3,-4.711 l 46.199,-0.921 c 1.118,-0.022 2.104,-0.738 2.47,-1.796 l 15.151,-43.648 c 1.29,-3.721 4.063,-6.742 7.661,-8.343 3.599,-1.604 7.699,-1.643 11.329,-0.114 l 42.579,17.948 c 1.031,0.435 2.224,0.181 2.988,-0.635 l 32.625,-34.814 c 0.135,-0.12 0.27,-0.242 0.405,-0.363 6.508,-4.81 14.595,-3.612 19.352,1.462 l 31.595,33.714 c 0.765,0.817 1.958,1.071 2.988,0.636 l 42.576,-17.948 c 3.629,-1.528 7.73,-1.487 11.327,0.114 3.598,1.601 6.373,4.62 7.664,8.342 l 15.151,43.649 c 0.367,1.058 1.352,1.774 2.472,1.796 l 47.704,0.951 c 0.178,0.02 0.358,0.038 0.537,0.058 7.926,1.616 12.452,8.429 11.863,15.361 l -3.913,46.04 c -0.095,1.115 0.515,2.17 1.527,2.646 l 41.829,19.63 c 3.567,1.673 6.279,4.749 7.496,8.493 1.216,3.744 0.829,7.827 -1.073,11.277 l -22.301,40.467 c -0.541,0.979 -0.413,2.191 0.319,3.038 l 29.227,34.946 C -0.816,-7.829 0.41,-3.916 0,0 Z" style="fill:none;stroke:#000000;stroke-width:30;stroke-linecap:butt;stroke-linejoin:miter;stroke-miterlimit:10;stroke-dasharray:none;stroke-opacity:1" id="path1461"/>
        </g>
        <g id="g1463" transform="translate(370,256)">
          <path d="m 0,0 c 0,-62.081 -50.327,-112.408 -112.408,-112.408 -62.082,0 -112.409,50.327 -112.409,112.408 0,62.081 50.327,112.408 112.409,112.408 C -50.327,112.408 0,62.081 0,0 Z" style="fill:none;stroke:#000000;stroke-width:30;stroke-linecap:butt;stroke-linejoin:miter;stroke-miterlimit:10;stroke-dasharray:none;stroke-opacity:1" id="path1465"/>
        </g>
        <g id="g1467" transform="translate(304.8184,284.9521)">
          <path d="M 0,0 -69.786,-69.786" style="fill:none;stroke:#000000;stroke-width:30;stroke-linecap:round;stroke-linejoin:miter;stroke-miterlimit:10;stroke-dasharray:none;stroke-opacity:1" id="path1469"/>
        </g>
        <g id="g1471" transform="translate(208.3652,241.834)">
          <path d="M 0,0 26.667,-26.668" style="fill:none;stroke:#000000;stroke-width:30;stroke-linecap:round;stroke-linejoin:miter;stroke-miterlimit:10;stroke-dasharray:none;stroke-opacity:1" id="path1473"/>
        </g>
      </g>
    </g>
  </g></g>
</svg>
