<svg height="511pt" viewBox="-60 1 511 511.9995" width="511pt" xmlns="http://www.w3.org/2000/svg"><path d="m375.5 61h-35.148438c-49.339843 0-98.269531-20.632812-134.246093-56.605469-5.855469-5.859375-15.355469-5.859375-21.210938 0-35.976562 35.972657-84.90625 56.605469-134.246093 56.605469h-35.148438c-8.285156 0-15 6.714844-15 15v180c0 60.042969 18.828125 110.761719 57.554688 155.054688 32.453124 37.117187 73.367187 62.960937 106.242187 83.726562 8.160156 5.152344 15.867187 10.019531 22.882813 14.699219 2.519531 1.679687 5.421874 2.519531 8.320312 2.519531s5.800781-.839844 8.320312-2.519531c6.792969-4.527344 14.359376-9.296875 22.367188-14.34375 65.433594-41.242188 164.3125-103.566407 164.3125-239.136719v-180c0-8.285156-6.714844-15-15-15zm-15 195c0 119.019531-86.875 173.773438-150.308594 213.753906-5.082031 3.207032-9.992187 6.296875-14.6875 9.320313-4.863281-3.136719-9.933594-6.339844-15.1875-9.65625-63.226562-39.941407-149.816406-94.636719-149.816406-213.417969v-165h20.148438c52.507812 0 104.527343-20.054688 144.851562-55.457031 40.324219 35.402343 92.34375 55.457031 144.851562 55.457031h20.148438zm0 0"/><path d="m195.5 121c-74.4375 0-135 60.558594-135 135 0 74.4375 60.5625 135 135 135s135-60.5625 135-135c0-74.441406-60.558594-135-135-135zm0 240c-57.898438 0-105-47.101562-105-105s47.101562-105 105-105 105 47.101562 105 105-47.101562 105-105 105zm0 0"/><path d="m244.894531 215.394531-64.394531 64.390625-34.394531-34.390625c-5.855469-5.859375-15.355469-5.859375-21.210938 0-5.859375 5.855469-5.859375 15.355469 0 21.210938l45 45c2.925781 2.929687 6.765625 4.394531 10.605469 4.394531s7.679688-1.464844 10.605469-4.394531l75-75c5.859375-5.859375 5.859375-15.355469 0-21.214844-5.855469-5.855469-15.355469-5.855469-21.210938.003906zm0 0"/></svg>