<?xml version="1.0" encoding="UTF-8" standalone="no"?>
<!-- Created with Inkscape (http://www.inkscape.org/) -->

<svg
   version="1.1"
   id="svg1365"
   xml:space="preserve"
   width="682.66669"
   height="682.66669"
   viewBox="0 0 682.66669 682.66669"
   xmlns="http://www.w3.org/2000/svg"
   xmlns:svg="http://www.w3.org/2000/svg"><defs
     id="defs1369"><clipPath
       clipPathUnits="userSpaceOnUse"
       id="clipPath1379"><path
         d="M 0,512 H 512 V 0 H 0 Z"
         id="path1377" /></clipPath></defs><g
     id="g1371"
     transform="matrix(1.3333333,0,0,-1.3333333,0,682.66667)"><g
       id="g1373"><g
         id="g1375"
         clip-path="url(#clipPath1379)"><g
           id="g1381"
           transform="translate(316,256)"><path
             d="m 0,0 c 0,-33.137 -26.863,-60 -60,-60 -33.137,0 -60,26.863 -60,60 0,33.137 26.863,60 60,60 C -26.863,60 0,33.137 0,0 Z"
             style="fill:none;stroke:#000000;stroke-width:30;stroke-linecap:round;stroke-linejoin:round;stroke-miterlimit:10;stroke-dasharray:none;stroke-opacity:1"
             id="path1383" /></g><g
           id="g1385"
           transform="translate(256,497)"><path
             d="M 0,0 -90,-90 H 90 Z"
             style="fill:none;stroke:#000000;stroke-width:30;stroke-linecap:round;stroke-linejoin:round;stroke-miterlimit:10;stroke-dasharray:none;stroke-opacity:1"
             id="path1387" /></g><g
           id="g1389"
           transform="translate(166,105)"><path
             d="M 0,0 90,-90 180,0 Z"
             style="fill:none;stroke:#000000;stroke-width:30;stroke-linecap:round;stroke-linejoin:round;stroke-miterlimit:10;stroke-dasharray:none;stroke-opacity:1"
             id="path1391" /></g><g
           id="g1393"
           transform="translate(407,346)"><path
             d="m 0,0 v -180 l 90,90 z"
             style="fill:none;stroke:#000000;stroke-width:30;stroke-linecap:round;stroke-linejoin:round;stroke-miterlimit:10;stroke-dasharray:none;stroke-opacity:1"
             id="path1395" /></g><g
           id="g1397"
           transform="translate(15,256)"><path
             d="M 0,0 90,-90 V 90 Z"
             style="fill:none;stroke:#000000;stroke-width:30;stroke-linecap:round;stroke-linejoin:round;stroke-miterlimit:10;stroke-dasharray:none;stroke-opacity:1"
             id="path1399" /></g></g></g></g></svg>
