<?xml version="1.0" encoding="UTF-8" standalone="no"?>
<!-- Created with Inkscape (http://www.inkscape.org/) -->

<svg
   version="1.1"
   id="svg975"
   xml:space="preserve"
   width="682.66669"
   height="682.66669"
   viewBox="0 0 682.66669 682.66669"
   xmlns="http://www.w3.org/2000/svg"
   xmlns:svg="http://www.w3.org/2000/svg"><defs
     id="defs979"><clipPath
       clipPathUnits="userSpaceOnUse"
       id="clipPath989"><path
         d="M 0,512 H 512 V 0 H 0 Z"
         id="path987" /></clipPath></defs><g
     id="g981"
     transform="matrix(1.3333333,0,0,-1.3333333,0,682.66667)"><g
       id="g983"><g
         id="g985"
         clip-path="url(#clipPath989)"><g
           id="g991"
           transform="translate(421,497)"><path
             d="M 0,0 H -330"
             style="fill:none;stroke:#000000;stroke-width:30;stroke-linecap:round;stroke-linejoin:round;stroke-miterlimit:10;stroke-dasharray:none;stroke-opacity:1"
             id="path993" /></g><g
           id="g995"
           transform="translate(91,15)"><path
             d="M 0,0 H 330"
             style="fill:none;stroke:#000000;stroke-width:30;stroke-linecap:round;stroke-linejoin:round;stroke-miterlimit:10;stroke-dasharray:none;stroke-opacity:1"
             id="path997" /></g><g
           id="g999"
           transform="translate(372.7319,380.7019)"><path
             d="m 0,0 c -11.93,-2.616 -26.286,-4.702 -41.732,-4.702 -41.421,0 -75,15 -75,15 0,0 -33.579,15 -75,15 -19.871,0 -37.937,-3.452 -51.357,-7.044"
             style="fill:none;stroke:#000000;stroke-width:30;stroke-linecap:round;stroke-linejoin:round;stroke-miterlimit:10;stroke-dasharray:none;stroke-opacity:1"
             id="path1001" /></g><g
           id="g1003"
           transform="translate(151.5557,15)"><path
             d="m 0,0 c -19.001,15.923 -30.556,36.949 -30.556,60 0,113.137 270,247.863 270,361 0,23.051 -11.554,45.077 -30.555,61"
             style="fill:none;stroke:#000000;stroke-width:30;stroke-linecap:round;stroke-linejoin:round;stroke-miterlimit:10;stroke-dasharray:none;stroke-opacity:1"
             id="path1005" /></g><g
           id="g1007"
           transform="translate(152.0532,14.9292)"><path
             d="M 0,0 -0.498,0.071"
             style="fill:none;stroke:#000000;stroke-width:30;stroke-linecap:round;stroke-linejoin:round;stroke-miterlimit:10;stroke-dasharray:none;stroke-opacity:1"
             id="path1009" /></g><g
           id="g1011"
           transform="translate(359.9468,14.9292)"><path
             d="m 0,0 c -7.248,50.919 -73.947,91.071 -103.947,91.071 -30,0 -96.699,-40.152 -103.947,-91.071"
             style="fill:none;stroke:#000000;stroke-width:30;stroke-linecap:round;stroke-linejoin:round;stroke-miterlimit:10;stroke-dasharray:none;stroke-opacity:1"
             id="path1013" /></g><g
           id="g1015"
           transform="translate(360.4443,15)"><path
             d="M 0,0 -0.498,-0.071"
             style="fill:none;stroke:#000000;stroke-width:30;stroke-linecap:round;stroke-linejoin:round;stroke-miterlimit:10;stroke-dasharray:none;stroke-opacity:1"
             id="path1017" /></g><g
           id="g1019"
           transform="translate(151.5557,497)"><path
             d="m 0,0 c -19.001,-15.923 -30.556,-37.949 -30.556,-61 0,-113.137 270,-247.863 270,-361 0,-23.051 -11.554,-44.077 -30.555,-60"
             style="fill:none;stroke:#000000;stroke-width:30;stroke-linecap:round;stroke-linejoin:round;stroke-miterlimit:10;stroke-dasharray:none;stroke-opacity:1"
             id="path1021" /></g><g
           id="g1023"
           transform="translate(256,256)"><path
             d="M 0,0 V -60"
             style="fill:none;stroke:#000000;stroke-width:30;stroke-linecap:round;stroke-linejoin:round;stroke-miterlimit:10;stroke-dasharray:none;stroke-opacity:1"
             id="path1025" /></g><g
           id="g1027"
           transform="translate(256,136)"><path
             d="M 0,0 V -30"
             style="fill:none;stroke:#000000;stroke-width:30;stroke-linecap:round;stroke-linejoin:round;stroke-miterlimit:10;stroke-dasharray:none;stroke-opacity:1"
             id="path1029" /></g></g></g></g></svg>
