<?xml version="1.0" encoding="iso-8859-1"?>
<!-- Generator: Adobe Illustrator 19.0.0, SVG Export Plug-In . SVG Version: 6.00 Build 0)  -->
<svg version="1.1" id="Capa_1" xmlns="http://www.w3.org/2000/svg" xmlns:xlink="http://www.w3.org/1999/xlink" x="0px" y="0px"
	 viewBox="0 0 512 512" style="enable-background:new 0 0 512 512;" xml:space="preserve">
<g>
	<g>
		<path d="M487.44,101.581L396.671,5.635c-1.024-1.083-2.185-2.007-3.428-2.796C390.778,1.061,387.759,0,384.485,0
			c-0.154,0-0.303,0.019-0.455,0.023C383.882,0.019,383.735,0,383.586,0h-215.58c-36.477,0-66.155,29.677-66.155,66.156v4.086
			h-56.06c-14.422,0-26.155,11.733-26.155,26.155v129.408c0,14.422,11.733,26.155,26.155,26.155h56.059v193.886
			c0,36.477,29.677,66.155,66.155,66.155h258.205c36.477,0,66.155-29.677,66.155-66.155V113.959
			C492.365,109.332,490.614,104.936,487.44,101.581z M399.484,52.256l43.558,46.042H408.17c-4.79,0-8.687-3.896-8.687-8.687V52.256z
			 M49.632,221.963V100.237h228.118v121.726H49.632z M462.369,445.845c0,19.939-16.22,36.159-36.159,36.159H168.006
			c-19.938,0-36.159-16.221-36.159-36.159V251.959h149.746c14.422,0,26.155-11.732,26.155-26.155V96.397
			c0-14.422-11.733-26.155-26.155-26.155H131.847v-4.086c0-19.938,16.221-36.159,36.159-36.159h201.482v59.616
			c0,21.33,17.353,38.683,38.683,38.683h54.198V445.845z"/>
	</g>
</g>
<g>
	<g>
		<path d="M154.332,119.795c-1.546-0.965-3.4-1.449-5.562-1.449h-20.282c-1.778,0-3.129,0.773-4.057,2.318
			c-0.928,1.547-1.391,3.362-1.391,5.447c0,2.242,0.481,4.135,1.448,5.678c0.966,1.547,2.298,2.318,3.998,2.318h10.083v42.303
			c0,7.727-3.517,11.59-10.546,11.59c-2.165,0-3.96-0.348-5.39-1.043c-1.431-0.695-2.454-1.757-3.072-3.188
			c-0.619-1.429-1.024-2.608-1.217-3.535s-0.367-2.202-0.521-3.825c-0.31-3.631-3.285-5.447-8.924-5.447
			c-3.323,0-5.679,0.6-7.07,1.797c-1.391,1.199-2.086,3.459-2.086,6.78c0,7.495,2.725,13.406,8.171,17.732
			c5.446,4.328,12.418,6.49,20.919,6.49c8.267,0,14.969-2.202,20.108-6.606c5.137-4.403,7.706-11.318,7.706-20.745v-52.501
			C156.65,122.133,155.877,120.762,154.332,119.795z"/>
	</g>
</g>
<g>
	<g>
		<path d="M218.944,166.792c-1.817-3.555-4.076-6.317-6.78-8.288c-2.706-1.971-5.66-3.784-8.866-5.447
			c-3.208-1.661-6.162-3.014-8.866-4.057c-2.706-1.043-4.965-2.298-6.779-3.767c-1.816-1.467-2.725-3.09-2.725-4.867
			c0-1.931,0.966-3.573,2.898-4.925c1.93-1.351,4.827-2.028,8.692-2.028c3.631,0,6.953,0.735,9.967,2.202
			c3.014,1.469,4.983,2.203,5.91,2.203c2.24,0,4-1.1,5.273-3.298c1.274-2.198,1.913-4.316,1.913-6.359
			c0-2.148-0.869-3.978-2.608-5.492c-1.739-1.512-3.981-2.606-6.723-3.284c-2.743-0.677-5.214-1.136-7.417-1.375
			c-2.202-0.239-4.308-0.359-6.315-0.359c-8.19,0-15.183,2.029-20.977,6.084c-5.794,4.057-8.692,10.179-8.692,18.37
			c0,5.023,1.256,9.35,3.768,12.98c2.51,3.633,5.581,6.432,9.214,8.403c3.63,1.97,7.243,3.749,10.837,5.331
			c3.593,1.585,6.644,3.343,9.155,5.273c2.511,1.933,3.768,4.172,3.768,6.722c0,2.55-1.121,4.461-3.361,5.736
			c-2.242,1.275-4.868,1.913-7.882,1.913c-2.396,0-4.675-0.467-6.837-1.405c-2.164-0.937-3.846-1.974-5.042-3.115
			c-1.198-1.139-2.512-2.177-3.94-3.115c-1.431-0.937-2.724-1.406-3.883-1.406c-2.087,0-3.922,1.083-5.505,3.246
			c-1.585,2.164-2.376,4.328-2.376,6.49c0,3.865,2.781,7.341,8.345,10.431c5.562,3.092,12.091,4.636,19.586,4.636
			c8.653,0,15.646-2.219,20.977-6.657c5.331-4.438,7.997-10.641,7.997-18.609C221.669,174.403,220.76,170.347,218.944,166.792z"/>
	</g>
</g>
<g>
	<g>
		<path d="M240.172,400.557c-3.668,0-7.21-0.63-10.622-1.892c-3.415-1.261-5.119-3.305-5.119-6.132c0-0.907,0.382-4.74,1.146-11.503
			c0.765-6.762,1.146-10.798,1.146-12.112c0-2.219-0.611-4.312-1.834-6.28s-2.445-3.104-3.668-3.408
			c1.018-0.301,2.189-1.488,3.516-3.556c1.322-2.068,1.986-4.162,1.986-6.282c0-1.211-0.382-4.315-1.146-9.311
			c-0.764-4.995-1.146-8.098-1.146-9.311c0-3.527,1.757-6.05,5.272-7.564c3.516-1.514,7.004-2.271,10.47-2.271
			c2.24,0,3.997-1.03,5.272-3.093c1.272-2.063,1.91-4.362,1.91-6.903c0-3.066-1.02-5.63-3.057-7.694
			c-2.04-2.063-5.452-3.095-10.24-3.095c-8.252,0-15.894,2.825-22.924,8.47c-7.03,5.645-10.545,11.97-10.545,18.975
			c0,1.817,0.382,5.172,1.146,10.067c0.765,4.895,1.146,7.796,1.146,8.704c0,1.313-0.484,2.321-1.451,3.028
			c-0.971,0.707-2.014,1.211-3.134,1.514c-1.122,0.303-2.166,1.084-3.134,2.345c-0.969,1.261-1.451,3.104-1.451,5.525
			c0,2.421,0.482,4.314,1.451,5.676c0.968,1.363,2.012,2.197,3.134,2.498c1.12,0.303,2.163,0.833,3.134,1.59
			c0.967,0.757,1.451,1.841,1.451,3.253c0,0.91-0.382,4.618-1.146,11.128s-1.146,10.724-1.146,12.639
			c0,7.23,3.413,13.336,10.239,18.313c6.824,4.976,14.466,7.467,22.924,7.467c9.067,0,13.602-3.489,13.602-10.472
			c0-2.539-0.562-4.892-1.682-7.061C244.551,401.642,242.717,400.557,240.172,400.557z"/>
	</g>
</g>
<g>
	<g>
		<path d="M305.821,357.309c-2.293-2.343-5.019-3.516-8.177-3.516c-3.41,0-6.251,1.146-8.524,3.439
			c-2.273,2.293-3.408,5.069-3.408,8.329c0,3.16,1.161,5.91,3.487,8.252c2.323,2.345,5.139,3.516,8.445,3.516
			c3.158,0,5.884-1.17,8.177-3.516c2.293-2.343,3.439-5.093,3.439-8.252C309.26,362.405,308.114,359.654,305.821,357.309z"/>
	</g>
</g>
<g>
	<g>
		<path d="M304.923,399.107c-2.374-2.293-5.16-3.44-8.36-3.44c-3.2,0-5.963,1.146-8.283,3.439c-2.324,2.293-3.484,5.069-3.484,8.329
			c0,4.584,2.139,8.05,6.418,10.393l-3.821,8.252c-0.408,0.814-0.611,1.629-0.611,2.446c0,1.731,0.814,3.157,2.445,4.279
			c1.629,1.12,3.363,1.682,5.196,1.682c2.24,0,3.768-0.917,4.584-2.751c6.316-14.671,9.476-22.821,9.476-24.452
			C308.485,404.126,307.298,401.4,304.923,399.107z"/>
	</g>
</g>
<g>
	<g>
		<path d="M398.725,353.257c-0.969-1.264-2.013-2.045-3.132-2.348c-1.123-0.303-2.167-0.807-3.134-1.514
			c-0.97-0.707-1.452-1.715-1.452-3.028c0-0.908,0.382-3.809,1.146-8.704s1.146-8.25,1.146-10.067
			c0-7.004-3.516-13.329-10.546-18.975c-7.03-5.645-14.671-8.47-22.923-8.47c-4.79,0-8.203,1.032-10.24,3.095
			c-2.04,2.063-3.058,4.627-3.058,7.694c0,2.541,0.636,4.84,1.911,6.903c1.272,2.063,3.03,3.093,5.272,3.093
			c3.463,0,6.953,0.757,10.469,2.271c3.516,1.514,5.272,4.038,5.272,7.567c0,1.213-0.383,4.314-1.146,9.311
			c-0.765,4.995-1.146,8.1-1.146,9.311c0,2.121,0.662,4.214,1.986,6.282c1.324,2.068,2.496,3.255,3.516,3.556
			c-1.223,0.303-2.445,1.44-3.668,3.408c-1.223,1.968-1.834,4.063-1.834,6.28c0,1.313,0.382,5.349,1.146,12.111
			s1.146,10.596,1.146,11.503c0,2.828-1.708,4.871-5.12,6.132c-3.414,1.261-6.953,1.892-10.621,1.892
			c-2.548,0-4.382,1.084-5.502,3.253c-1.122,2.168-1.682,4.522-1.682,7.061c0,6.982,4.532,10.472,13.602,10.472
			c8.456,0,16.098-2.491,22.924-7.467c6.824-4.976,10.24-11.082,10.24-18.313c0-1.916-0.383-6.129-1.146-12.639
			c-0.765-6.509-1.146-10.218-1.146-11.128c0-1.412,0.482-2.496,1.452-3.253c0.967-0.757,2.011-1.287,3.134-1.59
			c1.119-0.301,2.163-1.135,3.133-2.498c0.967-1.361,1.451-3.255,1.451-5.676S399.691,354.517,398.725,353.257z"/>
	</g>
</g>
<g>
</g>
<g>
</g>
<g>
</g>
<g>
</g>
<g>
</g>
<g>
</g>
<g>
</g>
<g>
</g>
<g>
</g>
<g>
</g>
<g>
</g>
<g>
</g>
<g>
</g>
<g>
</g>
<g>
</g>
</svg>
