<?xml version="1.0" encoding="UTF-8" standalone="no"?>
<!-- Created with Inkscape (http://www.inkscape.org/) -->

<svg
   version="1.1"
   id="svg588"
   xml:space="preserve"
   width="682.66669"
   height="682.66669"
   viewBox="0 0 682.66669 682.66669"
   xmlns="http://www.w3.org/2000/svg"
   xmlns:svg="http://www.w3.org/2000/svg"><defs
     id="defs592"><clipPath
       clipPathUnits="userSpaceOnUse"
       id="clipPath602"><path
         d="M 0,512 H 512 V 0 H 0 Z"
         id="path600" /></clipPath></defs><g
     id="g594"
     transform="matrix(1.3333333,0,0,-1.3333333,0,682.66667)"><g
       id="g596"><g
         id="g598"
         clip-path="url(#clipPath602)"><g
           id="g604"
           transform="translate(215,355)"><path
             d="m 0,0 c 0,55.229 -44.772,100 -100,100 -55.228,0 -100,-44.771 -100,-100 0,-44.774 29.432,-82.663 70,-95.408 V -320 l 30,-20 50,60 -20,30 20,30 -20,30 v 94.592 C -29.432,-82.663 0,-44.774 0,0 Z"
             style="fill:none;stroke:#000000;stroke-width:30;stroke-linecap:round;stroke-linejoin:round;stroke-miterlimit:10;stroke-dasharray:none;stroke-opacity:1"
             id="path606" /></g><g
           id="g608"
           transform="translate(95,395)"><path
             d="M 0,0 H 40"
             style="fill:none;stroke:#000000;stroke-width:30;stroke-linecap:round;stroke-linejoin:round;stroke-miterlimit:10;stroke-dasharray:none;stroke-opacity:1"
             id="path610" /></g><g
           id="g612"
           transform="translate(115,395)"><path
             d="M 0,0 V 102"
             style="fill:none;stroke:#000000;stroke-width:30;stroke-linecap:round;stroke-linejoin:round;stroke-miterlimit:10;stroke-dasharray:none;stroke-opacity:1"
             id="path614" /></g><g
           id="g616"
           transform="translate(145,257.2241)"><path
             d="m 0,0 c 13.914,-2.991 28.49,-3.037 42.723,0.134 l 112.296,-194.503 35.981,-2.32 13.301,76.961 -32.321,15.981 2.321,35.981 -32.321,15.98 -47.295,81.92 c 28.76,31.321 35.304,78.85 12.917,117.625 C 84.541,187.703 38.085,205.71 -4.465,194.48"
             style="fill:none;stroke:#000000;stroke-width:30;stroke-linecap:round;stroke-linejoin:round;stroke-miterlimit:10;stroke-dasharray:none;stroke-opacity:1"
             id="path618" /></g><g
           id="g620"
           transform="translate(251.1118,267.5649)"><path
             d="m 0,0 c 6.811,3.776 13.22,8.367 19.065,13.734 l 194.503,-112.297 32.32,15.981 -26.962,73.302 -35.98,-2.321 -15.981,32.321 -35.981,-2.321 -81.919,47.296 c 9.247,41.506 -8.85,85.939 -47.626,108.326 -21.492,12.409 -45.675,15.927 -68.297,11.706"
             style="fill:none;stroke:#000000;stroke-width:30;stroke-linecap:round;stroke-linejoin:round;stroke-miterlimit:10;stroke-dasharray:none;stroke-opacity:1"
             id="path622" /></g></g></g></g></svg>
