<?xml version="1.0" encoding="UTF-8" standalone="no"?>
<!-- Created with Inkscape (http://www.inkscape.org/) -->

<svg
   version="1.1"
   id="svg1083"
   xml:space="preserve"
   width="682.66669"
   height="682.66669"
   viewBox="0 0 682.66669 682.66669"
   xmlns="http://www.w3.org/2000/svg"
   xmlns:svg="http://www.w3.org/2000/svg"><defs
     id="defs1087"><clipPath
       clipPathUnits="userSpaceOnUse"
       id="clipPath1097"><path
         d="M 0,512 H 512 V 0 H 0 Z"
         id="path1095" /></clipPath></defs><g
     id="g1089"
     transform="matrix(1.3333333,0,0,-1.3333333,0,682.66667)"><g
       id="g1091"><g
         id="g1093"
         clip-path="url(#clipPath1097)"><g
           id="g1099"
           transform="translate(405.9634,15)"><path
             d="m 0,0 h -299.927 c -17.003,0 -30.786,13.784 -30.786,30.787 v 239.676 c 0,17.003 13.783,30.787 30.786,30.787 L 0,301.25 c 17.003,0 30.787,-13.784 30.787,-30.787 V 30.787 C 30.787,13.784 17.003,0 0,0 Z"
             style="fill:none;stroke:#000000;stroke-width:30;stroke-linecap:round;stroke-linejoin:round;stroke-miterlimit:10;stroke-dasharray:none;stroke-opacity:1"
             id="path1101" /></g><g
           id="g1103"
           transform="translate(286.125,193.1502)"><path
             d="m 0,0 c 0,-16.638 -13.487,-30.125 -30.125,-30.125 -16.638,0 -30.125,13.487 -30.125,30.125 0,16.638 13.487,30.125 30.125,30.125 C -13.487,30.125 0,16.638 0,0 Z"
             style="fill:none;stroke:#000000;stroke-width:30;stroke-linecap:round;stroke-linejoin:round;stroke-miterlimit:10;stroke-dasharray:none;stroke-opacity:1"
             id="path1105" /></g><g
           id="g1107"
           transform="translate(256,163.0252)"><path
             d="M 0,0 V -60.25"
             style="fill:none;stroke:#000000;stroke-width:30;stroke-linecap:round;stroke-linejoin:round;stroke-miterlimit:10;stroke-dasharray:none;stroke-opacity:1"
             id="path1109" /></g><g
           id="g1111"
           transform="translate(376.375,316.25)"><path
             d="m 0,0 h -60 v 67.416 c 0,29.456 -23.878,53.334 -53.334,53.334 h -14.082 c -29.456,0 -53.334,-23.878 -53.334,-53.334 V 0 h -60 v 60.375 c 0,66.481 53.894,120.375 120.375,120.375 v 0 C -53.894,180.75 0,126.856 0,60.375 Z"
             style="fill:none;stroke:#000000;stroke-width:30;stroke-linecap:round;stroke-linejoin:round;stroke-miterlimit:10;stroke-dasharray:none;stroke-opacity:1"
             id="path1113" /></g></g></g></g></svg>
