<?xml version="1.0" encoding="UTF-8" standalone="no"?>
<!-- Created with Inkscape (http://www.inkscape.org/) -->

<svg
   version="1.1"
   id="svg1728"
   xml:space="preserve"
   width="682.66669"
   height="682.66669"
   viewBox="0 0 682.66669 682.66669"
   xmlns="http://www.w3.org/2000/svg"
   xmlns:svg="http://www.w3.org/2000/svg"><defs
     id="defs1732"><clipPath
       clipPathUnits="userSpaceOnUse"
       id="clipPath1742"><path
         d="M 0,512 H 512 V 0 H 0 Z"
         id="path1740" /></clipPath></defs><g
     id="g1734"
     transform="matrix(1.3333333,0,0,-1.3333333,0,682.66667)"><g
       id="g1736"><g
         id="g1738"
         clip-path="url(#clipPath1742)"><g
           id="g1744"
           transform="translate(496,257)"><path
             d="M 0,0 -80,60 V 30 c -50.304,0 -95.976,-19.788 -130,-51.816 V 160 h 30 l -60,80 -60,-80 h 30 V 78.184 C -304.024,110.212 -349.697,130 -400,130 v 30 l -80,-60 80,-60 v 30 c 71.685,0 130,-58.32 130,-130 v -182 h 60 v 82 c 0,71.68 58.315,130 130,130 v -30 z"
             style="fill:none;stroke:#000000;stroke-width:30;stroke-linecap:round;stroke-linejoin:round;stroke-miterlimit:10;stroke-dasharray:none;stroke-opacity:1"
             id="path1746" /></g><g
           id="g1748"
           transform="translate(86,150)"><path
             d="M 0,0 H 80"
             style="fill:none;stroke:#000000;stroke-width:30;stroke-linecap:round;stroke-linejoin:round;stroke-miterlimit:10;stroke-dasharray:none;stroke-opacity:1"
             id="path1750" /></g><g
           id="g1752"
           transform="translate(46,150)"><path
             d="m 0,0 c 0,-8.284 -6.716,-15 -15,-15 -8.284,0 -15,6.716 -15,15 0,8.284 6.716,15 15,15 C -6.716,15 0,8.284 0,0"
             style="fill:#000000;fill-opacity:1;fill-rule:nonzero;stroke:none"
             id="path1754" /></g><g
           id="g1756"
           transform="translate(86,150)"><path
             d="M 0,0 H 80"
             style="fill:none;stroke:#000000;stroke-width:30;stroke-linecap:round;stroke-linejoin:round;stroke-miterlimit:10;stroke-dasharray:none;stroke-opacity:1"
             id="path1758" /></g><g
           id="g1760"
           transform="translate(46,150)"><path
             d="m 0,0 c 0,-8.284 -6.716,-15 -15,-15 -8.284,0 -15,6.716 -15,15 0,8.284 6.716,15 15,15 C -6.716,15 0,8.284 0,0"
             style="fill:#000000;fill-opacity:1;fill-rule:nonzero;stroke:none"
             id="path1762" /></g><g
           id="g1764"
           transform="translate(86,210)"><path
             d="M 0,0 H 80"
             style="fill:none;stroke:#000000;stroke-width:30;stroke-linecap:round;stroke-linejoin:round;stroke-miterlimit:10;stroke-dasharray:none;stroke-opacity:1"
             id="path1766" /></g><g
           id="g1768"
           transform="translate(46,210)"><path
             d="m 0,0 c 0,-8.284 -6.716,-15 -15,-15 -8.284,0 -15,6.716 -15,15 0,8.284 6.716,15 15,15 C -6.716,15 0,8.284 0,0"
             style="fill:#000000;fill-opacity:1;fill-rule:nonzero;stroke:none"
             id="path1770" /></g><g
           id="g1772"
           transform="translate(86,90)"><path
             d="M 0,0 H 80"
             style="fill:none;stroke:#000000;stroke-width:30;stroke-linecap:round;stroke-linejoin:round;stroke-miterlimit:10;stroke-dasharray:none;stroke-opacity:1"
             id="path1774" /></g><g
           id="g1776"
           transform="translate(46,90)"><path
             d="m 0,0 c 0,-8.284 -6.716,-15 -15,-15 -8.284,0 -15,6.716 -15,15 0,8.284 6.716,15 15,15 C -6.716,15 0,8.284 0,0"
             style="fill:#000000;fill-opacity:1;fill-rule:nonzero;stroke:none"
             id="path1778" /></g><g
           id="g1780"
           transform="translate(86,30)"><path
             d="M 0,0 H 80"
             style="fill:none;stroke:#000000;stroke-width:30;stroke-linecap:round;stroke-linejoin:round;stroke-miterlimit:10;stroke-dasharray:none;stroke-opacity:1"
             id="path1782" /></g><g
           id="g1784"
           transform="translate(46,30)"><path
             d="m 0,0 c 0,-8.284 -6.716,-15 -15,-15 -8.284,0 -15,6.716 -15,15 0,8.284 6.716,15 15,15 C -6.716,15 0,8.284 0,0"
             style="fill:#000000;fill-opacity:1;fill-rule:nonzero;stroke:none"
             id="path1786" /></g></g></g></g></svg>
