<?xml version="1.0" encoding="iso-8859-1"?>
<!-- Generator: Adobe Illustrator 19.0.0, SVG Export Plug-In . SVG Version: 6.00 Build 0)  -->
<svg version="1.1" id="Capa_1" xmlns="http://www.w3.org/2000/svg" xmlns:xlink="http://www.w3.org/1999/xlink" x="0px" y="0px"
	 viewBox="0 0 512 512" style="enable-background:new 0 0 512 512;" xml:space="preserve">
<g>
	<g>
		<path d="M268.35,95.152l-42.429-42.429c-5.857-5.858-15.356-5.858-21.214,0c-5.858,5.858-5.858,15.356,0,21.214l42.429,42.429
			c5.857,5.858,15.357,5.859,21.214,0C274.208,110.507,274.208,101.01,268.35,95.152z"/>
	</g>
</g>
<g>
	<g>
		<path d="M459.276,286.079l-42.429-42.429c-5.857-5.858-15.356-5.858-21.214,0c-5.857,5.858-5.857,15.356,0.001,21.214
			l42.429,42.429c2.929,2.929,6.768,4.394,10.606,4.394c3.838,0,7.678-1.464,10.606-4.394
			C465.134,301.435,465.134,291.938,459.276,286.079z"/>
	</g>
</g>
<g>
	<g>
		<path d="M459.277,52.723c-5.857-5.858-15.356-5.858-21.214,0l-42.429,42.429c-5.858,5.858-5.858,15.356,0,21.214
			c5.857,5.858,15.357,5.859,21.214,0l42.429-42.429C465.135,68.078,465.135,58.581,459.277,52.723z"/>
	</g>
</g>
<g>
	<g>
		<path d="M331.992,0.001c-8.284,0-15.001,6.716-15.001,15.001v60.002c0,8.284,6.716,15.001,15.001,15.001
			s15.001-6.716,15.001-15.001V15.001C346.993,6.717,340.277,0.001,331.992,0.001z"/>
	</g>
</g>
<g>
	<g>
		<path d="M496.999,165.008h-60.002c-8.284,0-15.001,6.716-15.001,15.001s6.716,15.001,15.001,15.001h60.002
			c8.284,0,15.001-6.716,15.001-15.001S505.284,165.008,496.999,165.008z"/>
	</g>
</g>
<g>
	<g>
		<path d="M374.42,158.793l-21.214-21.214c-17.589-17.589-46.054-17.589-63.643,0L13.158,413.985
			c-17.545,17.547-17.545,46.096,0.001,63.642l21.214,21.214c17.549,17.547,46.098,17.544,63.642,0L374.42,222.435
			C392.009,204.847,392.01,176.381,374.42,158.793z M76.801,477.626c-5.848,5.849-15.365,5.85-21.214,0l-21.214-21.214
			c-5.849-5.848-5.849-15.365,0-21.214l180.941-180.941l42.429,42.429L76.801,477.626z M353.205,201.223l-74.25,74.25
			l-42.429-42.429l74.251-74.25c5.864-5.863,15.351-5.863,21.214,0l21.214,21.215C359.069,185.872,359.069,195.359,353.205,201.223z
			"/>
	</g>
</g>
<g>
</g>
<g>
</g>
<g>
</g>
<g>
</g>
<g>
</g>
<g>
</g>
<g>
</g>
<g>
</g>
<g>
</g>
<g>
</g>
<g>
</g>
<g>
</g>
<g>
</g>
<g>
</g>
<g>
</g>
</svg>
