<?xml version="1.0" encoding="UTF-8"?>
<svg xmlns="http://www.w3.org/2000/svg" xmlns:xlink="http://www.w3.org/1999/xlink" version="1.1" id="Capa_1" x="0px" y="0px" viewBox="0 0 512 512" style="enable-background:new 0 0 512 512;" xml:space="preserve" width="512" height="512">
<g>
	<path style="fill:none;stroke:#000000;stroke-width:30;stroke-linecap:round;stroke-linejoin:round;stroke-miterlimit:10;" d="&#10;&#9;&#9;M166,151"/>
	<g>
		<path style="fill:none;stroke:#000000;stroke-width:30;stroke-linecap:round;stroke-linejoin:round;stroke-miterlimit:10;" d="&#10;&#9;&#9;&#9;M257.132,353.721L257.132,353.721c-23.431-23.431-61.421-23.431-84.853,0l-84.853,84.853c-11.716,11.716-30.711,11.716-42.426,0&#10;&#9;&#9;&#9;L23.787,417.36c-11.716-11.716-11.716-30.711,0-42.426l84.853-84.853c23.431-23.431,23.431-61.421,0-84.853l0,0L257.132,353.721z"/>
		
			<line style="fill:none;stroke:#000000;stroke-width:30;stroke-linecap:round;stroke-linejoin:round;stroke-miterlimit:10;" x1="172.279" y1="481" x2="108.64" y2="417.36"/>
		
			<line style="fill:none;stroke:#000000;stroke-width:30;stroke-linecap:round;stroke-linejoin:round;stroke-miterlimit:10;" x1="129.853" y1="396.147" x2="66.213" y2="332.508"/>
	</g>
	<path style="fill:none;stroke:#000000;stroke-width:30;stroke-linecap:round;stroke-linejoin:round;stroke-miterlimit:10;" d="&#10;&#9;&#9;M467,241H227c-16.569,0-30-13.431-30-30V61c0-16.569,13.431-30,30-30h240c16.569,0,30,13.431,30,30v150&#10;&#9;&#9;C497,227.569,483.569,241,467,241z"/>
	
		<polyline style="fill:none;stroke:#000000;stroke-width:30;stroke-linecap:round;stroke-linejoin:round;stroke-miterlimit:10;" points="&#10;&#9;&#9;206.788,38.83 347,151 487.212,38.83 &#9;"/>
	
		<line style="fill:none;stroke:#000000;stroke-width:30;stroke-linecap:round;stroke-linejoin:round;stroke-miterlimit:10;" x1="257" y1="181" x2="313.667" y2="124.333"/>
	
		<line style="fill:none;stroke:#000000;stroke-width:30;stroke-linecap:round;stroke-linejoin:round;stroke-miterlimit:10;" x1="380.333" y1="124.333" x2="437" y2="181"/>
	
		<polyline style="fill:none;stroke:#000000;stroke-width:30;stroke-linecap:round;stroke-linejoin:round;stroke-miterlimit:10;" points="&#10;&#9;&#9;376,301 346,301 346,331 316,331 &#9;"/>
	
		<polyline style="fill:none;stroke:#000000;stroke-width:30;stroke-linecap:round;stroke-linejoin:round;stroke-miterlimit:10;" points="&#10;&#9;&#9;136,91 136,121 106,121 106,151 &#9;"/>
</g>















</svg>
