<?xml version="1.0" encoding="UTF-8" standalone="no"?>
<!-- Created with Inkscape (http://www.inkscape.org/) -->

<svg
   version="1.1"
   id="svg1740"
   xml:space="preserve"
   width="682.66669"
   height="682.66669"
   viewBox="0 0 682.66669 682.66669"
   xmlns="http://www.w3.org/2000/svg"
   xmlns:svg="http://www.w3.org/2000/svg"><defs
     id="defs1744"><clipPath
       clipPathUnits="userSpaceOnUse"
       id="clipPath1754"><path
         d="M 0,512 H 512 V 0 H 0 Z"
         id="path1752" /></clipPath></defs><g
     id="g1746"
     transform="matrix(1.3333333,0,0,-1.3333333,0,682.66667)"><g
       id="g1748"><g
         id="g1750"
         clip-path="url(#clipPath1754)"><g
           id="g1756"
           transform="translate(26.1812,22.6357)"><path
             d="M 0,0 189.819,142.364"
             style="fill:none;stroke:#000000;stroke-width:30;stroke-linecap:round;stroke-linejoin:round;stroke-miterlimit:10;stroke-dasharray:none;stroke-opacity:1"
             id="path1758" /></g><g
           id="g1760"
           transform="translate(485.8188,22.6357)"><path
             d="M 0,0 -189.819,142.364"
             style="fill:none;stroke:#000000;stroke-width:30;stroke-linecap:round;stroke-linejoin:round;stroke-miterlimit:10;stroke-dasharray:none;stroke-opacity:1"
             id="path1762" /></g><g
           id="g1764"
           transform="translate(256,337)"><path
             d="M 0,0 C -22.092,0 -40,17.909 -40,40 -40,62.092 -22.092,80 0,80 22.092,80 40,62.092 40,40 40,17.909 22.092,0 0,0 Z m 100,40 c 0,7.458 -0.879,14.7 -2.427,21.692 l 21.35,12.328 -30,51.96 -21.412,-12.361 C 56.853,123.397 44.139,130.966 30,135.407 V 160 h -60 v -24.593 c -14.139,-4.441 -26.853,-12.01 -37.511,-21.788 l -21.412,12.361 -30,-51.96 21.35,-12.328 C -99.121,54.7 -100,47.458 -100,40 c 0,-7.458 0.879,-14.7 2.427,-21.692 l -21.35,-12.328 30,-51.96 21.412,12.362 C -56.853,-43.397 -44.139,-50.966 -30,-55.407 V -80 h 60 v 24.593 c 14.139,4.441 26.853,12.01 37.511,21.789 l 21.412,-12.362 30,51.96 -21.35,12.328 C 99.121,25.3 100,32.542 100,40 Z"
             style="fill:none;stroke:#000000;stroke-width:30;stroke-linecap:round;stroke-linejoin:round;stroke-miterlimit:10;stroke-dasharray:none;stroke-opacity:1"
             id="path1766" /></g><g
           id="g1768"
           transform="translate(153.2314,315)"><path
             d="m 0,0 h -107.231 c -16.569,0 -30,-13.432 -30,-30 v -240 c 0,-16.568 13.431,-30 30,-30 h 420 c 16.568,0 30,13.432 30,30 v 240 c 0,16.568 -13.432,30 -30,30 H 205.537"
             style="fill:none;stroke:#000000;stroke-width:30;stroke-linecap:round;stroke-linejoin:round;stroke-miterlimit:10;stroke-dasharray:none;stroke-opacity:1"
             id="path1770" /></g><g
           id="g1772"
           transform="translate(26.1812,307.3643)"><path
             d="M 0,0 229.819,-172.364 459.638,0"
             style="fill:none;stroke:#000000;stroke-width:30;stroke-linecap:round;stroke-linejoin:round;stroke-miterlimit:10;stroke-dasharray:none;stroke-opacity:1"
             id="path1774" /></g></g></g></g></svg>
