<?xml version="1.0" encoding="UTF-8" standalone="no"?>
<!-- Created with Inkscape (http://www.inkscape.org/) -->

<svg
   version="1.1"
   id="svg2967"
   xml:space="preserve"
   width="682.66669"
   height="682.66669"
   viewBox="0 0 682.66669 682.66669"
   xmlns="http://www.w3.org/2000/svg"
   xmlns:svg="http://www.w3.org/2000/svg"><defs
     id="defs2971"><clipPath
       clipPathUnits="userSpaceOnUse"
       id="clipPath2981"><path
         d="M 0,512 H 512 V 0 H 0 Z"
         id="path2979" /></clipPath></defs><g
     id="g2973"
     transform="matrix(1.3333333,0,0,-1.3333333,0,682.66667)"><g
       id="g2975"><g
         id="g2977"
         clip-path="url(#clipPath2981)"><g
           id="g2983"
           transform="translate(198.1584,183.5)"><path
             d="M 0,0 C 0,0 44.9,33.397 52.142,96.461"
             style="fill:none;stroke:#000000;stroke-width:30;stroke-linecap:round;stroke-linejoin:round;stroke-miterlimit:10;stroke-dasharray:none;stroke-opacity:1"
             id="path2985" /></g><g
           id="g2987"
           transform="translate(250.7624,286.115)"><path
             d="m 0,0 c 0,-23.409 -18.976,-42.385 -42.385,-42.385 -23.409,0 -42.385,18.976 -42.385,42.385 0,23.409 18.976,42.385 42.385,42.385 C -18.976,42.385 0,23.409 0,0 Z"
             style="fill:none;stroke:#000000;stroke-width:30;stroke-linecap:round;stroke-linejoin:round;stroke-miterlimit:10;stroke-dasharray:none;stroke-opacity:1"
             id="path2989" /></g><g
           id="g2991"
           transform="translate(75,328.5)"><path
             d="M 0,0 H 30.992 V -145"
             style="fill:none;stroke:#000000;stroke-width:30;stroke-linecap:round;stroke-linejoin:round;stroke-miterlimit:10;stroke-dasharray:none;stroke-opacity:1"
             id="path2993" /></g><g
           id="g2995"
           transform="translate(75,328.5)"><path
             d="M 0,0 H 30.992 V -145"
             style="fill:none;stroke:#000000;stroke-width:30;stroke-linecap:round;stroke-linejoin:round;stroke-miterlimit:10;stroke-dasharray:none;stroke-opacity:1"
             id="path2997" /></g><path
           d="M 497,123.5 H 15 v 265 h 482 z"
           style="fill:none;stroke:#000000;stroke-width:30;stroke-linecap:round;stroke-linejoin:round;stroke-miterlimit:10;stroke-dasharray:none;stroke-opacity:1"
           id="path2999" /><g
           id="g3001"
           transform="translate(323.74,497)"><path
             d="m 0,0 h 24.86 c 21.21,0 38.4,-17.19 38.4,-38.4 v -405.2 c 0,-21.21 -17.19,-38.4 -38.4,-38.4 L 0,-482"
             style="fill:none;stroke:#000000;stroke-width:30;stroke-linecap:round;stroke-linejoin:round;stroke-miterlimit:10;stroke-dasharray:none;stroke-opacity:1"
             id="path3003" /></g><g
           id="g3005"
           transform="translate(450.26,15)"><path
             d="m 0,0 h -24.86 c -21.21,0 -38.4,17.19 -38.4,38.4 v 405.2 c 0,21.21 17.19,38.4 38.4,38.4 L 0,482"
             style="fill:none;stroke:#000000;stroke-width:30;stroke-linecap:round;stroke-linejoin:round;stroke-miterlimit:10;stroke-dasharray:none;stroke-opacity:1"
             id="path3007" /></g></g></g></g></svg>
