<?xml version="1.0" encoding="UTF-8" standalone="no"?>
<!-- Created with Inkscape (http://www.inkscape.org/) -->

<svg
   version="1.1"
   id="svg2076"
   xml:space="preserve"
   width="682.66669"
   height="682.66669"
   viewBox="0 0 682.66669 682.66669"
   xmlns="http://www.w3.org/2000/svg"
   xmlns:svg="http://www.w3.org/2000/svg"><defs
     id="defs2080"><clipPath
       clipPathUnits="userSpaceOnUse"
       id="clipPath2090"><path
         d="M 0,512 H 512 V 0 H 0 Z"
         id="path2088" /></clipPath></defs><g
     id="g2082"
     transform="matrix(1.3333333,0,0,-1.3333333,0,682.66667)"><g
       id="g2084"><g
         id="g2086"
         clip-path="url(#clipPath2090)"><g
           id="g2092"
           transform="translate(301,271)"><path
             d="m 0,0 c 0,-24.853 -20.147,-45 -45,-45 -24.853,0 -45,20.147 -45,45 0,24.853 20.147,45 45,45 C -20.147,45 0,24.853 0,0 Z"
             style="fill:none;stroke:#000000;stroke-width:30;stroke-linecap:round;stroke-linejoin:round;stroke-miterlimit:10;stroke-dasharray:none;stroke-opacity:1"
             id="path2094" /></g><g
           id="g2096"
           transform="translate(183.9912,159.9976)"><path
             d="m 0,0 c 16.42,21.861 42.563,36.002 72.009,36.002 29.446,0 55.589,-14.141 72.009,-36.002"
             style="fill:none;stroke:#000000;stroke-width:30;stroke-linecap:round;stroke-linejoin:round;stroke-miterlimit:10;stroke-dasharray:none;stroke-opacity:1"
             id="path2098" /></g><g
           id="g2100"
           transform="translate(376,256)"><path
             d="m 0,0 c 0,-66.274 -53.726,-120 -120,-120 -66.274,0 -120,53.726 -120,120 0,66.274 53.726,120 120,120 C -53.726,120 0,66.274 0,0 Z"
             style="fill:none;stroke:#000000;stroke-width:30;stroke-linecap:round;stroke-linejoin:round;stroke-miterlimit:10;stroke-dasharray:none;stroke-opacity:1"
             id="path2102" /></g><g
           id="g2104"
           transform="translate(466,436)"><path
             d="m 0,0 v -177.9 c 0,-121.8 -89.399,-226 -210,-243.1 -60.3,8.401 -112.8,39.701 -150.3,82.901 -37.5,42.9 -59.7,99.3 -59.7,160.199 V 0 h 11.7 C -337.5,0 -268.801,22 -210,61 -151.199,22 -82.5,0 -11.7,0 Z"
             style="fill:none;stroke:#000000;stroke-width:30;stroke-linecap:round;stroke-linejoin:round;stroke-miterlimit:10;stroke-dasharray:none;stroke-opacity:1"
             id="path2106" /></g></g></g></g></svg>
