<svg height="512pt" viewBox="-56 0 512 512" width="512pt" xmlns="http://www.w3.org/2000/svg"><path d="m394.933594 106.410156-102.738282-102.050781c-2.808593-2.792969-6.609374-4.359375-10.570312-4.359375h-204.59375c-8.285156 0-15 6.714844-15 15v45.207031h-47.03125c-8.285156 0-15 6.714844-15 15v421.792969c0 8.285156 6.714844 15 15 15h307.332031c8.285157 0 15-6.714844 15-15v-45.207031h47.03125c8.28125 0 15-6.714844 15-15v-319.738281c0-3.996094-1.59375-7.828126-4.429687-10.644532zm-98.308594-55.367187 51.351562 51.011719h-51.351562zm10.707031 430.957031h-277.332031v-391.792969h32.03125v346.585938c0 8.285156 6.714844 15 15 15h230.300781zm-215.300781-60.207031v-391.792969h174.59375v87.054688c0 8.285156 6.714844 15 15 15h87.738281v289.738281zm0 0"/><path d="m325.441406 340.011719h-188.472656c-8.285156 0-15 6.714843-15 15 0 8.285156 6.714844 15 15 15h188.472656c8.285156 0 15-6.714844 15-15 0-8.285157-6.714844-15-15-15zm0 0"/><path d="m325.441406 280.011719h-188.472656c-8.285156 0-15 6.714843-15 15 0 8.285156 6.714844 15 15 15h188.472656c8.285156 0 15-6.714844 15-15 0-8.285157-6.714844-15-15-15zm0 0"/><path d="m325.441406 220.011719h-188.472656c-8.285156 0-15 6.714843-15 15 0 8.285156 6.714844 15 15 15h188.472656c8.285156 0 15-6.714844 15-15 0-8.285157-6.714844-15-15-15zm0 0"/><path d="m136.96875 190.011719h72.378906c8.285156 0 15-6.714844 15-15 0-8.285157-6.714844-15-15-15h-72.378906c-8.285156 0-15 6.714843-15 15 0 8.285156 6.714844 15 15 15zm0 0"/></svg>