<?xml version="1.0" encoding="UTF-8" standalone="no"?>
<!-- Created with Inkscape (http://www.inkscape.org/) -->

<svg
   version="1.1"
   id="svg3762"
   xml:space="preserve"
   width="682.66669"
   height="682.66669"
   viewBox="0 0 682.66669 682.66669"
   xmlns="http://www.w3.org/2000/svg"
   xmlns:svg="http://www.w3.org/2000/svg"><defs
     id="defs3766"><clipPath
       clipPathUnits="userSpaceOnUse"
       id="clipPath3776"><path
         d="M 0,512 H 512 V 0 H 0 Z"
         id="path3774" /></clipPath></defs><g
     id="g3768"
     transform="matrix(1.3333333,0,0,-1.3333333,0,682.66667)"><g
       id="g3770"><g
         id="g3772"
         clip-path="url(#clipPath3776)"><g
           id="g3778"
           transform="translate(226.4561,154.1475)"><path
             d="m 0,0 c -2.877,-16.316 8.018,-31.876 24.335,-34.754 16.316,-2.877 31.876,8.019 34.753,24.335 C 61.965,5.898 51.07,21.458 34.753,24.335 18.437,27.212 2.877,16.317 0,0 Z"
             style="fill:none;stroke:#000000;stroke-width:30;stroke-linecap:round;stroke-linejoin:round;stroke-miterlimit:10;stroke-dasharray:none;stroke-opacity:1"
             id="path3780" /></g><g
           id="g3782"
           transform="translate(388.8623,349.6162)"><path
             d="m 0,0 c -15.569,-5.666 -23.597,-22.882 -17.93,-38.451 5.667,-15.57 22.882,-23.597 38.451,-17.93 15.57,5.666 23.597,22.882 17.931,38.451 C 32.785,-2.36 15.569,5.667 0,0 Z"
             style="fill:none;stroke:#000000;stroke-width:30;stroke-linecap:round;stroke-linejoin:round;stroke-miterlimit:10;stroke-dasharray:none;stroke-opacity:1"
             id="path3784" /></g><g
           id="g3786"
           transform="translate(395.833,216.3818)"><path
             d="m 0,0 c -12.692,10.65 -31.615,8.995 -42.266,-3.697 -10.649,-12.693 -8.994,-31.616 3.699,-42.265 12.692,-10.65 31.614,-8.995 42.264,3.697 C 14.348,-29.572 12.691,-10.649 0,0 Z"
             style="fill:none;stroke:#000000;stroke-width:30;stroke-linecap:round;stroke-linejoin:round;stroke-miterlimit:10;stroke-dasharray:none;stroke-opacity:1"
             id="path3788" /></g><g
           id="g3790"
           transform="translate(203.7432,318.9219)"><path
             d="m 0,0 c -5.431,12.367 -4.466,27.187 3.849,39.062 12.777,18.249 19.884,14.45 31.751,29.59 11.722,14.957 19.87,44.133 19.87,44.133 0,0 48.075,-70.818 13.911,-119.609 C 61.066,-18.698 47.47,-24.674 33.99,-23.801"
             style="fill:none;stroke:#000000;stroke-width:30;stroke-linecap:round;stroke-linejoin:round;stroke-miterlimit:10;stroke-dasharray:none;stroke-opacity:1"
             id="path3792" /></g><g
           id="g3794"
           transform="translate(157.168,267.3896)"><path
             d="m 0,0 c -7.675,6.79 -16.858,11.964 -27.078,14.813 -12.428,3.466 -24.832,3.393 -36.265,0.463 -19.212,-4.922 -37.387,10.39 -33.97,29.925 l 0.451,2.575 C -75.764,167.434 38.341,247.33 157.998,226.231 277.654,205.133 357.552,91.028 336.453,-28.629 315.354,-148.286 201.25,-228.183 81.593,-207.084 c -2.012,0.355 -4.013,0.735 -6.001,1.143 -55.751,11.408 -82.532,72.079 -58.331,123.583 1.252,2.663 2.329,5.434 3.248,8.291"
             style="fill:none;stroke:#000000;stroke-width:30;stroke-linecap:round;stroke-linejoin:round;stroke-miterlimit:10;stroke-dasharray:none;stroke-opacity:1"
             id="path3796" /></g><g
           id="g3798"
           transform="translate(203.8545,319.0117)"><path
             d="m 0,0 33.926,-23.756 c -6.31,-18.975 -22.163,-47.851 -53.15,-92.104 -60.187,-85.957 -154.395,-197.084 -167.967,-187.581 -13.573,9.504 58.631,136.039 118.819,221.996 C -37.386,-37.192 -15.674,-12.42 0,0 Z"
             style="fill:none;stroke:#000000;stroke-width:30;stroke-linecap:round;stroke-linejoin:round;stroke-miterlimit:10;stroke-dasharray:none;stroke-opacity:1"
             id="path3800" /></g></g></g></g></svg>
