<?xml version="1.0" encoding="UTF-8" standalone="no"?>
<!-- Created with Inkscape (http://www.inkscape.org/) -->

<svg
   version="1.1"
   id="svg912"
   xml:space="preserve"
   width="682.66669"
   height="682.66669"
   viewBox="0 0 682.66669 682.66669"
   xmlns="http://www.w3.org/2000/svg"
   xmlns:svg="http://www.w3.org/2000/svg"><defs
     id="defs916"><clipPath
       clipPathUnits="userSpaceOnUse"
       id="clipPath926"><path
         d="M 0,512 H 512 V 0 H 0 Z"
         id="path924" /></clipPath></defs><g
     id="g918"
     transform="matrix(1.3333333,0,0,-1.3333333,0,682.66667)"><g
       id="g920"><g
         id="g922"
         clip-path="url(#clipPath926)"><g
           id="g928"
           transform="translate(143.5332,497)"><path
             d="m 0,0 c -34.085,0 -66.781,-13.542 -90.889,-37.646 -24.1,-24.105 -37.644,-56.798 -37.644,-90.887 0,-195.215 158.249,-353.467 353.467,-353.467 34.085,0 66.781,13.542 90.888,37.646 24.101,24.105 37.645,56.798 37.645,90.887 L 192.8,-289.2 160.667,-369.533 h -0.017 c -97.596,0 -176.716,79.118 -176.716,176.717 v 0.016 l 80.333,32.133 z"
             style="fill:none;stroke:#000000;stroke-width:30;stroke-linecap:round;stroke-linejoin:round;stroke-miterlimit:10;stroke-dasharray:none;stroke-opacity:1"
             id="path930" /></g></g></g></g></svg>
