<svg version="1.1" id="Capa_1" xmlns="http://www.w3.org/2000/svg" xmlns:xlink="http://www.w3.org/1999/xlink" x="0px" y="0px" viewBox="0 0 512 512" style="enable-background:new 0 0 512 512;" xml:space="preserve">
<g>
	<g>
		<path style="fill:none;stroke:#000000;stroke-width:30;stroke-linecap:round;stroke-linejoin:round;stroke-miterlimit:10;" d="&#10;&#9;&#9;&#9;M364.896,402.801L337.047,497h-111v0c0-28.538-11.337-55.907-31.516-76.086l-25.559-25.559&#10;&#9;&#9;&#9;c-11.616-11.616-12.24-30.559-0.863-42.409c5.912-6.158,13.785-9.237,21.658-9.237c7.67,0,15.35,2.93,21.21,8.79l15.07,15.07&#10;&#9;&#9;&#9;V243.607c0-16.393,12.896-30.217,29.285-30.599c8.563-0.2,16.339,3.196,21.925,8.782c5.43,5.43,8.79,12.93,8.79,21.21v95.34&#10;&#9;&#9;&#9;l60.543,26.402C361.493,370.67,369.222,387.376,364.896,402.801z"/>
	</g>
	<g>
		<g>
			
				<polygon style="fill:none;stroke:#000000;stroke-width:30;stroke-linecap:round;stroke-linejoin:round;stroke-miterlimit:10;" points="&#10;&#9;&#9;&#9;&#9;256,15 228.675,52.016 185.026,66.565 211.787,103.992 212.136,150 256,136.115 299.864,150 300.213,103.992 326.974,66.565 &#10;&#9;&#9;&#9;&#9;283.325,52.016 &#9;&#9;&#9;"/>
		</g>
	</g>
	<g>
		<g>
			
				<polygon style="fill:none;stroke:#000000;stroke-width:30;stroke-linecap:round;stroke-linejoin:round;stroke-miterlimit:10;" points="&#10;&#9;&#9;&#9;&#9;426.026,95 398.701,132.016 355.053,146.565 381.813,183.992 382.162,230 426.026,216.115 469.89,230 470.24,183.992 &#10;&#9;&#9;&#9;&#9;497,146.565 453.352,132.016 &#9;&#9;&#9;"/>
		</g>
	</g>
	<g>
		<g>
			
				<polygon style="fill:none;stroke:#000000;stroke-width:30;stroke-linecap:round;stroke-linejoin:round;stroke-miterlimit:10;" points="&#10;&#9;&#9;&#9;&#9;85.974,95 113.299,132.016 156.947,146.565 130.187,183.992 129.838,230 85.974,216.115 42.11,230 41.76,183.992 15,146.565 &#10;&#9;&#9;&#9;&#9;58.648,132.016 &#9;&#9;&#9;"/>
		</g>
	</g>
</g>
<g>
</g>
<g>
</g>
<g>
</g>
<g>
</g>
<g>
</g>
<g>
</g>
<g>
</g>
<g>
</g>
<g>
</g>
<g>
</g>
<g>
</g>
<g>
</g>
<g>
</g>
<g>
</g>
<g>
</g>
</svg>