<?xml version="1.0" encoding="UTF-8" standalone="no"?>
<!-- Created with Inkscape (http://www.inkscape.org/) -->

<svg
   version="1.1"
   id="svg597"
   xml:space="preserve"
   width="682.66669"
   height="682.66669"
   viewBox="0 0 682.66669 682.66669"
   xmlns="http://www.w3.org/2000/svg"
   xmlns:svg="http://www.w3.org/2000/svg"><defs
     id="defs601"><clipPath
       clipPathUnits="userSpaceOnUse"
       id="clipPath611"><path
         d="M 0,512 H 512 V 0 H 0 Z"
         id="path609" /></clipPath></defs><g
     id="g603"
     transform="matrix(1.3333333,0,0,-1.3333333,0,682.66667)"><g
       id="g605"><g
         id="g607"
         clip-path="url(#clipPath611)"><g
           id="g613"
           transform="translate(15,366)"><path
             d="m 0,0 h 382 v 70 c 0,16.568 -13.432,30 -30,30 H 30 C 13.432,100 0,86.568 0,70 Z"
             style="fill:none;stroke:#000000;stroke-width:30;stroke-linecap:round;stroke-linejoin:round;stroke-miterlimit:10;stroke-dasharray:none;stroke-opacity:1"
             id="path615" /></g><g
           id="g617"
           transform="translate(322,416)"><path
             d="m 0,0 c 0,-8.284 6.716,-15 15,-15 8.284,0 15,6.716 15,15 C 30,8.284 23.284,15 15,15 6.716,15 0,8.284 0,0"
             style="fill:#000000;fill-opacity:1;fill-rule:nonzero;stroke:none"
             id="path619" /></g><g
           id="g621"
           transform="translate(262,416)"><path
             d="m 0,0 c 0,-8.284 6.716,-15 15,-15 8.284,0 15,6.716 15,15 C 30,8.284 23.284,15 15,15 6.716,15 0,8.284 0,0"
             style="fill:#000000;fill-opacity:1;fill-rule:nonzero;stroke:none"
             id="path623" /></g><g
           id="g625"
           transform="translate(202,416)"><path
             d="m 0,0 c 0,-8.284 6.716,-15 15,-15 8.284,0 15,6.716 15,15 C 30,8.284 23.284,15 15,15 6.716,15 0,8.284 0,0"
             style="fill:#000000;fill-opacity:1;fill-rule:nonzero;stroke:none"
             id="path627" /></g><g
           id="g629"
           transform="translate(397,265.5513)"><path
             d="m 0,0 v 100.449 h -382 v -210 c 0,-16.569 13.432,-30 30,-30 h 236.472"
             style="fill:none;stroke:#000000;stroke-width:30;stroke-linecap:round;stroke-linejoin:round;stroke-miterlimit:10;stroke-dasharray:none;stroke-opacity:1"
             id="path631" /></g><g
           id="g633"
           transform="translate(75,306)"><path
             d="M 0,0 H 160"
             style="fill:none;stroke:#000000;stroke-width:30;stroke-linecap:round;stroke-linejoin:round;stroke-miterlimit:10;stroke-dasharray:none;stroke-opacity:1"
             id="path635" /></g><g
           id="g637"
           transform="translate(75,246)"><path
             d="M 0,0 H 160"
             style="fill:none;stroke:#000000;stroke-width:30;stroke-linecap:round;stroke-linejoin:round;stroke-miterlimit:10;stroke-dasharray:none;stroke-opacity:1"
             id="path639" /></g><g
           id="g641"
           transform="translate(497,156)"><path
             d="m 0,0 c 0,-60.751 -49.249,-110 -110,-110 -60.751,0 -110,49.249 -110,110 0,60.751 49.249,110 110,110 C -49.249,110 0,60.751 0,0 Z"
             style="fill:none;stroke:#000000;stroke-width:30;stroke-linecap:round;stroke-linejoin:round;stroke-miterlimit:10;stroke-dasharray:none;stroke-opacity:1"
             id="path643" /></g><g
           id="g645"
           transform="translate(337,156)"><path
             d="M 0,0 H 100"
             style="fill:none;stroke:#000000;stroke-width:30;stroke-linecap:round;stroke-linejoin:round;stroke-miterlimit:10;stroke-dasharray:none;stroke-opacity:1"
             id="path647" /></g><g
           id="g649"
           transform="translate(387,106)"><path
             d="M 0,0 V 100"
             style="fill:none;stroke:#000000;stroke-width:30;stroke-linecap:round;stroke-linejoin:round;stroke-miterlimit:10;stroke-dasharray:none;stroke-opacity:1"
             id="path651" /></g></g></g></g></svg>
