<?xml version="1.0" encoding="UTF-8" standalone="no"?>
<!-- Created with Inkscape (http://www.inkscape.org/) -->

<svg
   version="1.1"
   id="svg597"
   xml:space="preserve"
   width="682.66669"
   height="682.66669"
   viewBox="0 0 682.66669 682.66669"
   xmlns="http://www.w3.org/2000/svg"
   xmlns:svg="http://www.w3.org/2000/svg"><defs
     id="defs601"><clipPath
       clipPathUnits="userSpaceOnUse"
       id="clipPath611"><path
         d="M 0,512 H 512 V 0 H 0 Z"
         id="path609" /></clipPath></defs><g
     id="g603"
     transform="matrix(1.3333333,0,0,-1.3333333,0,682.66667)"><g
       id="g605"><g
         id="g607"
         clip-path="url(#clipPath611)"><path
           d="m 291,30 h -70 v 70 h 70 z m 15,100 H 206 c -8.284,0 -15,-6.716 -15,-15 V 15 c 0,-8.284 6.716,-15 15,-15 h 100 c 8.284,0 15,6.716 15,15 v 100 c 0,8.284 -6.716,15 -15,15"
           style="fill:#000000;fill-opacity:1;fill-rule:nonzero;stroke:none"
           id="path613" /><path
           d="M 482,412 H 30 v 70 h 452 z m 15,100 H 15 C 6.716,512 0,505.284 0,497 V 397 c 0,-8.284 6.716,-15 15,-15 h 482 c 8.284,0 15,6.716 15,15 v 100 c 0,8.284 -6.716,15 -15,15"
           style="fill:#000000;fill-opacity:1;fill-rule:nonzero;stroke:none"
           id="path615" /><path
           d="M 100,30 H 30 v 70 h 70 z m 15,100 H 15 C 6.716,130 0,123.284 0,115 V 15 C 0,6.716 6.716,0 15,0 h 100 c 8.284,0 15,6.716 15,15 v 100 c 0,8.284 -6.716,15 -15,15"
           style="fill:#000000;fill-opacity:1;fill-rule:nonzero;stroke:none"
           id="path617" /><g
           id="g619"
           transform="translate(256,171)"><path
             d="m 0,0 c 8.284,0 15,6.716 15,15 v 103.787 l 14.394,-14.393 c 5.857,-5.859 15.355,-5.859 21.212,0 5.859,5.857 5.859,15.355 0,21.212 l -40,40 c -5.857,5.859 -15.355,5.859 -21.212,0 l -40,-40 c -5.859,-5.857 -5.859,-15.355 0,-21.212 5.857,-5.859 15.355,-5.859 21.212,0 L -15,118.787 V 15 C -15,6.716 -8.284,0 0,0"
             style="fill:#000000;fill-opacity:1;fill-rule:nonzero;stroke:none"
             id="path621" /></g><path
           d="m 482,30 h -70 v 70 h 70 z m 15,100 H 397 c -8.284,0 -15,-6.716 -15,-15 V 15 c 0,-8.284 6.716,-15 15,-15 h 100 c 8.284,0 15,6.716 15,15 v 100 c 0,8.284 -6.716,15 -15,15"
           style="fill:#000000;fill-opacity:1;fill-rule:nonzero;stroke:none"
           id="path623" /><g
           id="g625"
           transform="translate(447,171)"><path
             d="m 0,0 c 8.284,0 15,6.716 15,15 v 103.787 l 14.394,-14.393 c 5.857,-5.859 15.355,-5.859 21.212,0 5.859,5.857 5.859,15.355 0,21.212 l -40,40 c -5.857,5.859 -15.355,5.859 -21.212,0 l -40,-40 c -5.859,-5.857 -5.859,-15.355 0,-21.212 5.857,-5.859 15.355,-5.859 21.212,0 L -15,118.787 V 15 C -15,6.716 -8.284,0 0,0"
             style="fill:#000000;fill-opacity:1;fill-rule:nonzero;stroke:none"
             id="path627" /></g><g
           id="g629"
           transform="translate(65,171)"><path
             d="m 0,0 c 8.284,0 15,6.716 15,15 v 103.787 l 14.394,-14.393 c 5.857,-5.859 15.355,-5.859 21.212,0 5.859,5.857 5.859,15.355 0,21.212 l -40,40 c -5.857,5.859 -15.355,5.859 -21.212,0 l -40,-40 c -5.859,-5.857 -5.859,-15.355 0,-21.212 5.857,-5.859 15.355,-5.859 21.212,0 L -15,118.787 V 15 C -15,6.716 -8.284,0 0,0"
             style="fill:#000000;fill-opacity:1;fill-rule:nonzero;stroke:none"
             id="path631" /></g></g></g></g></svg>
