<?xml version="1.0" encoding="UTF-8"?>
<svg xmlns="http://www.w3.org/2000/svg" xmlns:xlink="http://www.w3.org/1999/xlink" version="1.1" id="Capa_1" x="0px" y="0px" viewBox="0 0 512 512" style="enable-background:new 0 0 512 512;" xml:space="preserve" width="512" height="512">
<g>
	<g>
		<path style="fill:none;stroke:#000000;stroke-width:30;stroke-linecap:round;stroke-linejoin:round;stroke-miterlimit:10;" d="&#10;&#9;&#9;&#9;M15,256c0,133.101,107.899,241,241,241s241-107.899,241-241S389.101,15,256,15c-74.869,0-141.764,34.14-185.967,87.702&#10;&#9;&#9;&#9;l8.201-56.243"/>
		
			<line style="fill:none;stroke:#000000;stroke-width:30;stroke-linecap:round;stroke-linejoin:round;stroke-miterlimit:10;" x1="70.033" y1="102.702" x2="125.325" y2="94.5"/>
	</g>
	<g>
		<g>
			
				<circle style="fill:none;stroke:#000000;stroke-width:30;stroke-linecap:round;stroke-linejoin:round;stroke-miterlimit:10;" cx="256" cy="256" r="154.18"/>
			
				<polyline style="fill:none;stroke:#000000;stroke-width:30;stroke-linecap:round;stroke-linejoin:round;stroke-miterlimit:10;" points="&#10;&#9;&#9;&#9;&#9;255.985,218.863 255.985,256.032 292.493,256.032 &#9;&#9;&#9;"/>
		</g>
		
			<line style="fill:none;stroke:#000000;stroke-width:30;stroke-linecap:round;stroke-linejoin:round;stroke-miterlimit:10;" x1="101.82" y1="256" x2="134.013" y2="256"/>
		
			<line style="fill:none;stroke:#000000;stroke-width:30;stroke-linecap:round;stroke-linejoin:round;stroke-miterlimit:10;" x1="377.987" y1="256" x2="410.18" y2="256"/>
		<g>
			
				<line style="fill:none;stroke:#000000;stroke-width:30;stroke-linecap:round;stroke-linejoin:round;stroke-miterlimit:10;" x1="256" y1="101.82" x2="256" y2="134.013"/>
			
				<line style="fill:none;stroke:#000000;stroke-width:30;stroke-linecap:round;stroke-linejoin:round;stroke-miterlimit:10;" x1="256" y1="377.987" x2="256" y2="410.18"/>
		</g>
		<g>
			
				<line style="fill:none;stroke:#000000;stroke-width:30;stroke-linecap:round;stroke-linejoin:round;stroke-miterlimit:10;" x1="147.082" y1="147.082" x2="169.742" y2="169.742"/>
			
				<line style="fill:none;stroke:#000000;stroke-width:30;stroke-linecap:round;stroke-linejoin:round;stroke-miterlimit:10;" x1="342.258" y1="342.258" x2="364.982" y2="364.982"/>
			<g>
				
					<line style="fill:none;stroke:#000000;stroke-width:30;stroke-linecap:round;stroke-linejoin:round;stroke-miterlimit:10;" x1="365.069" y1="146.931" x2="342.258" y2="169.742"/>
				
					<line style="fill:none;stroke:#000000;stroke-width:30;stroke-linecap:round;stroke-linejoin:round;stroke-miterlimit:10;" x1="169.742" y1="342.258" x2="147.169" y2="364.831"/>
			</g>
		</g>
	</g>
</g>















</svg>
