<?xml version="1.0" encoding="UTF-8" standalone="no"?>
<!-- Created with Inkscape (http://www.inkscape.org/) -->

<svg
   version="1.1"
   id="svg765"
   xml:space="preserve"
   width="682.66669"
   height="682.66669"
   viewBox="0 0 682.66669 682.66669"
   xmlns="http://www.w3.org/2000/svg"
   xmlns:svg="http://www.w3.org/2000/svg"><defs
     id="defs769"><clipPath
       clipPathUnits="userSpaceOnUse"
       id="clipPath779"><path
         d="M 0,512 H 512 V 0 H 0 Z"
         id="path777" /></clipPath></defs><g
     id="g771"
     transform="matrix(1.3333333,0,0,-1.3333333,0,682.66667)"><g
       id="g773"><g
         id="g775"
         clip-path="url(#clipPath779)"><g
           id="g781"
           transform="translate(111.4092,167.2788)"><path
             d="m 0,0 -27.667,-75.279 h -68.744 l 120.548,327.999 59.479,0.001 120.553,-328 h -10.485 -58.26 L 107.756,0 Z M 53.877,146.594 23.714,64.524 h 60.327 z"
             style="fill:none;stroke:#000000;stroke-width:30;stroke-linecap:round;stroke-linejoin:round;stroke-miterlimit:22.926;stroke-dasharray:none;stroke-opacity:1"
             id="path783" /></g><g
           id="g785"
           transform="translate(425.0015,92.0005)"><path
             d="M 0,0 C 39.656,0 72,32.344 72,72 72,111.656 39.656,144 0,144 -39.656,144 -72,111.656 -72,72 -72,32.344 -39.656,0 0,0 Z"
             style="fill:none;stroke:#000000;stroke-width:30;stroke-linecap:round;stroke-linejoin:round;stroke-miterlimit:22.926;stroke-dasharray:none;stroke-opacity:1"
             id="path787" /></g><g
           id="g789"
           transform="translate(497.0005,236)"><path
             d="M 0,0 V -144"
             style="fill:none;stroke:#000000;stroke-width:30;stroke-linecap:round;stroke-linejoin:round;stroke-miterlimit:22.926;stroke-dasharray:none;stroke-opacity:1"
             id="path791" /></g></g></g></g></svg>
