<?xml version="1.0" encoding="UTF-8" standalone="no"?>
<!-- Created with Inkscape (http://www.inkscape.org/) -->

<svg
   version="1.1"
   id="svg2265"
   xml:space="preserve"
   width="682.66669"
   height="682.66669"
   viewBox="0 0 682.66669 682.66669"
   xmlns="http://www.w3.org/2000/svg"
   xmlns:svg="http://www.w3.org/2000/svg"><defs
     id="defs2269"><clipPath
       clipPathUnits="userSpaceOnUse"
       id="clipPath2279"><path
         d="M 0,512 H 512 V 0 H 0 Z"
         id="path2277" /></clipPath></defs><g
     id="g2271"
     transform="matrix(1.3333333,0,0,-1.3333333,0,682.66667)"><g
       id="g2273"><g
         id="g2275"
         clip-path="url(#clipPath2279)"><g
           id="g2281"
           transform="translate(68.0629,159.7154)"><path
             d="m 0,0 h -38.662 c -8.011,0 -14.506,6.494 -14.506,14.506 v 106.915 c 0,8.012 6.495,14.506 14.506,14.506 H 0"
             style="fill:none;stroke:#000000;stroke-width:30;stroke-linecap:round;stroke-linejoin:round;stroke-miterlimit:10;stroke-dasharray:none;stroke-opacity:1"
             id="path2283" /></g><g
           id="g2285"
           transform="translate(444.4789,295.6422)"><path
             d="m 0,0 h 38.016 c 8.01,0 14.505,-6.494 14.505,-14.506 v -106.915 c 0,-8.012 -6.495,-14.506 -14.505,-14.506 H 0"
             style="fill:none;stroke:#000000;stroke-width:30;stroke-linecap:round;stroke-linejoin:round;stroke-miterlimit:10;stroke-dasharray:none;stroke-opacity:1"
             id="path2287" /></g><g
           id="g2289"
           transform="translate(186.6147,171.5357)"><path
             d="m 0,0 h 138.771 c 23.297,0 42.184,-18.887 42.184,-42.185 0,-23.297 -18.887,-42.184 -42.184,-42.184 H 0 c -23.298,0 -42.185,18.887 -42.185,42.184 C -42.185,-18.887 -23.298,0 0,0 Z"
             style="fill:none;stroke:#000000;stroke-width:30;stroke-linecap:round;stroke-linejoin:round;stroke-miterlimit:10;stroke-dasharray:none;stroke-opacity:1"
             id="path2291" /></g><g
           id="g2293"
           transform="translate(311.3676,171.5357)"><path
             d="M 0,0 V -84.369"
             style="fill:none;stroke:#000000;stroke-width:30;stroke-linecap:round;stroke-linejoin:round;stroke-miterlimit:10;stroke-dasharray:none;stroke-opacity:1"
             id="path2295" /></g><g
           id="g2297"
           transform="translate(196.9291,171.5357)"><path
             d="M 0,0 V -84.369"
             style="fill:none;stroke:#000000;stroke-width:30;stroke-linecap:round;stroke-linejoin:round;stroke-miterlimit:10;stroke-dasharray:none;stroke-opacity:1"
             id="path2299" /></g><g
           id="g2301"
           transform="translate(254.1489,171.5357)"><path
             d="M 0,0 V -84.369"
             style="fill:none;stroke:#000000;stroke-width:30;stroke-linecap:round;stroke-linejoin:round;stroke-miterlimit:10;stroke-dasharray:none;stroke-opacity:1"
             id="path2303" /></g><g
           id="g2305"
           transform="translate(300.9145,289.7418)"><path
             d="M 0,0 C 0,20.235 16.404,36.64 36.64,36.64 56.875,36.64 73.279,20.235 73.279,0 73.279,-20.235 56.875,-36.64 36.64,-36.64 16.404,-36.64 0,-20.235 0,0 Z"
             style="fill:none;stroke:#000000;stroke-width:30;stroke-linecap:round;stroke-linejoin:round;stroke-miterlimit:10;stroke-dasharray:none;stroke-opacity:1"
             id="path2307" /></g><g
           id="g2309"
           transform="translate(137.8061,289.7418)"><path
             d="M 0,0 C 0,20.235 16.404,36.64 36.64,36.64 56.875,36.64 73.279,20.235 73.279,0 73.279,-20.235 56.875,-36.64 36.64,-36.64 16.404,-36.64 0,-20.235 0,0 Z"
             style="fill:none;stroke:#000000;stroke-width:30;stroke-linecap:round;stroke-linejoin:round;stroke-miterlimit:10;stroke-dasharray:none;stroke-opacity:1"
             id="path2311" /></g><g
           id="g2313"
           transform="translate(397.1166,412.3336)"><path
             d="m 0,0 h -281.69 c -26.159,0 -47.364,-21.205 -47.364,-47.362 v -302.609 c 0,-26.158 21.205,-47.363 47.364,-47.363 H 0 c 26.158,0 47.362,21.205 47.362,47.363 V -47.362 C 47.362,-21.205 26.158,0 0,0 Z"
             style="fill:none;stroke:#000000;stroke-width:30;stroke-linecap:round;stroke-linejoin:round;stroke-miterlimit:10;stroke-dasharray:none;stroke-opacity:1"
             id="path2315" /></g><g
           id="g2317"
           transform="translate(154.5502,412.3023)"><path
             d="m 0,0 v 43.131 c 0,8.012 6.494,14.506 14.505,14.506 h 173.89 c 8.01,0 14.504,-6.494 14.504,-14.506 V 0"
             style="fill:none;stroke:#000000;stroke-width:30;stroke-linecap:round;stroke-linejoin:round;stroke-miterlimit:10;stroke-dasharray:none;stroke-opacity:1"
             id="path2319" /></g><g
           id="g2321"
           transform="translate(256.0004,497.0787)"><path
             d="M 0,0 V -27.14"
             style="fill:none;stroke:#000000;stroke-width:30;stroke-linecap:round;stroke-linejoin:round;stroke-miterlimit:10;stroke-dasharray:none;stroke-opacity:1"
             id="path2323" /></g></g></g></g></svg>
