<svg version="1.1" id="Layer_1" xmlns="http://www.w3.org/2000/svg" xmlns:xlink="http://www.w3.org/1999/xlink" x="0px" y="0px" viewBox="0 0 512 512" style="enable-background:new 0 0 512 512;" xml:space="preserve">
<g>
	<g>
		
			<polygon style="fill:none;stroke:#000000;stroke-width:30;stroke-linecap:round;stroke-linejoin:round;stroke-miterlimit:10;" points="&#10;&#9;&#9;&#9;265.816,240.872 313.975,289.121 453.619,149.217 405.46,100.968 &#9;&#9;"/>
		
			<polyline style="fill:none;stroke:#000000;stroke-width:30;stroke-linecap:round;stroke-linejoin:round;stroke-miterlimit:10;" points="&#10;&#9;&#9;&#9;313.975,289.121 259.913,323.243 233.028,296.307 265.816,240.872 &#9;&#9;"/>
		
			<polyline style="fill:none;stroke:#000000;stroke-width:30;stroke-linecap:round;stroke-linejoin:round;stroke-miterlimit:10;" points="&#10;&#9;&#9;&#9;405.46,100.968 448.217,58.142 496.376,106.391 453.619,149.217 &#9;&#9;"/>
	</g>
	
		<polyline style="fill:none;stroke:#000000;stroke-width:30;stroke-linecap:round;stroke-linejoin:round;stroke-miterlimit:10;" points="&#10;&#9;&#9;66.65,131.473 15,131.473 15,179.42 &#9;"/>
	
		<polyline style="fill:none;stroke:#000000;stroke-width:30;stroke-linecap:round;stroke-linejoin:round;stroke-miterlimit:10;" points="&#10;&#9;&#9;15.773,402.125 15.773,453.858 63.643,453.858 &#9;"/>
	
		<polyline style="fill:none;stroke:#000000;stroke-width:30;stroke-linecap:round;stroke-linejoin:round;stroke-miterlimit:10;" points="&#10;&#9;&#9;445.35,453.858 497,453.858 497,405.91 &#9;"/>
	<path style="fill:none;stroke:#000000;stroke-width:30;stroke-linecap:round;stroke-linejoin:round;stroke-miterlimit:10;" d="&#10;&#9;&#9;M32.845,288.998c5.824-18.355,18.203-39.72,32.97-58.124c9.112-11.355,27.352-3.292,25.059,11.093&#10;&#9;&#9;c-4.412,27.69-7.363,59.73-9.291,87.156c-1.074,15.285,19.435,21.206,26.635,7.686l22.115-41.524&#10;&#9;&#9;c5.525-10.374,20.532-9.913,25.392,0.79c5.549,12.218,12.133,25.291,17.504,34.252h53.222l20.251-20.29"/>
</g>
<g>
</g>
<g>
</g>
<g>
</g>
<g>
</g>
<g>
</g>
<g>
</g>
<g>
</g>
<g>
</g>
<g>
</g>
<g>
</g>
<g>
</g>
<g>
</g>
<g>
</g>
<g>
</g>
<g>
</g>
</svg>