<?xml version="1.0" encoding="iso-8859-1"?>
<!-- Generator: Adobe Illustrator 19.0.0, SVG Export Plug-In . SVG Version: 6.00 Build 0)  -->
<svg version="1.1" id="Capa_1" xmlns="http://www.w3.org/2000/svg" xmlns:xlink="http://www.w3.org/1999/xlink" x="0px" y="0px"
	 viewBox="0 0 512 512" style="enable-background:new 0 0 512 512;" xml:space="preserve">
<g>
	<g>
		<path d="M506.786,214.631l-55.785-48.012V45c0-24.813-20.187-45-45-45h-300c-24.813,0-45,20.187-45,45v121.619L5.216,214.631
			c-3.27,2.818-5.215,7.057-5.215,11.369v271c0,8.331,6.811,14.996,14.994,15c0.002,0,0.003,0,0.005,0h482c0.001,0,0.003,0,0.005,0
			c8.156-0.003,14.994-6.65,14.994-15V226C512.001,221.651,510.018,217.415,506.786,214.631z M451.001,206.2l23.084,19.868
			l-23.084,20.107V206.2z M91.001,45c0-8.271,6.729-15,15-15h300c8.271,0,15,6.729,15,15v227.307
			c-7.035,6.114-155.015,135.025-155.123,135.119c-5.632,4.927-14.124,4.927-19.779-0.022
			c-1.539-1.348-70.322-61.254-155.098-135.097V45z M61.001,206.2v39.975l-23.084-20.107L61.001,206.2z M30.001,258.958
			L166.38,377.75L30.001,468.928V258.958z M64.426,482l125.393-83.833l36.549,31.836c8.451,7.395,19.047,11.089,29.642,11.089
			c10.585,0,21.169-3.691,29.599-11.067l36.575-31.858L447.576,482H64.426z M482.001,468.928l-136.379-91.177l136.379-118.793
			V468.928z"/>
	</g>
</g>
<g>
	<g>
		<path d="M259.001,61.075c-61.1-1.571-109.744,41.725-120.502,95.122c-5.779,28.69-1.336,57.966,12.502,82.935V256
			c0,24.813,20.187,45,45,45h120c24.813,0,45-20.187,45-45v-16.867c9.826-17.725,15-37.73,15-58.133
			C376.001,115.908,324.265,62.754,259.001,61.075z M333.153,227.372c-1.408,2.337-2.152,5.013-2.152,7.742V256
			c0,8.271-6.729,15-15,15h-15v-15c0-8.284-6.716-15-15-15s-15,6.716-15,15v15h-30v-15c0-8.284-6.716-15-15-15s-15,6.716-15,15v15
			h-15c-8.271,0-15-6.729-15-15v-20.886c0-2.728-0.744-5.405-2.152-7.742c-11.64-19.317-15.525-42.49-10.94-65.25
			c7.784-38.644,42.387-71.078,87.878-71.078c50.221,0,90.214,40.346,90.214,89.956
			C346.001,197.388,341.559,213.423,333.153,227.372z"/>
	</g>
</g>
<g>
	<g>
		<path d="M232.709,167.583l-30-15c-7.406-3.704-16.419-0.702-20.124,6.708c-3.705,7.41-0.702,16.421,6.708,20.125l30,15
			c7.418,3.709,16.424,0.692,20.124-6.708C243.122,180.298,240.119,171.288,232.709,167.583z"/>
	</g>
</g>
<g>
	<g>
		<path d="M329.417,159.292c-3.704-7.409-12.713-10.414-20.124-6.708l-30,15c-7.41,3.705-10.413,12.715-6.708,20.125
			c3.699,7.398,12.704,10.417,20.124,6.708l30-15C330.119,175.712,333.122,166.702,329.417,159.292z"/>
	</g>
</g>
<g>
</g>
<g>
</g>
<g>
</g>
<g>
</g>
<g>
</g>
<g>
</g>
<g>
</g>
<g>
</g>
<g>
</g>
<g>
</g>
<g>
</g>
<g>
</g>
<g>
</g>
<g>
</g>
<g>
</g>
</svg>
