<?xml version="1.0" encoding="UTF-8" standalone="no"?>
<!-- Created with Inkscape (http://www.inkscape.org/) -->

<svg
   version="1.1"
   id="svg1575"
   xml:space="preserve"
   width="682.66669"
   height="682.66669"
   viewBox="0 0 682.66669 682.66669"
   xmlns="http://www.w3.org/2000/svg"
   xmlns:svg="http://www.w3.org/2000/svg"><defs
     id="defs1579"><clipPath
       clipPathUnits="userSpaceOnUse"
       id="clipPath1589"><path
         d="M 0,512 H 512 V 0 H 0 Z"
         id="path1587" /></clipPath></defs><g
     id="g1581"
     transform="matrix(1.3333333,0,0,-1.3333333,0,682.66667)"><g
       id="g1583"><g
         id="g1585"
         clip-path="url(#clipPath1589)"><g
           id="g1591"
           transform="translate(320.999,353)"><path
             d="M 0,0 H 147.998 C 163.422,0 176,-12.579 176,-28.001 V -338 l -91.488,56.001 H -96.997 c -15.422,0 -28.002,12.579 -28.002,28.002 v 94.561"
             style="fill:none;stroke:#000000;stroke-width:30;stroke-linecap:round;stroke-linejoin:round;stroke-miterlimit:22.926;stroke-dasharray:none;stroke-opacity:1"
             id="path1593" /></g><g
           id="g1595"
           transform="translate(168,497)"><path
             d="m 0,0 c 84.499,0 152.999,-68.5 152.999,-153 0,-84.499 -68.5,-152.999 -152.999,-152.999 -27.829,0 -53.922,7.431 -76.403,20.416 l -76.597,-28.309 27.251,73.732 C -142.924,-215.427 -153,-185.392 -153,-153 -153,-68.5 -84.499,0 0,0 Z"
             style="fill:none;stroke:#000000;stroke-width:30;stroke-linecap:round;stroke-linejoin:round;stroke-miterlimit:22.926;stroke-dasharray:none;stroke-opacity:1"
             id="path1597" /></g><g
           id="g1599"
           transform="translate(120.4995,349.5)"><path
             d="M 0,0 39.5,-39.5 115,36"
             style="fill:none;stroke:#000000;stroke-width:30;stroke-linecap:round;stroke-linejoin:round;stroke-miterlimit:22.926;stroke-dasharray:none;stroke-opacity:1"
             id="path1601" /></g><g
           id="g1603"
           transform="translate(296.499,260.9995)"><path
             d="M 0,0 99,-99"
             style="fill:none;stroke:#000000;stroke-width:30;stroke-linecap:round;stroke-linejoin:round;stroke-miterlimit:22.926;stroke-dasharray:none;stroke-opacity:1"
             id="path1605" /></g><g
           id="g1607"
           transform="translate(395.499,260.9995)"><path
             d="M 0,0 -99,-99"
             style="fill:none;stroke:#000000;stroke-width:30;stroke-linecap:round;stroke-linejoin:round;stroke-miterlimit:22.926;stroke-dasharray:none;stroke-opacity:1"
             id="path1609" /></g></g></g></g></svg>
