<svg height="512pt" viewBox="0 -43 512 512" width="512pt" xmlns="http://www.w3.org/2000/svg"><path d="m437 0h-362c-41.355469 0-75 33.644531-75 75v276.878906c0 41.351563 33.644531 75 75 75h362c41.355469 0 75-33.648437 75-75v-276.878906c0-41.355469-33.644531-75-75-75zm45 351.875c0 24.8125-20.1875 45-45 45h-362c-24.8125 0-45-20.1875-45-45v-276.875c0-24.8125 20.1875-45 45-45h362c24.8125 0 45 20.1875 45 45zm0 0"/><path d="m409.769531 144.9375h-268.882812l14.726562-14.726562c5.859375-5.855469 5.859375-15.355469 0-21.210938-5.855469-5.859375-15.355469-5.859375-21.210937 0l-40.335938 40.332031c-5.855468 5.859375-5.855468 15.355469 0 21.214844l40.335938 40.332031c2.925781 2.929688 6.765625 4.394532 10.605468 4.394532 3.835938 0 7.675782-1.464844 10.605469-4.394532 5.859375-5.859375 5.859375-15.355468 0-21.214844l-14.726562-14.726562h268.882812c8.285157 0 15-6.714844 15-15s-6.714843-15-15-15zm0 0"/><path d="m377.601562 215.996094c-5.859374-5.855469-15.355468-5.855469-21.214843 0-5.859375 5.859375-5.859375 15.355468 0 21.214844l14.726562 14.726562h-268.882812c-8.285157 0-15 6.714844-15 15s6.714843 15 15 15h268.882812l-14.726562 14.726562c-5.859375 5.859376-5.859375 15.355469 0 21.214844 2.929687 2.925782 6.765625 4.390625 10.605469 4.390625 3.835937 0 7.679687-1.460937 10.605468-4.390625l40.332032-40.335937c5.859374-5.855469 5.859374-15.355469 0-21.210938zm0 0"/></svg>