<?xml version="1.0" encoding="UTF-8" standalone="no"?>
<!-- Created with Inkscape (http://www.inkscape.org/) -->

<svg
   version="1.1"
   id="svg234"
   xml:space="preserve"
   width="682.66669"
   height="682.66669"
   viewBox="0 0 682.66669 682.66669"
   xmlns="http://www.w3.org/2000/svg"
   xmlns:svg="http://www.w3.org/2000/svg"><defs
     id="defs238"><clipPath
       clipPathUnits="userSpaceOnUse"
       id="clipPath248"><path
         d="M 0,512 H 512 V 0 H 0 Z"
         id="path246" /></clipPath></defs><g
     id="g240"
     transform="matrix(1.3333333,0,0,-1.3333333,0,682.66667)"><g
       id="g242"><g
         id="g244"
         clip-path="url(#clipPath248)"><g
           id="g250"
           transform="translate(456.8789,496.9971)"><path
             d="M 0,0 H -194.316 L -430.18,-235.859 c -15.599,-15.604 -15.599,-41.135 0,-56.734 l 177.703,-177.701 c 15.602,-15.601 41.129,-15.601 56.733,0.002 L 40.115,-234.43 40.121,-40.115 C 40.119,-18.051 22.066,0 0,0 Z"
             style="fill:none;stroke:#000000;stroke-width:30;stroke-linecap:round;stroke-linejoin:round;stroke-miterlimit:10;stroke-dasharray:none;stroke-opacity:1"
             id="path252" /></g><g
           id="g254"
           transform="translate(402.5,357.0596)"><path
             d="m 0,0 c -12.549,-12.549 -32.895,-12.549 -45.443,0 -12.549,12.549 -12.549,32.895 0,45.441 12.548,12.551 32.894,12.553 45.443,0 C 12.549,32.895 12.549,12.549 0,0 Z"
             style="fill:none;stroke:#000000;stroke-width:30;stroke-linecap:round;stroke-linejoin:round;stroke-miterlimit:10;stroke-dasharray:none;stroke-opacity:1"
             id="path256" /></g></g></g></g></svg>
