<?xml version="1.0" encoding="iso-8859-1"?>
<!-- Generator: Adobe Illustrator 19.0.0, SVG Export Plug-In . SVG Version: 6.00 Build 0)  -->
<svg version="1.1" id="Layer_1" xmlns="http://www.w3.org/2000/svg" xmlns:xlink="http://www.w3.org/1999/xlink" x="0px" y="0px"
	 viewBox="0 0 512 512" style="enable-background:new 0 0 512 512;" xml:space="preserve">
<g>
	<g>
		<path d="M461.056,70.867V50.959C461.056,22.86,438.196,0,410.097,0H268.371c-13.613,0-26.409,5.301-36.034,14.927L31.899,215.366
			c-9.626,9.625-14.927,22.422-14.927,36.034c0,13.612,5.301,26.409,14.927,36.034l20.367,20.367
			c-0.863,3.744-1.32,7.609-1.32,11.545c0,13.612,5.301,26.409,14.927,36.034L207.596,497.1C217.53,507.033,230.58,512,243.629,512
			c13.049,0,26.099-4.967,36.033-14.902l200.44-200.44c9.626-9.626,14.927-22.422,14.927-36.034v-141.72
			C495.029,96.76,480.826,77.879,461.056,70.867z M55.921,263.411c-3.208-3.208-4.976-7.474-4.976-12.012
			c0-4.538,1.768-8.802,4.976-12.012L256.36,38.948c3.209-3.207,7.474-4.975,12.012-4.975h141.724
			c9.366,0,16.986,7.62,16.986,16.986v16.986H302.344c-13.613,0-26.409,5.301-36.034,14.927L70.848,278.336L55.921,263.411z
			 M456.08,272.636l-200.44,200.44c-6.625,6.624-17.4,6.622-24.022,0L89.894,331.356c-3.208-3.208-4.976-7.474-4.976-12.012
			c0-4.538,1.768-8.802,4.976-12.012l200.439-200.44c3.209-3.207,7.474-4.975,12.012-4.975h141.724
			c9.366,0,16.986,7.62,16.986,16.986v141.72h0.001C461.056,265.161,459.288,269.427,456.08,272.636z"/>
	</g>
</g>
<g>
	<g>
		<path d="M376.124,135.891c-28.099,0-50.959,22.86-50.959,50.959s22.86,50.959,50.959,50.959s50.959-22.86,50.959-50.959
			S404.223,135.891,376.124,135.891z M376.124,203.837c-9.366,0-16.986-7.62-16.986-16.986c0-9.366,7.62-16.986,16.986-16.986
			c9.366,0,16.986,7.62,16.986,16.986C393.11,196.217,385.49,203.837,376.124,203.837z"/>
	</g>
</g>
<g>
</g>
<g>
</g>
<g>
</g>
<g>
</g>
<g>
</g>
<g>
</g>
<g>
</g>
<g>
</g>
<g>
</g>
<g>
</g>
<g>
</g>
<g>
</g>
<g>
</g>
<g>
</g>
<g>
</g>
</svg>
