<?xml version="1.0" encoding="UTF-8"?>
<svg xmlns="http://www.w3.org/2000/svg" xmlns:xlink="http://www.w3.org/1999/xlink" version="1.1" id="Capa_1" x="0px" y="0px" viewBox="0 0 512 512" style="enable-background:new 0 0 512 512;" xml:space="preserve" width="512" height="512">
<g>
	<g>
		<g>
			<path style="fill:none;stroke:#000000;stroke-width:30;stroke-linecap:round;stroke-linejoin:round;stroke-miterlimit:10;" d="&#10;&#9;&#9;&#9;&#9;M240.775,237V136c0-16.569-13.431-30-30-30h0c-16.569,0-30,13.431-30,30v160"/>
			<path style="fill:none;stroke:#000000;stroke-width:30;stroke-linecap:round;stroke-linejoin:round;stroke-miterlimit:10;" d="&#10;&#9;&#9;&#9;&#9;M300.775,252.077v-11.046c0-16.569-13.431-30-30-30h0c-16.569,0-30,13.431-30,30v11.046"/>
			<path style="fill:none;stroke:#000000;stroke-width:30;stroke-linecap:round;stroke-linejoin:round;stroke-miterlimit:10;" d="&#10;&#9;&#9;&#9;&#9;M360.925,262v-9.968c0-16.569-13.431-30-30-30h0c-16.569,0-30,13.431-30,30V262"/>
		</g>
		<path style="fill:none;stroke:#000000;stroke-width:30;stroke-linecap:round;stroke-linejoin:round;stroke-miterlimit:10;" d="&#10;&#9;&#9;&#9;M180.775,331v-75h0c-33.09,0-59.869,26.91-59.709,59.999l0.161,33.086c0.151,41.239,23.216,78.974,59.849,97.915l0,0v0&#10;&#9;&#9;&#9;c0,27.614,22.386,50,50,50h105.699c27.614,0,50-22.386,50-50v-9.933l0,0c21.801-19.132,34.301-46.731,34.301-75.737v-99.298&#10;&#9;&#9;&#9;c0-16.569-13.431-30-30-30h0c-16.569,0-30,13.432-30,30.001l0,0v10.044"/>
	</g>
	
		<line style="fill:none;stroke:#000000;stroke-width:30;stroke-linecap:round;stroke-linejoin:round;stroke-miterlimit:10;" x1="300.925" y1="136" x2="330.925" y2="136"/>
	
		<line style="fill:none;stroke:#000000;stroke-width:30;stroke-linecap:round;stroke-linejoin:round;stroke-miterlimit:10;" x1="274.564" y1="72.36" x2="295.778" y2="51.147"/>
	
		<line style="fill:none;stroke:#000000;stroke-width:30;stroke-linecap:round;stroke-linejoin:round;stroke-miterlimit:10;" x1="147.285" y1="72.36" x2="126.072" y2="51.147"/>
	
		<line style="fill:none;stroke:#000000;stroke-width:30;stroke-linecap:round;stroke-linejoin:round;stroke-miterlimit:10;" x1="90.925" y1="136" x2="120.925" y2="136"/>
	
		<line style="fill:none;stroke:#000000;stroke-width:30;stroke-linecap:round;stroke-linejoin:round;stroke-miterlimit:10;" x1="210.925" y1="44" x2="210.925" y2="15"/>
</g>















</svg>
