<?xml version="1.0" encoding="UTF-8" standalone="no"?>
<!-- Created with Inkscape (http://www.inkscape.org/) -->

<svg
   version="1.1"
   id="svg1989"
   xml:space="preserve"
   width="682.66669"
   height="682.66669"
   viewBox="0 0 682.66669 682.66669"
   xmlns="http://www.w3.org/2000/svg"
   xmlns:svg="http://www.w3.org/2000/svg"><defs
     id="defs1993"><clipPath
       clipPathUnits="userSpaceOnUse"
       id="clipPath2003"><path
         d="M 0,512 H 512 V 0 H 0 Z"
         id="path2001" /></clipPath></defs><g
     id="g1995"
     transform="matrix(1.3333333,0,0,-1.3333333,0,682.66667)"><g
       id="g1997"><g
         id="g1999"
         clip-path="url(#clipPath2003)"><g
           id="g2005"
           transform="translate(308.4287,106)"><path
             d="m 0,0 c -82.705,0 -159.614,67.295 -171.429,150 -11.815,82.705 45.866,150 128.572,150 82.705,0 157.513,-67.295 169.328,-150 C 138.286,67.295 82.705,0 0,0 Z"
             style="fill:none;stroke:#000000;stroke-width:30;stroke-linecap:round;stroke-linejoin:round;stroke-miterlimit:10;stroke-dasharray:none;stroke-opacity:1"
             id="path2007" /></g><g
           id="g2009"
           transform="translate(278.4287,316)"><path
             d="m 0,0 8.571,-60 68.572,-60"
             style="fill:none;stroke:#000000;stroke-width:30;stroke-linecap:round;stroke-linejoin:round;stroke-miterlimit:10;stroke-dasharray:none;stroke-opacity:1"
             id="path2011" /></g><g
           id="g2013"
           transform="translate(265.5713,406)"><path
             d="M 0,0 4.286,-30"
             style="fill:none;stroke:#000000;stroke-width:30;stroke-linecap:round;stroke-linejoin:round;stroke-miterlimit:10;stroke-dasharray:none;stroke-opacity:1"
             id="path2015" /></g><g
           id="g2017"
           transform="translate(304.1431,136)"><path
             d="M 0,0 4.286,-30"
             style="fill:none;stroke:#000000;stroke-width:30;stroke-linecap:round;stroke-linejoin:round;stroke-miterlimit:10;stroke-dasharray:none;stroke-opacity:1"
             id="path2019" /></g><g
           id="g2021"
           transform="translate(137,256)"><path
             d="M 0,0 H 30"
             style="fill:none;stroke:#000000;stroke-width:30;stroke-linecap:round;stroke-linejoin:round;stroke-miterlimit:10;stroke-dasharray:none;stroke-opacity:1"
             id="path2023" /></g><g
           id="g2025"
           transform="translate(404.8999,256)"><path
             d="M 0,0 H 30"
             style="fill:none;stroke:#000000;stroke-width:30;stroke-linecap:round;stroke-linejoin:round;stroke-miterlimit:10;stroke-dasharray:none;stroke-opacity:1"
             id="path2027" /></g><g
           id="g2029"
           transform="translate(494.8999,256)"><path
             d="m 0,0 c 16.569,-115.98 -61.92,-210 -177.9,-210 -115.98,0 -223.432,94.02 -240,210 -16.568,115.98 64.02,210 180,210 C -121.92,210 -16.568,115.98 0,0 Z"
             style="fill:none;stroke:#000000;stroke-width:30;stroke-linecap:round;stroke-linejoin:round;stroke-miterlimit:10;stroke-dasharray:none;stroke-opacity:1"
             id="path2031" /></g><g
           id="g2033"
           transform="translate(40.749,166)"><path
             d="M 0,0 H 69.317"
             style="fill:none;stroke:#000000;stroke-width:30;stroke-linecap:round;stroke-linejoin:round;stroke-miterlimit:10;stroke-dasharray:none;stroke-opacity:1"
             id="path2035" /></g><g
           id="g2037"
           transform="translate(15,256)"><path
             d="M 0,0 H 62"
             style="fill:none;stroke:#000000;stroke-width:30;stroke-linecap:round;stroke-linejoin:round;stroke-miterlimit:10;stroke-dasharray:none;stroke-opacity:1"
             id="path2039" /></g><g
           id="g2041"
           transform="translate(19.8301,346)"><path
             d="M 0,0 H 64.521"
             style="fill:none;stroke:#000000;stroke-width:30;stroke-linecap:round;stroke-linejoin:round;stroke-miterlimit:10;stroke-dasharray:none;stroke-opacity:1"
             id="path2043" /></g></g></g></g></svg>
