<?xml version="1.0" encoding="UTF-8" standalone="no"?>
<!-- Created with Inkscape (http://www.inkscape.org/) -->

<svg
   version="1.1"
   id="svg2307"
   xml:space="preserve"
   width="682.66669"
   height="682.66669"
   viewBox="0 0 682.66669 682.66669"
   xmlns="http://www.w3.org/2000/svg"
   xmlns:svg="http://www.w3.org/2000/svg"><defs
     id="defs2311"><clipPath
       clipPathUnits="userSpaceOnUse"
       id="clipPath2321"><path
         d="M 0,512 H 512 V 0 H 0 Z"
         id="path2319" /></clipPath></defs><g
     id="g2313"
     transform="matrix(1.3333333,0,0,-1.3333333,0,682.66667)"><g
       id="g2315"><g
         id="g2317"
         clip-path="url(#clipPath2321)"><g
           id="g2323"
           transform="translate(497,454.5732)"><path
             d="m 0,0 -49.497,-77.781 -35.356,-7.072 -197.177,-197.177 -42.427,42.426 197.178,197.178 7.071,35.356 77.781,49.497 z"
             style="fill:none;stroke:#000000;stroke-width:30;stroke-linecap:round;stroke-linejoin:round;stroke-miterlimit:10;stroke-dasharray:none;stroke-opacity:1"
             id="path2325" /></g><g
           id="g2327"
           transform="translate(32.5732,32.5732)"><path
             d="M 0,0 V 0 C 23.432,-23.431 61.422,-23.431 84.854,0 L 203.609,118.757 118.757,203.609 0,84.854 C -23.431,61.422 -23.431,23.432 0,0 Z"
             style="fill:none;stroke:#000000;stroke-width:30;stroke-linecap:round;stroke-linejoin:round;stroke-miterlimit:10;stroke-dasharray:none;stroke-opacity:1"
             id="path2329" /></g><g
           id="g2331"
           transform="translate(250.3252,137.1875)"><path
             d="M 0,0 -113.138,113.138"
             style="fill:none;stroke:#000000;stroke-width:30;stroke-linecap:round;stroke-linejoin:round;stroke-miterlimit:10;stroke-dasharray:none;stroke-opacity:1"
             id="path2333" /></g><g
           id="g2335"
           transform="translate(150.3311,150.3311)"><path
             d="M 0,0 -76.331,-76.331"
             style="fill:none;stroke:#000000;stroke-width:30;stroke-linecap:round;stroke-linejoin:round;stroke-miterlimit:10;stroke-dasharray:none;stroke-opacity:1"
             id="path2337" /></g><g
           id="g2339"
           transform="translate(210.0381,252.4639)"><path
             d="m 0,0 -89.049,89.05 c -28.008,-9.635 -60.275,-3.365 -82.629,18.988 -22.352,22.354 -28.623,54.62 -18.987,82.628 l 47.271,-40.202 42.427,42.427 -40.201,47.272 c 28.008,9.636 60.274,3.366 82.628,-18.987 22.353,-22.354 28.623,-54.62 18.988,-82.629 L 49.497,49.498"
             style="fill:none;stroke:#000000;stroke-width:30;stroke-linecap:round;stroke-linejoin:round;stroke-miterlimit:10;stroke-dasharray:none;stroke-opacity:1"
             id="path2341" /></g><g
           id="g2343"
           transform="translate(301.9619,259.5352)"><path
             d="m 0,0 89.049,-89.049 c 28.008,9.635 60.275,3.364 82.629,-18.989 22.352,-22.353 28.623,-54.619 18.987,-82.627 l -47.271,40.201 -42.427,-42.426 40.201,-47.273 c -28.008,-9.634 -60.274,-3.364 -82.628,18.989 -22.353,22.354 -28.623,54.619 -18.988,82.627 l -89.05,89.05"
             style="fill:none;stroke:#000000;stroke-width:30;stroke-linecap:round;stroke-linejoin:round;stroke-miterlimit:10;stroke-dasharray:none;stroke-opacity:1"
             id="path2345" /></g><g
           id="g2347"
           transform="translate(259.5361,301.9619)"><path
             d="m 0,0 -89.05,89.049 c 9.635,28.008 3.365,60.275 -18.988,82.629 -22.354,22.352 -54.62,28.623 -82.628,18.987 l 40.202,-47.271 -42.427,-42.427 -47.272,40.201 c -9.636,-28.008 -3.366,-60.274 18.987,-82.628 22.354,-22.353 54.62,-28.623 82.629,-18.988 l 89.049,-89.049"
             style="fill:none;stroke:#000000;stroke-width:30;stroke-linecap:round;stroke-linejoin:round;stroke-miterlimit:10;stroke-dasharray:none;stroke-opacity:1"
             id="path2349" /></g><g
           id="g2351"
           transform="translate(252.4648,210.0381)"><path
             d="m 0,0 89.049,-89.049 c -9.635,-28.008 -3.364,-60.275 18.989,-82.629 22.353,-22.352 54.619,-28.623 82.627,-18.987 l -40.201,47.271 42.426,42.427 47.273,-40.201 c 9.634,28.008 3.364,60.274 -18.989,82.628 -22.354,22.353 -54.619,28.623 -82.627,18.988 l -89.05,89.05"
             style="fill:none;stroke:#000000;stroke-width:30;stroke-linecap:round;stroke-linejoin:round;stroke-miterlimit:10;stroke-dasharray:none;stroke-opacity:1"
             id="path2353" /></g></g></g></g></svg>
