<svg id="Capa_1" enable-background="new 0 0 512 512" height="512" viewBox="0 0 512 512" width="512" xmlns="http://www.w3.org/2000/svg"><g><path d="m472.537 412.551c-1.438-8.158-9.219-13.607-17.376-12.168l-14.774 2.604-33.86-191.934c-1.438-8.156-9.219-13.596-17.375-12.165l-73.962 13.035-18.232-103.348c-1.438-8.156-9.221-13.6-17.375-12.165-21.22 3.74-82.765 14.586-103.286 18.203l-15.132-85.971c-1.094-6.212-5.957-11.076-12.17-12.171l-92.156-16.242c-8.158-1.434-15.938 4.01-17.376 12.168-1.438 8.157 4.011 15.936 12.169 17.374l81.807 14.417c5.869 33.345 57.643 327.5 65.84 374.068-29.619 43.525 7.746 101.989 60.026 92.775 28.114-4.955 47.422-28.355 49.416-54.38 46.434-8.183 105.158-18.533 151.647-26.726 8.158-1.438 13.607-9.217 12.169-17.374zm-61.694-4.357-107.344 18.918c-13.102-28.755-47.04-43.134-77.579-30.557l-23.634-134.276 43.688-7.7 10.427 59.103c1.283 7.277 7.611 12.396 14.754 12.396 2.483 0 .161.123 62.325-10.753 8.154-1.437 13.608-9.219 12.168-17.376l-10.426-59.1 44.365-7.819zm-105.165-164.136 7.821 44.331-30.159 5.315-7.821-44.331c13.7-2.414 17.067-3.008 30.159-5.315zm-94.747-105.09 2.604 14.761c1.283 7.276 7.612 12.395 14.754 12.395 9.37 0 16.405-8.452 14.789-17.607l-2.604-14.756 29.544-5.207 15.627 88.575-88.559 15.607-15.591-88.581zm43.167 342.521c-26.214 4.621-45.051-24.93-29.787-46.715 15.279-21.808 49.495-14.171 54.122 11.993 2.874 16.31-8.005 31.845-24.335 34.722z"/></g></svg>