<?xml version="1.0" encoding="UTF-8" standalone="no"?>
<!-- Created with Inkscape (http://www.inkscape.org/) -->

<svg
   version="1.1"
   id="svg183"
   xml:space="preserve"
   width="682.66669"
   height="682.66669"
   viewBox="0 0 682.66669 682.66669"
   xmlns="http://www.w3.org/2000/svg"
   xmlns:svg="http://www.w3.org/2000/svg"><defs
     id="defs187"><clipPath
       clipPathUnits="userSpaceOnUse"
       id="clipPath197"><path
         d="M 0,512 H 512 V 0 H 0 Z"
         id="path195" /></clipPath></defs><g
     id="g189"
     transform="matrix(1.3333333,0,0,-1.3333333,0,682.66667)"><g
       id="g191"><g
         id="g193"
         clip-path="url(#clipPath197)"><g
           id="g199"
           transform="translate(196,15)"><path
             d="M 0,0 V 82"
             style="fill:none;stroke:#000000;stroke-width:30;stroke-linecap:round;stroke-linejoin:round;stroke-miterlimit:10;stroke-dasharray:none;stroke-opacity:1"
             id="path201" /></g><g
           id="g203"
           transform="translate(316,97)"><path
             d="M 0,0 V -82"
             style="fill:none;stroke:#000000;stroke-width:30;stroke-linecap:round;stroke-linejoin:round;stroke-miterlimit:10;stroke-dasharray:none;stroke-opacity:1"
             id="path205" /></g><g
           id="g207"
           transform="translate(356,15)"><path
             d="M 0,0 H -200"
             style="fill:none;stroke:#000000;stroke-width:30;stroke-linecap:round;stroke-linejoin:round;stroke-miterlimit:10;stroke-dasharray:none;stroke-opacity:1"
             id="path209" /></g><g
           id="g211"
           transform="translate(15,157)"><path
             d="M 0,0 H 482"
             style="fill:none;stroke:#000000;stroke-width:30;stroke-linecap:round;stroke-linejoin:round;stroke-miterlimit:10;stroke-dasharray:none;stroke-opacity:1"
             id="path213" /></g><g
           id="g215"
           transform="translate(281.0791,432.1465)"><path
             d="m 0,0 94.709,-172.802 c 10.445,-19.059 -3.346,-42.344 -25.08,-42.344 h -189.417 c -21.733,0 -35.524,23.285 -25.079,42.344 L -50.159,0 C -39.304,19.805 -10.854,19.805 0,0 Z"
             style="fill:none;stroke:#000000;stroke-width:30;stroke-linecap:round;stroke-linejoin:round;stroke-miterlimit:10;stroke-dasharray:none;stroke-opacity:1"
             id="path217" /></g><g
           id="g219"
           transform="translate(467,497)"><path
             d="m 0,0 h -422 c -16.568,0 -30,-13.431 -30,-30 v -340 c 0,-16.568 13.432,-30 30,-30 H 0 c 16.568,0 30,13.432 30,30 V -30 C 30,-13.431 16.568,0 0,0 Z"
             style="fill:none;stroke:#000000;stroke-width:30;stroke-linecap:round;stroke-linejoin:round;stroke-miterlimit:10;stroke-dasharray:none;stroke-opacity:1"
             id="path221" /></g><g
           id="g223"
           transform="translate(271,272)"><path
             d="m 0,0 c 0,-8.284 -6.716,-15 -15,-15 -8.285,0 -15,6.716 -15,15 0,8.285 6.715,15 15,15 C -6.716,15 0,8.285 0,0"
             style="fill:#000000;fill-opacity:1;fill-rule:nonzero;stroke:none"
             id="path225" /></g><g
           id="g227"
           transform="translate(256.0898,317)"><path
             d="M 0,0 V 60"
             style="fill:none;stroke:#000000;stroke-width:30;stroke-linecap:round;stroke-linejoin:round;stroke-miterlimit:10;stroke-dasharray:none;stroke-opacity:1"
             id="path229" /></g></g></g></g></svg>
