<?xml version="1.0" encoding="iso-8859-1"?>
<!-- Generator: Adobe Illustrator 18.0.0, SVG Export Plug-In . SVG Version: 6.00 Build 0)  -->
<!DOCTYPE svg PUBLIC "-//W3C//DTD SVG 1.1//EN" "http://www.w3.org/Graphics/SVG/1.1/DTD/svg11.dtd">
<svg version="1.1" id="Capa_1" xmlns="http://www.w3.org/2000/svg" xmlns:xlink="http://www.w3.org/1999/xlink" x="0px" y="0px"
	 viewBox="0 0 330 330" style="enable-background:new 0 0 330 330;" xml:space="preserve">
<g>
	<path d="M165,0C74.019,0,0,74.018,0,165c0,90.98,74.019,165,165,165s165-74.02,165-165C330,74.018,255.981,0,165,0z M165,300
		c-74.439,0-135-60.561-135-135S90.561,30,165,30s135,60.561,135,135S239.439,300,165,300z"/>
	<path d="M175.608,64.393c-5.857-5.857-15.355-5.857-21.213,0L97.12,121.664c-5.857,5.857-5.858,15.355-0.001,21.213
		c5.858,5.857,15.355,5.859,21.214,0.002l31.669-31.668V195c0,8.283,6.716,15,15,15c8.284,0,15-6.717,15-15v-83.787l31.665,31.664
		c2.929,2.93,6.768,4.395,10.606,4.395c3.839,0,7.678-1.465,10.606-4.395c5.858-5.857,5.858-15.354,0-21.213L175.608,64.393z"/>
	<path d="M195,240h-60c-8.284,0-15,6.715-15,15c0,8.283,6.716,15,15,15h60c8.284,0,15-6.717,15-15C210,246.715,203.284,240,195,240z
		"/>
</g>
<g>
</g>
<g>
</g>
<g>
</g>
<g>
</g>
<g>
</g>
<g>
</g>
<g>
</g>
<g>
</g>
<g>
</g>
<g>
</g>
<g>
</g>
<g>
</g>
<g>
</g>
<g>
</g>
<g>
</g>
</svg>
