<?xml version="1.0" encoding="UTF-8" standalone="no"?>
<!-- Created with Inkscape (http://www.inkscape.org/) -->

<svg
   version="1.1"
   id="svg3468"
   xml:space="preserve"
   width="682.66669"
   height="682.66669"
   viewBox="0 0 682.66669 682.66669"
   xmlns="http://www.w3.org/2000/svg"
   xmlns:svg="http://www.w3.org/2000/svg"><defs
     id="defs3472"><clipPath
       clipPathUnits="userSpaceOnUse"
       id="clipPath3482"><path
         d="M 0,512 H 512 V 0 H 0 Z"
         id="path3480" /></clipPath></defs><g
     id="g3474"
     transform="matrix(1.3333333,0,0,-1.3333333,0,682.66667)"><g
       id="g3476"><g
         id="g3478"
         clip-path="url(#clipPath3482)"><g
           id="g3484"
           transform="translate(207.7998,497)"><path
             d="m 0,0 c 57.64,0 104.434,-46.794 104.434,-104.434 0,-57.638 -46.794,-104.432 -104.434,-104.432 -57.639,0 -104.434,46.794 -104.434,104.432 C -104.434,-46.794 -57.639,0 0,0 Z"
             style="fill:none;stroke:#000000;stroke-width:30;stroke-linecap:round;stroke-linejoin:round;stroke-miterlimit:10;stroke-dasharray:none;stroke-opacity:1"
             id="path3486" /></g><g
           id="g3488"
           transform="translate(400.5996,207.7998)"><path
             d="M 0,0 C 53.205,0 96.4,-43.195 96.4,-96.399 96.4,-149.604 53.205,-192.8 0,-192.8 c -53.204,0 -96.399,43.196 -96.399,96.401 C -96.399,-43.195 -53.204,0 0,0 Z"
             style="fill:none;stroke:#000000;stroke-width:30;stroke-linecap:round;stroke-linejoin:round;stroke-miterlimit:10;stroke-dasharray:none;stroke-opacity:1"
             id="path3490" /></g><g
           id="g3492"
           transform="translate(400.5996,15)"><path
             d="m 0,0 h -385.6 v 80.333 c 0,106.41 86.391,192.801 192.8,192.801 66.878,0 125.851,-34.126 160.442,-85.909 C -69.665,173.914 -96.399,138.254 -96.399,96.4 -96.399,43.195 -53.204,0 0,0 Z"
             style="fill:none;stroke:#000000;stroke-width:30;stroke-linecap:round;stroke-linejoin:round;stroke-miterlimit:10;stroke-dasharray:none;stroke-opacity:1"
             id="path3494" /></g><g
           id="g3496"
           transform="translate(368.4668,127.4668)"><path
             d="m 0,0 32.133,-32.134 96.4,96.401"
             style="fill:none;stroke:#000000;stroke-width:30;stroke-linecap:round;stroke-linejoin:round;stroke-miterlimit:10;stroke-dasharray:none;stroke-opacity:1"
             id="path3498" /></g></g></g></g></svg>
