<?xml version="1.0" encoding="UTF-8"?>
<svg xmlns="http://www.w3.org/2000/svg" xmlns:xlink="http://www.w3.org/1999/xlink" version="1.1" id="Capa_1" x="0px" y="0px" viewBox="0 0 512 512" style="enable-background:new 0 0 512 512;" xml:space="preserve" width="512" height="512">
<g>
	<path style="fill:none;stroke:#000000;stroke-width:30;stroke-linecap:round;stroke-linejoin:round;stroke-miterlimit:10;" d="&#10;&#9;&#9;M104.926,394.34H30c-8.284,0-15-6.716-15-15V30c0-8.284,6.716-15,15-15h452c8.284,0,15,6.716,15,15v349.34c0,8.284-6.716,15-15,15&#10;&#9;&#9;h-74.362"/>
	
		<line style="fill:none;stroke:#000000;stroke-width:30;stroke-linecap:round;stroke-linejoin:round;stroke-miterlimit:10;" x1="222.523" y1="394.34" x2="166.852" y2="394.34"/>
	
		<line style="fill:none;stroke:#000000;stroke-width:30;stroke-linecap:round;stroke-linejoin:round;stroke-miterlimit:10;" x1="345.302" y1="394.34" x2="285.018" y2="394.34"/>
	
		<circle style="fill:none;stroke:#000000;stroke-width:30;stroke-linecap:round;stroke-linejoin:round;stroke-miterlimit:10;" cx="252.523" cy="165.047" r="30"/>
	
		<circle style="fill:none;stroke:#000000;stroke-width:30;stroke-linecap:round;stroke-linejoin:round;stroke-miterlimit:10;" cx="134.926" cy="224.52" r="30"/>
	
		<circle style="fill:none;stroke:#000000;stroke-width:30;stroke-linecap:round;stroke-linejoin:round;stroke-miterlimit:10;" cx="375.302" cy="185.96" r="30"/>
	
		<line style="fill:none;stroke:#000000;stroke-width:30;stroke-linecap:round;stroke-linejoin:round;stroke-miterlimit:10;" x1="497" y1="75.326" x2="15" y2="75.326"/>
	<g>
		<g>
			
				<line style="fill:none;stroke:#000000;stroke-width:30;stroke-linecap:round;stroke-linejoin:round;stroke-miterlimit:10;" x1="436.979" y1="497" x2="75.021" y2="497"/>
			
				<rect x="345.398" y="299.099" transform="matrix(-1 -4.498192e-11 4.498192e-11 -1 750.6038 796.0989)" style="fill:none;stroke:#000000;stroke-width:30;stroke-linecap:round;stroke-linejoin:round;stroke-miterlimit:10;" width="59.808" height="197.901"/>
			
				<rect x="225.21" y="278.399" transform="matrix(-1 -4.482959e-11 4.482959e-11 -1 510.2274 775.3986)" style="fill:none;stroke:#000000;stroke-width:30;stroke-linecap:round;stroke-linejoin:round;stroke-miterlimit:10;" width="59.808" height="218.601"/>
			
				<rect x="105.021" y="337.523" transform="matrix(-1 -4.498192e-11 4.498192e-11 -1 269.851 834.5233)" style="fill:none;stroke:#000000;stroke-width:30;stroke-linecap:round;stroke-linejoin:round;stroke-miterlimit:10;" width="59.808" height="159.477"/>
		</g>
	</g>
	
		<line style="fill:none;stroke:#000000;stroke-width:30;stroke-linecap:round;stroke-linejoin:round;stroke-miterlimit:10;" x1="166.852" y1="208.374" x2="222.523" y2="180.219"/>
	
		<line style="fill:none;stroke:#000000;stroke-width:30;stroke-linecap:round;stroke-linejoin:round;stroke-miterlimit:10;" x1="340.109" y1="179.966" x2="286.261" y2="170.794"/>
</g>















</svg>
